<svg width="90" height="47" viewBox="0 0 90 47" fill="none" xmlns="http://www.w3.org/2000/svg">
<path d="M89.7648 0.501028L89.6837 0.419856L89.4063 0.325156C87.5614 0.173082 85.7084 0.143704 83.8596 0.237218L80.9509 0.298098C61.2531 0.298098 25.7739 2.92943 9.47857 20.5371C3.09978 27.4232 0.258741 36.0072 1.03664 45.9779L1.11105 46.3499L49.8821 46.4378L50.1933 45.8426L50.1054 45.6396C47.6364 40.2281 45.6138 32.0297 50.0107 23.5607C55.4222 13.1977 69.0388 5.71635 89.474 1.91478L89.6904 1.8742L89.7648 1.6645V0.501028Z" fill="#0067B1"/>
<path d="M81.6408 1.41422C83.5078 1.25864 89.4199 0.994828 89.4199 0.994828C89.4413 0.901339 89.4413 0.804213 89.4199 0.710724C86.3691 0.419856 84.1301 0.710724 80.9779 0.710724C39.9115 0.683666 -1.28354 11.3375 1.42221 45.944H16.4526C12.4008 15.7141 44.3759 4.04556 81.6408 1.41422Z" fill="white"/>
<path d="M89.4334 1.20452C76.067 2.5574 25.9363 9.53822 33.4109 46.0387H49.5372C49.6202 45.9736 49.6992 45.9036 49.7739 45.829C42.4346 29.7772 48.3399 9.21353 89.4199 1.58333C89.4532 1.45975 89.4579 1.33017 89.4334 1.20452Z" fill="#ED1B2E"/>
<path fill-rule="evenodd" clip-rule="evenodd" d="M71.0952 40.864C69.0719 41.9285 66.8129 42.4659 64.527 42.4266C62.6756 42.451 60.8373 42.1132 59.1155 41.4322C57.666 40.9018 56.4017 39.9618 55.4763 38.7265C54.991 38.0609 54.7197 37.2635 54.6984 36.4401C54.6984 34.7761 55.686 33.3555 57.6476 32.1921C59.7091 31.0776 62.0113 30.4828 64.3547 30.4592C66.698 30.4357 69.0117 30.984 71.0952 32.0568V35.2293C70.34 34.3637 69.4517 33.6239 68.4639 33.0376C67.2619 32.3656 65.9039 32.0226 64.527 32.0433C62.8658 31.9828 61.2264 32.4363 59.8325 33.342C59.288 33.6626 58.8329 34.115 58.509 34.6576C58.1851 35.2001 58.0029 35.8154 57.9791 36.4469C57.9952 37.0733 58.1708 37.6852 58.4892 38.2249C58.8076 38.7646 59.2583 39.2143 59.7987 39.5314C61.1989 40.4618 62.8534 40.9345 64.5338 40.8843C66.9734 40.8843 69.1628 39.82 71.102 37.6915L71.0952 40.864Z" fill="#0067B1"/>
<path fill-rule="evenodd" clip-rule="evenodd" d="M86.3759 30.4469V31.1233C84.9562 30.6873 83.4777 30.4729 81.9926 30.4875C79.5993 30.4214 77.2339 31.0134 75.1538 32.1988C73.1989 33.3623 72.2046 34.7828 72.2046 36.4469C72.2233 37.2707 72.4948 38.0689 72.9825 38.7332C73.9055 39.9681 75.1675 40.9081 76.6149 41.439C78.3367 42.1199 80.175 42.4577 82.0264 42.4333C83.5135 42.4338 84.9919 42.2057 86.4097 41.7569V42.7715H89.6228V30.4469H86.3759ZM81.9926 40.8572C80.3119 40.9102 78.6566 40.4372 77.2575 39.5044C76.7167 39.1877 76.2656 38.7382 75.9472 38.1984C75.6287 37.6586 75.4534 37.0464 75.4379 36.4198C75.4617 35.7884 75.644 35.1731 75.9678 34.6305C76.2917 34.088 76.7468 33.6356 77.2914 33.315C78.6852 32.4093 80.3246 31.9557 81.9858 32.0162C83.3628 31.9952 84.7209 32.3382 85.9227 33.0106C86.0715 33.0917 86.2203 33.1932 86.3691 33.2947V39.5111C85.0743 40.3802 83.552 40.8484 81.9926 40.8572Z" fill="#0067B1"/>
<path fill-rule="evenodd" clip-rule="evenodd" d="M50.7345 32.5641C48.6525 31.3691 46.2819 30.7701 43.8821 30.8324C42.397 30.8174 40.9185 31.0319 39.4988 31.4683V30.7919H36.2858V46.0117H39.4988V42.1357C40.9164 42.5855 42.3949 42.8137 43.8821 42.8121C45.7335 42.8365 47.5718 42.4987 49.2936 41.8178C50.7403 41.2855 52.002 40.3458 52.9261 39.112C53.4141 38.4479 53.6857 37.6496 53.704 36.8257C53.6837 35.1413 52.6961 33.7276 50.7345 32.5641ZM48.6172 39.8899C47.2182 40.8228 45.5628 41.2957 43.8821 41.2428C42.3234 41.2421 40.7991 40.7834 39.4988 39.9237V33.7005C39.6477 33.6058 39.7965 33.5044 39.9453 33.4164C41.1474 32.7447 42.5053 32.4017 43.8821 32.4221C45.543 32.3642 47.1816 32.8176 48.5766 33.7208C49.1215 34.0409 49.577 34.4932 49.901 35.0359C50.2249 35.5785 50.4069 36.1941 50.4301 36.8257C50.4118 37.4481 50.236 38.0557 49.9189 38.5916C49.6018 39.1276 49.154 39.5743 48.6172 39.8899Z" fill="#0067B1"/>
</svg>
