<svg width="66" height="64" viewBox="0 0 66 64" fill="none" xmlns="http://www.w3.org/2000/svg">
<path d="M51.8086 11.5848C51.8086 11.5848 51.8086 29.6757 51.8086 38.5061C51.8086 49.8148 33.3492 57.4663 33.3492 57.4663H33.3483C33.3483 57.4663 14.8895 49.8148 14.8895 38.5061C14.8895 29.6757 14.8895 11.5848 14.8893 11.5848" fill="#004C99"/>
<path d="M51.8086 11.5848C51.8086 11.5848 51.8086 29.6757 51.8086 38.5061C51.8086 49.8148 33.3492 57.4663 33.3492 57.4663H33.3483C33.3483 57.4663 14.8895 49.8148 14.8895 38.5061C14.8895 29.6757 14.8895 11.5848 14.8893 11.5848" stroke="#004C99" stroke-width="0.312876"/>
<path d="M51.8086 11.5848C51.8086 11.5848 51.8086 29.6757 51.8086 38.5061C51.8086 49.8148 33.3492 57.4663 33.3492 57.4663H33.3483C33.3483 57.4663 14.8895 49.8148 14.8895 38.5061C14.8895 29.6757 14.8895 11.5848 14.8893 11.5848" fill="#004C99"/>
<path d="M33.8689 46.9203C33.5341 47.9626 33.3627 48.0125 32.8058 48.8632C32.2717 49.6787 32.3924 50.7227 33.2699 50.8392C34.2695 50.972 34.8056 49.7972 34.4427 48.6632C34.2148 47.9516 33.8689 46.9203 33.8689 46.9203Z" fill="white"/>
<path d="M20.6593 27.0219C20.3246 28.0642 20.1532 28.1142 19.5961 28.9649C19.0618 29.7804 19.1827 30.8245 20.0602 30.941C21.0597 31.0736 21.5959 29.8988 21.2328 28.7647C21.0049 28.0533 20.6593 27.0219 20.6593 27.0219Z" fill="white"/>
<path d="M47.1238 27.0219C46.789 28.0642 46.6176 28.1142 46.0605 28.9649C45.5262 29.7804 45.6471 30.8245 46.5246 30.941C47.5241 31.0736 48.0605 29.8988 47.6974 28.7647C47.4697 28.0533 47.1238 27.0219 47.1238 27.0219Z" fill="white"/>
<path d="M21.7484 39.2609C20.7951 39.1386 20.5418 40.0927 20.866 40.6033C21.3323 41.2048 21.0428 39.9676 21.4909 40.3352C21.6835 40.4938 21.6142 40.8385 21.4644 41.0103C21.3321 41.1625 20.6898 41.2135 20.2292 40.9106C19.5929 40.4924 19.089 39.5145 19.3392 38.4439C19.3436 38.4316 19.348 38.4209 19.3525 38.4083C19.5769 37.7918 20.0435 37.7803 20.3815 37.824C20.6825 37.8623 21.1032 37.8721 21.1032 37.8721C21.1032 37.8721 20.7049 36.949 20.0389 37.1493C20.0497 37.1374 20.058 37.1247 20.0692 37.1128C21.0182 36.078 22.4043 35.7578 23.2206 36.453C23.8493 36.9894 24.1343 38.1279 23.7261 39.0289C24.1877 38.6828 24.5044 38.2716 25.0228 38.1466C25.1117 37.1412 24.7806 36.1689 24.0263 35.5265C22.6711 34.3724 20.4581 34.7105 19.0931 36.2806C19 36.3879 18.9143 36.4988 18.8336 36.6121C18.3946 35.8843 17.8132 36.2563 17.8132 36.2563C17.8132 36.2563 18.3446 37.0122 18.3149 37.5747C17.8035 38.9174 18.0462 40.3829 19.0771 41.2239C20.0747 42.037 21.3297 42.0778 21.8419 41.8082C22.8379 41.2837 23.2661 39.4711 21.7484 39.2609Z" fill="#FDC600" stroke="#004C99" stroke-width="0.156438"/>
<path d="M24.7711 41.9557C24.9929 42.8803 24.0591 43.2277 23.5116 42.9612C22.858 42.5653 24.1334 42.7221 23.7169 42.3192C23.5374 42.1461 23.198 42.2508 23.0406 42.4151C22.901 42.5612 22.9154 43.1971 23.2677 43.6189C23.7539 44.2012 24.7911 44.5954 25.8426 44.2393C25.8545 44.234 25.8647 44.2286 25.8767 44.2226C26.4741 43.9383 26.438 43.4786 26.3591 43.15C26.2893 42.8587 26.2366 42.4464 26.2366 42.4464C26.2366 42.4464 27.2069 42.7423 27.0732 43.418C27.0844 43.4061 27.0959 43.3964 27.1069 43.3849C28.051 42.3452 28.2296 40.9494 27.4457 40.2187C26.8416 39.6562 25.6661 39.4938 24.8014 39.9882C25.1019 39.4986 25.4836 39.1448 25.5552 38.622C26.5588 38.4307 27.5711 38.6569 28.296 39.3316C29.5975 40.5443 29.4855 42.7546 28.0451 44.2583C27.947 44.3607 27.8441 44.457 27.7386 44.5469C28.5167 44.9041 28.2019 45.5136 28.2019 45.5136C28.2019 45.5136 27.3859 45.0696 26.823 45.1561C25.5241 45.7973 24.0238 45.7102 23.071 44.7835C22.1496 43.8871 21.9788 42.658 22.1976 42.1268C22.623 41.0933 24.404 40.4851 24.7711 41.9557Z" fill="#FDC600" stroke="#004C99" stroke-width="0.156438"/>
<path d="M45.6563 16.314C45.6249 16.1795 45.5515 16.0519 45.4351 15.9562C45.1527 15.7227 44.7305 15.7594 44.4945 16.0397L40.7889 20.4244L26.6176 35.9505L27.582 36.7119L42.9222 19.8768L45.5341 16.987C45.7038 16.7965 45.7408 16.537 45.6563 16.314Z" fill="#FDC600"/>
<path d="M45.6563 16.314C45.6249 16.1795 45.5514 16.0519 45.4351 15.9562C45.1527 15.7227 44.7305 15.7594 44.4945 16.0397L40.7889 20.4244L26.6176 35.9505L27.582 36.7119L42.9222 19.8768L45.5341 16.987C45.7038 16.7965 45.7408 16.537 45.6563 16.314Z" stroke="#004C99" stroke-width="0.156438"/>
<path d="M46.2762 22.1965L46.9407 21.4632L46.5344 21.1028L47.1184 20.4557L47.5268 20.8171L48.0061 20.2892L46.0635 18.5568L45.5577 19.1159L44.9522 18.5795L45.4591 18.0179L44.9892 17.5981L40.7602 22.2586L41.2423 22.6887L41.7613 22.1135L42.3673 22.6503L41.8464 23.2273L43.7783 24.9496L44.3615 24.3066L43.9623 23.9532L44.5466 23.306L44.9476 23.6608L45.683 22.8482L44.6782 21.9506L44.053 22.6383L43.3941 22.0501L44.0194 21.3633L43.2566 20.6834L43.8492 20.0307L44.6126 20.7113L45.2062 20.0589L45.8651 20.6461L45.2722 21.2985L46.2762 22.1965Z" fill="#FDC600" stroke="#004C99" stroke-width="0.156438"/>
<path d="M27.2493 37.7783C26.7898 38.3052 26.0566 38.4251 25.61 38.045C25.1639 37.664 25.1734 36.928 25.6319 36.4001C26.09 35.8725 26.8242 35.754 27.2702 36.1334C27.7164 36.5147 27.7073 37.2508 27.2493 37.7783Z" fill="#FDC600" stroke="#004C99" stroke-width="0.156438"/>
<path d="M28.3395 36.8607C28.1372 37.0935 27.5359 36.9092 26.9965 36.4501C26.457 35.9894 26.1824 35.4294 26.3843 35.1959C26.5876 34.9631 27.1884 35.1474 27.7278 35.6068C28.2677 36.0668 28.5412 36.628 28.3395 36.8607Z" fill="#FDC600" stroke="#004C99" stroke-width="0.156438"/>
<path d="M27.8083 38.4954C25.6 39.106 24.6422 40.7419 23.8233 40.0307C23.0055 39.3191 24.2629 39.0295 24.846 35.9184C25.0326 34.9212 25.0765 36.984 25.895 37.6951C26.7125 38.4073 28.7943 38.2227 27.8083 38.4954Z" fill="#FDC600" stroke="#004C99" stroke-width="0.156438"/>
<path d="M28.7954 35.8553L27.3246 34.6027L26.9974 34.9778L28.4681 36.2304L28.7954 35.8553Z" fill="#FDC600" stroke="#004C99" stroke-width="0.156438"/>
<path d="M27.4857 37.3573L26.0157 36.104L26.3414 35.729L27.8127 36.9816L27.4857 37.3573Z" fill="#FDC600" stroke="#004C99" stroke-width="0.156438"/>
<path d="M44.9951 39.261C45.9484 39.1388 46.2016 40.0928 45.8775 40.6034C45.4109 41.2049 45.7004 39.9677 45.2526 40.3354C45.06 40.4939 45.1292 40.8386 45.2788 41.0104C45.4113 41.1626 46.0536 41.2136 46.5141 40.9107C47.1504 40.4925 47.6543 39.5146 47.4043 38.444C47.3996 38.4318 47.3955 38.4211 47.3909 38.4085C47.1666 37.792 46.6997 37.7804 46.3618 37.8241C46.0606 37.8624 45.6398 37.8722 45.6398 37.8722C45.6398 37.8722 46.0381 36.9491 46.7045 37.1494C46.6936 37.1375 46.6854 37.1248 46.6742 37.1129C45.7252 36.0782 44.339 35.7579 43.5227 36.4532C42.8939 36.9896 42.609 38.128 43.0171 39.0291C42.5555 38.683 42.239 38.2717 41.7206 38.1467C41.6314 37.1413 41.9626 36.169 42.7169 35.5266C44.0723 34.3725 46.2851 34.7106 47.6502 36.2807C47.7433 36.388 47.829 36.4989 47.9098 36.6122C48.3485 35.8845 48.93 36.2564 48.93 36.2564C48.93 36.2564 48.3985 37.0124 48.4281 37.5748C48.9395 38.9175 48.6972 40.383 47.6661 41.224C46.6683 42.0371 45.4135 42.0779 44.9013 41.8083C43.9053 41.2838 43.4773 39.4712 44.9951 39.261Z" fill="#FDC600" stroke="#004C99" stroke-width="0.156438"/>
<path d="M41.971 41.956C41.7491 42.8805 42.683 43.228 43.2305 42.9615C43.8843 42.5655 42.609 42.7223 43.0255 42.3194C43.205 42.1463 43.5442 42.2511 43.7015 42.4154C43.8414 42.5614 43.8266 43.1973 43.4747 43.6191C42.9883 44.2014 41.9512 44.5957 40.8998 44.2395C40.8877 44.2343 40.8776 44.2288 40.8655 44.2229C40.2681 43.9385 40.3041 43.4788 40.3831 43.1502C40.453 42.8589 40.5058 42.4466 40.5058 42.4466C40.5058 42.4466 39.5353 42.7426 39.6689 43.4183C39.6579 43.4064 39.6463 43.3967 39.6353 43.3851C38.6915 42.3455 38.5127 40.9497 39.2968 40.2189C39.9009 39.6565 41.0764 39.4941 41.9409 39.9884C41.6404 39.4988 41.2588 39.1451 41.1872 38.6223C40.1835 38.4309 39.1713 38.6571 38.4462 39.3318C37.1446 40.5446 37.2566 42.7548 38.6973 44.2586C38.7954 44.361 38.8983 44.4572 39.0038 44.5472C38.2257 44.9043 38.5404 45.5139 38.5404 45.5139C38.5404 45.5139 39.3561 45.0698 39.9193 45.1564C41.2182 45.7975 42.7184 45.7105 43.6714 44.7838C44.5929 43.8873 44.7636 42.6582 44.5447 42.1271C44.1194 41.0936 42.3381 40.4854 41.971 41.956Z" fill="#FDC600" stroke="#004C99" stroke-width="0.156438"/>
<path d="M25.9549 20.4243L22.2491 16.0395C22.0132 15.7593 21.5908 15.7225 21.3084 15.956C21.1922 16.0518 21.1186 16.1793 21.0874 16.3139C21.0029 16.537 21.0401 16.7965 21.2096 16.9867L23.8215 19.8765L39.1616 36.7116L40.1263 35.9502L25.9549 20.4243Z" fill="#FDC600"/>
<path d="M25.9549 20.4243L22.2491 16.0395C22.0132 15.7593 21.5908 15.7225 21.3084 15.956C21.1922 16.0518 21.1186 16.1793 21.0874 16.3139C21.0029 16.537 21.0401 16.7965 21.2096 16.9867L23.8215 19.8765L39.1616 36.7116L40.1263 35.9502L25.9549 20.4243Z" stroke="#004C99" stroke-width="0.156438"/>
<path d="M21.4727 21.2989L20.8794 20.6465L21.5386 20.0593L22.1322 20.7116L22.8953 20.031L23.4881 20.6838L22.7255 21.3637L23.3507 22.0504L22.6916 22.6387L22.0663 21.951L21.0617 22.8486L21.7969 23.6612L22.1981 23.3064L22.7823 23.9535L22.3833 24.3069L22.9666 24.95L24.8981 23.2277L24.3775 22.6506L24.9835 22.1139L25.5022 22.6891L25.9843 22.2589L21.7556 17.5985L21.2858 18.0182L21.7923 18.5798L21.187 19.1162L20.6813 18.5572L18.7386 20.2895L19.2181 20.8174L19.6261 20.456L20.2105 21.1031L19.8038 21.4635L20.4683 22.1969L21.4727 21.2989Z" fill="#FDC600" stroke="#004C99" stroke-width="0.156438"/>
<path d="M39.4945 37.7783C39.9537 38.3052 40.6869 38.4251 41.1335 38.045C41.58 37.664 41.5701 36.928 41.112 36.4001C40.6535 35.8725 39.9193 35.754 39.4735 36.1334C39.0273 36.5147 39.0364 37.2508 39.4945 37.7783Z" fill="#FDC600" stroke="#004C99" stroke-width="0.156438"/>
<path d="M38.4042 36.8606C38.6063 37.0934 39.2076 36.909 39.7468 36.45C40.2864 35.9893 40.5612 35.4293 40.359 35.1958C40.1559 34.9629 39.5553 35.1473 39.0157 35.6066C38.4758 36.0667 38.2025 36.6279 38.4042 36.8606Z" fill="#FDC600" stroke="#004C99" stroke-width="0.156438"/>
<path d="M38.9357 38.4956C41.1438 39.1061 42.1016 40.742 42.9203 40.0308C43.7382 39.3192 42.4809 39.0296 41.8978 35.9185C41.7112 34.9214 41.6675 36.9842 40.849 37.6952C40.0311 38.4075 37.9493 38.2228 38.9357 38.4956Z" fill="#FDC600" stroke="#004C99" stroke-width="0.156438"/>
<path d="M38.277 36.23L39.748 34.9773L39.4207 34.602L37.9497 35.8547L38.277 36.23Z" fill="#FDC600" stroke="#004C99" stroke-width="0.156438"/>
<path d="M39.2569 37.3576L40.7265 36.1044L40.4007 35.7294L38.9296 36.9819L39.2569 37.3576Z" fill="#FDC600" stroke="#004C99" stroke-width="0.156438"/>
<path d="M32.9531 60.0059C32.0747 60.2332 31.1577 60.5526 30.319 60.8807C28.5628 61.5674 27.1493 62.2928 27.1493 62.2928L27.505 63.6355C27.505 63.6355 31.889 60.8498 33.1154 60.4645" fill="#FFD444"/>
<path d="M32.9531 60.0059C32.0747 60.2332 31.1577 60.5526 30.319 60.8807C28.5628 61.5674 27.1493 62.2928 27.1493 62.2928L27.505 63.6355C27.505 63.6355 31.889 60.8498 33.1154 60.4645" stroke="#004C99" stroke-width="0.208584"/>
<path d="M32.9751 60.0059C33.8536 60.2332 34.7702 60.5526 35.6091 60.8807C37.3651 61.5674 38.7786 62.2928 38.7786 62.2928L38.423 63.6355C38.423 63.6355 34.0391 60.8498 32.8125 60.4645" fill="#FFD444"/>
<path d="M32.9751 60.0059C33.8536 60.2332 34.7702 60.5526 35.6091 60.8807C37.3651 61.5674 38.7786 62.2928 38.7786 62.2928L38.423 63.6355C38.423 63.6355 34.0391 60.8498 32.8125 60.4645" stroke="#004C99" stroke-width="0.208584"/>
<path d="M7.05084 28.4426C7.91293 25.8329 9.06175 22.8437 14.064 15.6339C10.5395 17.7914 8.27108 22.1891 8.27108 22.1891" fill="#FFD444"/>
<path d="M7.05084 28.4426C7.91293 25.8329 9.06175 22.8437 14.064 15.6339C10.5395 17.7914 8.27108 22.1891 8.27108 22.1891" stroke="#004C99" stroke-width="0.208584"/>
<path d="M16.0009 8.92497C18.5911 7.93261 21.6601 6.91933 30.4748 6.18258C26.5535 4.85178 21.6723 5.90009 21.6723 5.90009" fill="#FFD444"/>
<path d="M16.0009 8.92497C18.5911 7.93261 21.6601 6.91933 30.4748 6.18258C26.5535 4.85178 21.6723 5.90009 21.6723 5.90009" stroke="#004C99" stroke-width="0.208584"/>
<path d="M8.87743 40.9975C8.7098 38.2374 8.6666 35.0126 10.6186 26.3434C8.16611 29.7455 7.69678 34.7216 7.69678 34.7216" fill="#FFD444"/>
<path d="M8.87743 40.9975C8.7098 38.2374 8.6666 35.0126 10.6186 26.3434C8.16611 29.7455 7.69678 34.7216 7.69678 34.7216" stroke="#004C99" stroke-width="0.208584"/>
<path d="M15.4699 51.9943C14.252 49.5289 12.9693 46.5858 11.4198 37.8313C10.4799 41.9552 11.9671 46.7148 11.9671 46.7148" fill="#FFD444"/>
<path d="M15.4699 51.9943C14.252 49.5289 12.9693 46.5858 11.4198 37.8313C10.4799 41.9552 11.9671 46.7148 11.9671 46.7148" stroke="#004C99" stroke-width="0.208584"/>
<path d="M30.2636 59.1859C30.2636 59.1859 27.1182 57.5237 25.1167 56.268C22.8024 54.8161 20.2165 52.945 14.4128 46.2521C15.724 50.2833 19.4286 53.5821 19.4286 53.5821C19.5162 54.0915 25.2233 58.8215 30.2636 59.1859Z" fill="#FFD444" stroke="#004C99" stroke-width="0.208584"/>
<path d="M37.066 58.8969C37.066 58.8969 40.2112 57.2346 42.213 55.979C44.5274 54.5271 47.1131 52.656 52.9169 45.963C51.6056 49.9942 47.9012 53.293 47.9012 53.293C47.9012 53.293 40.7833 59.9272 37.066 58.8969Z" fill="#FFD444" stroke="#004C99" stroke-width="0.208584"/>
<path d="M8.95178 19.8194C13.6577 11.1997 17.9243 8.80564 20.3425 7.32535C24.5618 4.74351 29.7544 2.14671 34.3137 1.82629C34.3137 1.82629 25.5362 1.82629 21.2335 4.20728C12.5987 8.98558 11.7425 12.8081 8.95178 19.8194Z" fill="#FFD444" stroke="#004C99" stroke-width="0.208584"/>
<path d="M6.93165 30.8047C7.92178 20.2807 10.8615 15.7822 12.4818 13.1179C15.3081 8.46949 18.7967 3.72521 22.7817 1C22.7817 1 16.923 3.8116 13.2131 8.01762C6.1002 16.0813 6.80274 22.7966 6.93165 30.8047Z" fill="#FFD444" stroke="#004C99" stroke-width="0.208584"/>
<path d="M10.5596 44.4992C6.35056 33.4776 7.00629 27.1624 7.27633 23.4989C7.74756 17.1079 9.52164 10.1511 12.0685 4.91992C12.0685 4.91992 7.73947 11.0317 6.18895 17.549C3.21648 30.0455 6.49651 36.675 10.5596 44.4992Z" fill="#FFD444" stroke="#004C99" stroke-width="0.208584"/>
<path d="M17.474 52.8634C10.0077 45.2353 7.70952 38.7235 6.69804 35.3544C4.93325 29.4774 3.89768 21.9712 4.35686 16.0822C2.93164 26.242 2.94231 26.0714 3.54245 30.6412C5.1866 43.1567 11.2264 47.9852 17.474 52.8634Z" fill="#FFD444" stroke="#004C99" stroke-width="0.208584"/>
<path d="M34.4264 59.9556C22.5398 57.5319 17.4366 52.2427 14.4154 49.3154C9.14465 44.2079 4.1093 37.0447 1.00018 30.1167C1.00018 30.1167 3.91396 39.4772 8.6927 46.0457C17.8559 58.6401 25.3887 59.6016 34.4264 59.9556Z" fill="#FFD444" stroke="#004C99" stroke-width="0.208584"/>
<path d="M59.4496 30.6349C59.11 29.1929 58.194 24.0598 53.2208 15.3572C56.5427 17.8089 58.4157 22.3848 58.4157 22.3848" fill="#FFD444"/>
<path d="M59.4496 30.6349C59.11 29.1929 58.194 24.0598 53.2208 15.3572C56.5427 17.8089 58.4157 22.3848 58.4157 22.3848" stroke="#004C99" stroke-width="0.208584"/>
<path d="M52.1713 10.5874C49.5809 9.59508 46.5119 8.5818 37.697 7.84506C41.6185 6.51425 46.4996 7.56257 46.4996 7.56257" fill="#FFD444"/>
<path d="M52.1713 10.5874C49.5809 9.59508 46.5119 8.5818 37.697 7.84506C41.6185 6.51425 46.4996 7.56257 46.4996 7.56257" stroke="#004C99" stroke-width="0.208584"/>
<path d="M56.6988 43.2412C57.2376 40.2046 57.6779 36.6743 56.2964 27.4265C58.9301 30.8584 58.9153 36.2428 58.9153 36.2428" fill="#FFD444"/>
<path d="M56.6988 43.2412C57.2376 40.2046 57.6779 36.6743 56.2964 27.4265C58.9301 30.8584 58.9153 36.2428 58.9153 36.2428" stroke="#004C99" stroke-width="0.208584"/>
<path d="M57.6103 19.8194C52.9042 11.1997 48.6375 8.80562 46.2192 7.32533C42.0002 4.74349 38.8726 3.67732 34.3137 3.35691C34.3137 3.35691 39.7896 2.46183 44.6399 4.20726C53.9389 7.55391 54.8198 12.8081 57.6103 19.8194Z" fill="#FFD444" stroke="#004C99" stroke-width="0.208584"/>
<path d="M59.6311 30.8047C58.6411 20.2808 55.7011 15.7822 54.0813 13.1179C51.2549 8.46956 47.1963 3.8695 43.2113 1.14429C43.2113 1.14429 49.6399 3.81167 53.3498 8.01768C60.4623 16.0814 59.7598 22.7966 59.6311 30.8047Z" fill="#FFD444" stroke="#004C99" stroke-width="0.208584"/>
<path d="M56.0026 44.4991C60.2115 33.4775 59.556 27.1622 59.2858 23.4989C58.8145 17.1078 57.0406 10.1511 54.4936 4.91992C54.4936 4.91992 58.8228 11.0317 60.3731 17.549C63.3458 30.0453 60.0659 36.6748 56.0026 44.4991Z" fill="#FFD444" stroke="#004C99" stroke-width="0.208584"/>
<path d="M49.0887 52.8638C56.5553 45.2356 58.8531 38.7238 59.8646 35.3547C61.6297 29.4778 62.6649 21.9715 62.2059 16.0825C63.6311 26.2424 63.6205 26.0718 63.0203 30.6416C61.3762 43.157 55.3364 47.9855 49.0887 52.8638Z" fill="#FFD444" stroke="#004C99" stroke-width="0.208584"/>
<path d="M32.1368 59.9557C44.0233 57.532 49.1266 52.2428 52.1476 49.3156C57.4184 44.208 62.4536 37.0448 65.5629 30.1168C65.5629 30.1168 62.6491 39.4773 57.8702 46.0458C48.7075 58.6402 41.1746 59.6018 32.1368 59.9557Z" fill="#FFD444" stroke="#004C99" stroke-width="0.208584"/>
<path d="M37.518 59.6764C26.188 60.346 20.8158 56.5388 17.6793 54.5857C12.2077 51.1795 7.69417 46.2335 3.10028 40.4163C3.10028 40.4163 4.60915 46.2476 9.99301 50.89C19.8567 59.3951 29.0692 61.5533 37.518 59.6764Z" fill="#FFD444" stroke="#004C99" stroke-width="0.208584"/>
<path d="M28.2042 60.1602C39.5344 60.8297 45.1443 56.6236 48.2806 54.6706C53.7524 51.2645 58.2659 46.3185 62.8596 40.5012C62.8596 40.5012 61.3002 46.2756 55.9669 50.975C45.1566 60.5003 35.7768 61.8609 28.2042 60.1602Z" fill="#FFD444" stroke="#004C99" stroke-width="0.208584"/>
<path d="M4.01943 23.2562C3.16715 33.9227 8.55084 42.9533 7.85484 41.764" stroke="#004C99" stroke-width="0.104292"/>
<path d="M6.32098 40.7535C7.08807 42.017 12.9051 52.2501 24.9227 58.2509" stroke="#004C99" stroke-width="0.104292"/>
<path d="M6.83203 46.2491C7.79084 47.4493 17.3793 58.7561 29.8445 59.83" stroke="#004C99" stroke-width="0.104292"/>
<path d="M11.5632 40.6271C11.4992 41.6376 12.6499 47.07 12.6499 47.07" stroke="#004C99" stroke-width="0.104292"/>
<path d="M17.3162 50.2288C17.8275 50.9235 22.3021 55.7875 23.8363 56.419" stroke="#004C99" stroke-width="0.104292"/>
<path d="M8.68595 32.0996C8.36635 33.1734 8.17462 36.3318 8.17462 36.3318" stroke="#004C99" stroke-width="0.104292"/>
<path d="M7.9834 24.0774C8.68663 22.9403 9.77332 20.856 9.77332 20.856" stroke="#004C99" stroke-width="0.104292"/>
<path d="M6.00159 32.6682C5.93757 29.6993 5.80969 21.1087 7.40788 15.7394" stroke="#004C99" stroke-width="0.104292"/>
<path d="M7.91907 18.9609C8.87788 16.6869 10.3482 11.7598 15.7816 6.83289" stroke="#004C99" stroke-width="0.104292"/>
<path d="M14.3115 10.3069C15.526 9.29629 18.7222 6.70629 20.9595 5.5061" stroke="#004C99" stroke-width="0.104292"/>
<path d="M43.0774 4.8114C44.4839 5.44304 48.8306 6.89578 51.4515 9.23306" stroke="#004C99" stroke-width="0.104292"/>
<path d="M52.8568 9.0437C53.9435 10.4964 58.5462 17.3817 59.3133 22.7509" stroke="#004C99" stroke-width="0.104292"/>
<path d="M59.3137 16.8135C59.953 19.3402 61.4872 30.5839 60.2084 34.1845" stroke="#004C99" stroke-width="0.104292"/>
<path d="M57.9712 33.4894C57.9712 33.4894 58.2269 35.7634 58.0354 37.4689" stroke="#004C99" stroke-width="0.104292"/>
<path d="M59.3137 40.8169C60.1446 38.4798 62.1262 30.8996 62.1901 29.9521" stroke="#004C99" stroke-width="0.104292"/>
<path d="M58.2905 43.7228C57.3315 45.3651 50.0442 54.0821 42.7571 57.8721" stroke="#004C99" stroke-width="0.104292"/>
<path d="M37.9631 59.8935C39.8168 59.3881 49.3413 56.7351 55.9896 49.5973" stroke="#004C99" stroke-width="0.104292"/>
<path d="M45.314 54.7769C46.1449 54.0821 48.8298 51.3658 49.2132 50.8605" stroke="#004C99" stroke-width="0.104292"/>
</svg>
