<svg width="60" height="60" viewBox="0 0 60 60" fill="none" xmlns="http://www.w3.org/2000/svg">
<path d="M8.14021 0.898071C4.04099 0.898071 0.717651 4.22141 0.717651 8.32063V47.8249L8.45348 40.0891C8.83656 39.7064 9.4624 39.7064 9.84512 40.0891C10.2279 40.4718 10.2279 41.098 9.84512 41.4808L0.717651 50.6082V52.2739C0.717651 53.4558 1.00105 54.5692 1.49248 55.5611L9.56867 47.4853C9.9514 47.1026 10.5779 47.1026 10.9603 47.4853C11.343 47.8677 11.343 48.4942 10.9603 48.8766L2.6167 57.2202C3.58533 58.3006 4.86271 59.0928 6.3134 59.4603L16.968 48.8054C17.351 48.423 17.9772 48.423 18.36 48.8054C18.7423 49.1885 18.7423 49.8143 18.36 50.197L8.86052 59.6964H41.1781C51.3058 59.6964 59.5161 51.4866 59.5161 41.3582C59.5161 37.2034 58.1335 33.3723 55.8048 30.2973C58.1335 27.2222 59.5161 23.3911 59.5161 19.2364C59.5161 9.10831 51.3058 0.898071 41.1781 0.898071H8.14021ZM19.4526 46.5618L12.3436 39.4497C10.4255 37.5305 10.4265 34.4204 12.345 32.5026L30.8243 14.0313C32.7428 12.1135 35.8533 12.1142 37.7714 14.0331L44.88 21.1448C46.7982 23.064 46.7975 26.1741 44.879 28.0919L26.3997 46.5632C25.4404 47.5217 24.1832 48.001 22.9266 48.001C21.6691 48.0014 20.4118 47.5214 19.4526 46.5618Z" fill="#3C9DFF"/>
</svg>
