<svg width="58" height="64" viewBox="0 0 58 64" fill="none" xmlns="http://www.w3.org/2000/svg">
<path opacity="0.7" d="M57.0446 11.9461L56.6752 12.4654C56.8969 10.9815 56.6014 8.90389 56.232 7.71671C55.7148 9.64588 54.7544 11.3525 53.4246 12.9848L53.3507 12.0203C51.7993 14.4688 49.8785 16.4722 47.736 17.4368C47.736 17.0658 47.6621 16.6206 47.5144 16.3238C44.707 20.0338 37.9102 19.1434 38.649 26.6375C40.2005 26.4149 40.9392 27.9731 39.6094 29.457C39.0184 29.457 38.4274 29.2344 37.9102 28.9377L38.2058 28.4925L37.0237 27.8989C37.3192 27.8247 37.6147 27.6763 37.9102 27.5279C36.1372 26.6375 36.7282 24.9309 34.6596 24.0405C34.2902 23.6695 33.9947 23.1501 33.7731 22.6307C33.6992 22.2597 33.6253 21.8145 33.5514 21.3693C33.5514 20.479 33.5514 19.9596 33.7731 19.5886L33.9208 19.8112C34.438 18.624 35.1029 17.7336 35.9894 17.2142C38.4274 17.2884 39.8311 17.14 40.2743 15.656C40.1266 15.7302 40.0527 15.7302 39.9788 15.7302C39.9049 15.5818 39.8311 15.5076 39.7572 15.4334C40.3482 15.2108 41.2347 15.5818 41.4564 15.5818C41.3825 14.8398 41.087 14.6172 40.9392 14.3204L41.7519 13.7268C43.8205 14.3946 45.5935 12.8364 46.8495 13.5042L47.2927 11.9461C45.4458 11.0557 44.3376 12.2429 42.7862 12.2429C43.2295 11.2783 43.3033 10.3879 42.9339 9.49749L41.3086 8.97809C39.3139 9.57168 39.3878 11.4267 40.1266 12.688C39.6833 13.1332 39.24 13.3558 38.9445 13.5042L38.4274 13.5784C38.4274 13.5784 38.3535 12.9106 37.467 12.688V12.2429C38.5751 11.3525 38.649 10.4621 38.4274 9.94268C38.2058 9.42329 37.6147 9.12649 37.0976 9.27489L36.3588 9.49749L36.2849 9.34909C36.3588 9.27489 36.3588 9.20069 36.3588 9.12649C36.3588 8.97809 36.2849 8.82969 36.211 8.75549H36.2849L36.211 8.4587L36.5066 8.5329V7.49411L36.211 7.56831L36.2849 7.27151H35.2506L35.3245 7.56831L35.029 7.49411V8.5329L35.3245 8.4587L35.029 8.82969H35.1768C35.1029 8.90389 35.029 9.05229 35.029 9.20069C35.029 9.27489 35.029 9.42329 35.1029 9.49749L35.029 9.64588L34.2902 9.42329C33.7731 9.27489 33.1821 9.49749 32.9604 10.0911C32.7388 10.6105 32.8127 11.4267 33.9208 12.3912V12.9848C33.6253 12.9848 33.3298 12.9848 33.1082 12.9848C32.2216 12.4654 31.4829 11.5751 31.2612 10.4621C31.8523 10.3879 32.2955 10.1653 32.6649 9.79428V8.2361C35.029 6.45532 35.6939 4.08095 33.6253 3.04216C32.4433 2.44857 30.9657 2.96796 30.2269 3.56156C30.0792 3.33896 29.8575 3.11636 29.6359 3.04216C29.6359 2.81957 29.562 2.59697 29.3404 2.37437H29.4882L29.3404 1.85498L29.8575 2.00338V0.370996L29.3404 0.519394L29.4882 0H27.8628L28.0106 0.519394L27.4935 0.370996V2.00338L28.0106 1.85498L27.8628 2.37437H28.0106C27.8628 2.52277 27.7151 2.74537 27.7151 3.04216V3.11636C27.5673 3.19056 27.3457 3.41316 27.1979 3.56156C26.4592 2.96796 24.9816 2.44857 23.8734 3.04216C21.8049 4.08095 22.4698 6.45532 24.8338 8.2361V9.79428C25.2032 10.1653 25.7204 10.3879 26.2375 10.4621C26.0159 11.5009 25.2771 12.3913 24.3906 12.9848C24.1689 12.9848 23.8734 12.9848 23.5779 12.9848V12.3171C24.6861 11.4267 24.76 10.5363 24.5383 10.0169C24.3167 9.49749 23.7257 9.20069 23.2085 9.34909L22.4698 9.57168L22.3959 9.42329C22.4698 9.34909 22.4698 9.27489 22.4698 9.20069C22.4698 9.05229 22.3959 8.90389 22.322 8.82969H22.3959L22.322 8.5329L22.6175 8.6071V7.56831L22.322 7.64251L22.3959 7.34571H21.3616L21.4355 7.64251L21.1399 7.56831V8.6071L21.4355 8.5329V8.82969H21.5832C21.5093 8.90389 21.4355 9.05229 21.4355 9.20069C21.4355 9.27489 21.4355 9.42329 21.5093 9.49749L21.4355 9.64588L20.6967 9.42329C20.1795 9.27489 19.5885 9.49749 19.3669 10.0911C19.1452 10.6105 19.2191 11.4267 20.3273 12.3912V12.8364C19.4408 13.059 19.3669 13.801 19.3669 13.801H18.9975C18.702 13.6526 18.0371 13.2074 17.5938 12.7622C18.3326 11.4267 18.3326 9.79428 16.4118 9.20069L14.7126 9.57168C14.3432 10.4621 14.4171 11.2783 14.8603 12.2429C13.3089 12.2429 12.2007 11.0557 10.3538 11.9461L10.797 13.5042C12.053 12.8364 13.826 14.3946 15.8946 13.7268L16.7073 14.3204C16.4118 14.6914 16.1162 15.0624 16.0424 15.7302C16.5595 15.4334 17.0767 15.3592 17.8893 15.5076C17.5938 15.5076 17.5199 15.656 17.5199 15.7302C17.5938 15.8044 17.6677 15.8044 17.6677 15.8044C17.5938 15.8044 17.3722 15.7302 17.1505 15.7302C17.5938 17.14 19.0714 17.2884 21.5093 17.2142C22.3959 17.6594 22.9869 18.5498 23.5779 19.8112L23.7257 19.5886C23.8734 20.0338 23.9473 20.479 23.9473 21.3693C23.9473 21.8887 23.8734 22.2597 23.7257 22.6307C23.4302 23.1501 23.1347 23.6695 22.8391 24.0405C20.7706 24.9309 21.3616 26.6375 19.5885 27.4537C19.884 27.6763 20.1057 27.8247 20.475 27.8247L19.293 28.4183L19.5885 28.8635C19.0714 29.1602 18.5542 29.3828 17.8893 29.3828C16.4856 27.8989 17.2244 26.4149 18.8497 26.5633C19.5885 19.0692 12.7917 20.0338 9.98438 16.2496C9.9105 16.5464 9.83662 16.9916 9.76275 17.3626C7.62029 16.398 5.69946 14.3946 4.14802 11.9461L4.07414 12.9106C2.81822 11.2783 1.85781 9.49749 1.26678 7.64251C0.897393 8.82969 0.601881 10.9073 0.823515 12.3912L0.454125 11.8719C-0.284654 14.6914 -0.210776 16.5464 1.34066 18.995C1.56229 20.5532 2.2272 22.1113 2.96598 23.2985C2.52271 23.2243 2.2272 23.1501 1.78393 23.1501C2.59659 24.7083 3.557 26.1923 4.44353 27.1569L3.18761 27.5279C4.29578 29.2344 5.5517 30.3474 7.02926 31.312C6.36436 31.4604 6.06885 31.683 5.5517 32.054C6.51212 33.0928 7.32477 33.6122 8.65458 33.9832C7.62029 34.3542 7.17702 34.7994 6.88151 35.6156C8.21131 36.0608 9.68887 36.3576 11.1664 36.2834C10.2799 36.8028 9.46723 37.3963 9.02397 38.2125L8.72845 38.0641C8.5807 37.9899 8.50682 37.9899 8.35907 37.9899C8.06355 37.9899 7.69416 38.2125 7.62029 38.5093C7.62029 38.5835 7.54641 38.6577 7.54641 38.6577V38.8061C7.47253 38.8803 7.32477 38.9545 7.2509 39.0287L6.88151 38.8803C6.73375 38.8061 6.58599 38.8061 6.43824 38.8061C6.06885 38.8061 5.69946 39.0287 5.5517 39.3997C5.33007 39.9191 5.5517 40.4385 5.99497 40.7353L6.29048 40.8837H6.36436C6.36436 41.0321 6.36436 41.1063 6.36436 41.2547L6.29048 41.4031C6.29048 41.4773 6.2166 41.4773 6.2166 41.5515C6.14273 41.7741 6.14273 41.9967 6.2166 42.2193C6.29048 42.4419 6.43824 42.5903 6.65987 42.7387L7.2509 43.0355L7.10314 42.9613L7.39865 43.1097L8.43294 43.6291L8.50682 43.7033C7.76804 44.5937 6.88151 45.1131 5.84722 45.1131C5.69946 45.1131 5.5517 45.1131 5.33007 45.1131L5.10844 44.9647H5.03456C4.59129 44.8905 4.14802 44.7421 3.70476 44.5195L3.18761 44.2227L3.33537 44.8163C3.63088 46.226 4.8868 47.6358 6.80763 48.8972C8.65458 50.0102 10.6493 50.678 12.3485 50.678C13.235 50.678 13.9738 50.4554 14.4909 50.0844L15.0081 49.7134L14.4171 49.565C13.9738 49.4166 13.5305 49.194 13.235 48.9714L12.9395 48.8972L12.7179 48.6746C11.6836 47.71 11.6836 46.3002 11.9791 45.2615H12.053L13.0873 45.7808L13.3828 45.9292L13.4566 45.7808L15.5991 46.8196C15.5252 50.1586 14.4909 52.2362 12.5701 54.3879H12.4962C12.2007 54.4621 11.9791 54.7589 11.9052 55.0557C11.8313 55.1299 11.7575 55.2041 11.6836 55.2783C11.6836 55.2783 11.6836 55.2783 11.6097 55.2783C11.4619 55.0557 11.2403 54.9073 10.9448 54.9073C10.8709 54.9073 10.797 54.9073 10.7232 54.9815L10.3538 55.1299C10.1321 55.2041 9.98438 55.3525 9.9105 55.5009C9.83662 55.6493 9.83662 55.7977 9.83662 56.0203C9.76275 56.0203 9.61499 56.0945 9.54111 56.0945C9.39336 55.7977 9.09784 55.5751 8.80233 55.5751C8.72845 55.5751 8.65458 55.5751 8.50682 55.6493L8.28519 55.7235C7.84192 55.8719 7.62029 56.2429 7.76804 56.6881C6.80763 56.9849 5.84722 57.3559 4.96068 57.5785C5.10844 59.8787 5.84722 61.8079 7.32477 63.5886C9.61499 62.4757 11.8313 61.3627 13.9738 60.3239C14.0477 60.3981 14.1954 60.4723 14.3432 60.4723C14.4171 60.4723 14.4909 60.4723 14.5648 60.3981L14.8603 60.3239C15.2297 60.1755 15.673 59.8045 15.8946 59.4335C18.9975 57.9495 21.8787 56.6139 24.3906 55.5009C24.4645 56.3913 24.5383 57.2075 24.8338 57.8011C25.4249 57.5785 25.942 57.4301 26.4592 56.9849C26.4592 57.2817 26.6069 57.5785 26.6808 57.9495L25.5726 59.1367L26.3114 59.8787L27.4196 58.8399C27.5673 59.6561 28.4539 60.8433 28.971 61.1401C29.3404 60.8433 30.3008 59.5819 30.5224 58.8399L31.6306 59.8787L32.3694 59.1367L31.2612 57.9495C31.409 57.6527 31.4829 57.3559 31.4829 56.9849C32 57.3559 32.5172 57.5785 33.1082 57.8011C33.3298 57.2075 33.4776 56.4655 33.5514 55.5009L33.847 55.6493L33.9947 55.5009L39.3139 58.0979L39.7572 58.3205L39.9049 58.5431L39.9788 58.6173H40.0527L40.7915 58.9883L41.0131 59.0625C41.2347 59.4335 41.8258 60.3981 42.8601 60.3239C43.0817 60.3239 43.2295 60.2497 43.3772 60.1755L44.116 60.5465L44.4115 60.6949L44.4854 60.5465L47.2189 61.8079L47.145 61.9563L47.4405 62.1047L48.4748 62.624L48.7703 62.7724L48.8442 62.624L49.6568 62.995C49.4352 62.995 49.583 62.995 49.6568 62.995C49.9523 62.995 50.3217 62.7724 50.3956 62.4757C50.3956 62.4015 50.4695 62.3272 50.4695 62.3272V62.1789C50.5434 62.1047 50.6911 62.1046 50.765 61.9563H50.8389L51.2822 62.1789C51.4299 62.2531 51.5777 62.253 51.7254 62.253C52.0948 62.253 52.4642 62.0304 52.612 61.6595C52.8336 61.1401 52.6119 60.6207 52.1687 60.3239L51.7993 60.1013C51.7993 59.9529 51.7993 59.8787 51.7993 59.7303L51.8732 59.6561C51.9471 59.5819 51.9471 59.5819 51.9471 59.5077C52.0209 59.2851 52.0209 59.0625 51.9471 58.8399C51.8732 58.6173 51.6515 58.6173 51.5038 58.5431L50.6172 58.0979L50.6911 57.9495L50.3956 57.8011L49.3613 57.2817L49.0658 57.1333L49.1397 56.9849C49.2874 56.6139 48.9919 56.1687 48.7703 56.0945L48.4009 55.9461C48.0315 55.7977 47.5883 55.9461 47.4405 56.3171L47.3666 56.4655L47.0711 56.3171L47.145 56.0945C47.2927 55.7235 47.145 55.2783 46.7017 55.0557L46.3323 54.9073C46.1107 54.8331 45.8152 54.9073 45.6674 54.9815C43.4511 52.6072 42.269 50.6038 42.1213 48.0068C45.5935 46.6712 49.5091 45.2615 53.6462 43.9259C53.203 41.7741 52.3903 39.7707 51.2822 37.9157L50.2479 38.5093L49.3613 36.8028C48.9181 37.0996 48.4748 37.3222 47.9576 37.6189C47.5144 37.1738 46.9234 36.7286 46.3323 36.4318C47.8099 36.506 49.3613 36.2092 50.6172 35.764C50.2479 35.022 49.8046 34.5026 48.8442 34.1316C50.174 33.7606 51.0605 33.2412 51.9471 32.2024C51.4299 31.8314 51.1344 31.6088 50.4695 31.4604C51.9471 30.4958 53.1291 29.3828 54.3111 27.6763L53.0552 27.3053C53.9418 26.3407 54.9022 24.8567 55.7148 23.2985C55.2716 23.2985 54.976 23.2985 54.5328 23.4469C55.3454 22.3339 55.9365 20.7016 56.1581 19.1434C57.7095 16.5464 57.7834 14.7656 57.0446 11.9461ZM35.5461 44.4453C35.4723 44.5195 35.3245 44.5195 35.2506 44.5937L35.3245 44.0743L35.5461 44.4453ZM28.2322 10.7589H28.7494H29.2665C29.7098 12.4654 30.7441 13.6526 32.2216 14.6172C32.2216 14.6172 31.2612 16.027 29.562 16.6206C29.7098 16.8432 29.7837 16.8432 30.0053 16.9916C29.4143 17.511 28.7494 18.7724 28.7494 18.7724C28.7494 18.7724 28.0845 17.511 27.4935 16.9916C27.6412 16.8432 27.789 16.8432 27.9367 16.6206C26.2375 16.027 25.2771 14.6172 25.2771 14.6172C26.7547 13.6526 27.8628 12.4654 28.2322 10.7589ZM22.2481 44.5195L21.9526 44.4453L22.1742 44.0743L22.2481 44.5195ZM10.9448 39.0287C11.5358 38.9545 12.1268 38.8803 12.644 38.7319C12.3485 38.9545 12.053 39.3255 11.9052 39.6223L10.8709 39.1771L10.9448 39.0287ZM16.6334 53.4234C17.6677 52.2362 18.6281 50.9748 19.2191 48.6004L21.9526 49.8618L22.3959 50.0844L22.5436 50.307L22.6175 50.3812H22.6914L23.0608 50.6038L20.475 51.8652C19.2191 52.3104 17.8154 52.904 16.6334 53.4234ZM40.9392 53.4976L37.7625 52.0136L37.3192 51.791L37.1715 51.5684L37.0976 51.4942H37.0237L35.4723 50.7522C36.3588 50.3812 37.3931 50.0102 38.4274 49.565C39.0184 51.049 39.8311 52.3846 40.9392 53.4976ZM45.2242 39.1029C45.0764 38.9545 44.9286 38.8061 44.7809 38.6577C45.0025 38.7319 45.298 38.8061 45.5935 38.8803C45.4458 38.9545 45.3719 39.0287 45.2242 39.1029Z" fill="#231F20"/>
<path d="M19.4417 14.024C18.7768 13.9498 18.0381 13.9498 17.5948 14.0982C17.0038 14.2466 16.5605 14.5434 16.3389 15.2853C18.1858 14.7659 18.3336 15.8047 20.0328 16.1757C19.5156 16.3983 18.1858 16.3983 17.447 15.9531C17.9642 16.7693 18.6291 16.9919 21.0671 16.9177C20.2544 16.2499 20.6977 14.7659 19.4417 14.024Z" fill="#FCD015"/>
<path d="M17.8167 15.7307C18.2599 15.8049 18.186 16.1017 18.9248 16.1017C18.7771 15.9533 18.1122 15.4339 17.8167 15.7307Z" fill="#FCD015"/>
<path d="M37.9113 14.024C38.5762 13.9498 39.315 13.9498 39.7583 14.0982C40.3493 14.2466 40.7926 14.5434 41.0142 15.2853C39.1672 14.7659 39.0195 15.8047 37.3203 16.1757C37.8374 16.3983 39.1672 16.3983 39.906 15.9531C39.3889 16.7693 38.724 16.9919 36.286 16.9177C37.0987 16.2499 36.7293 14.7659 37.9113 14.024Z" fill="#FCD015"/>
<path d="M39.6109 15.7307C39.1676 15.8049 39.2415 16.1017 38.5027 16.1017C38.6504 15.9533 39.3153 15.4339 39.6109 15.7307Z" fill="#FCD015"/>
<path d="M28.6761 48.5262L30.7447 52.7556L28.9716 53.4976L26.9769 49.194L28.6761 48.5262Z" fill="#221F1F"/>
<path d="M26.7559 58.2465L25.8694 59.1369L26.1649 59.4336L26.9776 58.6175C26.9776 58.4691 26.8298 58.3207 26.7559 58.2465Z" fill="#221F1F"/>
<path d="M30.8193 58.2465C30.7454 58.3949 30.6716 58.4691 30.5238 58.5433L31.3365 59.3594L31.632 59.0626L30.8193 58.2465Z" fill="#221F1F"/>
<path d="M20.4014 12.3171V12.7623C21.5095 12.6881 22.3961 12.8365 23.4304 12.9107V12.3171C22.4699 12.1687 21.4357 12.1687 20.4014 12.3171Z" fill="#FFC112"/>
<path d="M20.5491 9.86859L20.2536 9.646C20.0319 9.646 19.8103 9.79439 19.6625 10.017C18.9976 10.8332 19.8842 11.7236 20.3274 12.0946H20.4752C20.6968 12.0946 20.9924 12.0204 21.214 12.0204C21.214 11.13 21.0662 10.3138 20.5491 9.86859Z" fill="#FFC112"/>
<path d="M23.5785 9.646L23.2829 9.86859C22.7658 10.3138 22.6919 11.13 22.618 12.0204C22.8397 12.0204 23.1352 12.0946 23.3568 12.0946H23.5046C23.9478 11.7236 24.8344 10.8332 24.1695 10.017C24.0217 9.7202 23.8001 9.646 23.5785 9.646Z" fill="#FFC112"/>
<path d="M21.9531 9.49765C22.1163 9.49765 22.2486 9.36477 22.2486 9.20085C22.2486 9.03693 22.1163 8.90405 21.9531 8.90405C21.7899 8.90405 21.6576 9.03693 21.6576 9.20085C21.6576 9.36477 21.7899 9.49765 21.9531 9.49765Z" fill="#FFC112"/>
<path d="M21.4361 11.946C21.5839 11.946 21.7316 11.946 21.9533 11.946C22.101 11.946 22.2488 11.946 22.4704 11.946C22.4704 10.9815 22.6182 10.0911 23.2092 9.64587L22.4704 9.86847L22.3227 9.64587C22.2488 9.72007 22.101 9.72007 22.0271 9.72007C21.8794 9.72007 21.8055 9.64587 21.7316 9.64587L21.5839 9.86847L20.8451 9.64587C21.2884 10.1653 21.4361 11.0557 21.4361 11.946Z" fill="#FFC112"/>
<path d="M21.6575 8.60729H22.1747L22.1008 8.31049L22.4702 8.38469V7.8653L22.1008 7.9395L22.1747 7.6427H21.6575L21.8053 7.9395L21.4359 7.8653V8.38469L21.8053 8.31049L21.6575 8.60729Z" fill="#FFC112"/>
<path d="M36.5069 12.2431H36.4331C35.842 12.169 35.251 12.169 34.5861 12.2431H34.5122C34.3645 12.2431 34.2167 12.2431 34.069 12.3173V12.9109C35.0294 12.9109 35.9159 12.6883 37.0241 12.7625V12.3173C36.8025 12.2431 36.6547 12.2431 36.5069 12.2431Z" fill="#FFC112"/>
<path d="M37.763 9.94289C37.6152 9.7203 37.3936 9.6461 37.172 9.5719L36.8765 9.8687C36.3593 10.3139 36.2854 11.1301 36.2115 12.0205C36.4332 12.0205 36.7287 12.0947 36.9503 12.0947H37.0981C37.5414 11.7237 38.4279 10.8333 37.763 9.94289Z" fill="#FFC112"/>
<path d="M34.1433 9.86871L33.8478 9.64612C33.6262 9.64612 33.4046 9.72032 33.1829 10.0171C32.518 10.8333 33.4046 11.7237 33.8478 12.0947H33.9956C34.2172 12.0947 34.5127 12.0205 34.7344 12.0205C34.7344 11.1301 34.6605 10.3139 34.1433 9.86871Z" fill="#FFC112"/>
<path d="M35.4729 9.49752C35.6361 9.49752 35.7684 9.36464 35.7684 9.20073C35.7684 9.03681 35.6361 8.90393 35.4729 8.90393C35.3097 8.90393 35.1774 9.03681 35.1774 9.20073C35.1774 9.36464 35.3097 9.49752 35.4729 9.49752Z" fill="#FFC112"/>
<path d="M35.0293 9.94281L34.2905 9.72021C34.8816 10.1654 35.0293 11.0558 35.0293 12.0204C35.1771 12.0204 35.3248 12.0204 35.5465 12.0204C35.6942 12.0204 35.842 12.0204 36.0636 12.0204C36.0636 11.0558 36.2114 10.1654 36.8024 9.72021L36.0636 9.94281L35.9158 9.72021C35.842 9.79441 35.6942 9.79441 35.6203 9.79441C35.4726 9.79441 35.3987 9.72021 35.3248 9.72021L35.0293 9.94281Z" fill="#FFC112"/>
<path d="M35.2511 8.60717H35.7682L35.6205 8.31037L35.9899 8.38457V7.86518L35.6205 7.93937L35.7682 7.64258H35.2511L35.325 7.93937L34.9556 7.86518V8.38457L35.325 8.31037L35.2511 8.60717Z" fill="#FFC112"/>
<path d="M24.4648 4.82336V5.26856L24.8342 5.41696V5.04596L24.4648 4.82336Z" fill="#FFC112"/>
<path d="M28.6758 7.27173C26.6811 7.27173 25.0558 7.79112 25.0558 8.38472V9.3493C25.6468 8.75571 27.1982 8.53311 28.6758 8.53311C30.1534 8.53311 31.6309 8.82991 32.2958 9.3493V8.38472C32.2958 7.79112 30.6705 7.27173 28.6758 7.27173Z" fill="#FFC112"/>
<path d="M30.5232 5.26834C30.8187 4.00696 31.853 3.33916 32.8873 3.11657C31.7791 2.89397 30.5232 3.41336 30.0799 4.15535C29.8583 4.52635 29.7105 4.97155 29.5627 5.34254C29.8583 5.19414 30.2276 5.19414 30.5232 5.26834Z" fill="#FFC112"/>
<path d="M26.8292 5.26834C27.1986 5.19414 27.4941 5.19414 27.7896 5.34254C27.6418 4.89734 27.4941 4.45215 27.2724 4.08115C26.8292 3.41336 25.5733 2.81977 24.4651 3.04236C25.4994 3.33916 26.5337 4.00695 26.8292 5.26834Z" fill="#FFC112"/>
<path d="M25.2029 9.64608C25.4245 9.86868 25.7939 10.0913 26.311 10.2397C26.3849 9.86868 26.3849 9.49768 26.4588 9.05249C25.8678 9.20089 25.4245 9.42349 25.2029 9.64608Z" fill="#FFC112"/>
<path d="M28.8979 8.75562C28.8241 8.75562 28.7502 8.75562 28.6763 8.75562C28.6024 8.75562 28.5285 8.75562 28.4547 8.75562C28.4547 9.34921 28.3808 9.9428 28.233 10.4622C28.3808 10.4622 28.5285 10.4622 28.6763 10.4622C28.8241 10.4622 28.9718 10.4622 29.1196 10.4622C29.0457 9.9428 28.9718 9.42341 28.8979 8.75562Z" fill="#FFC112"/>
<path d="M30.9661 9.05225C30.9661 9.49744 31.0399 9.86844 31.1138 10.2394C31.631 10.091 32.0004 9.86844 32.222 9.64584C32.0004 9.42324 31.5571 9.20064 30.9661 9.05225Z" fill="#FFC112"/>
<path d="M28.6758 3.71022C29.043 3.71022 29.3407 3.41124 29.3407 3.04243C29.3407 2.67361 29.043 2.37463 28.6758 2.37463C28.3086 2.37463 28.0109 2.67361 28.0109 3.04243C28.0109 3.41124 28.3086 3.71022 28.6758 3.71022Z" fill="#FFC112"/>
<path d="M28.2328 2.07755H29.0455L28.8238 1.40976L29.4887 1.63236V0.816166L28.8238 1.03876L29.0455 0.370972H28.2328L28.5283 1.03876L27.7896 0.816166V1.63236L28.5283 1.40976L28.2328 2.07755Z" fill="#FFC112"/>
<path d="M32.5917 5.41708L32.9611 5.26868V4.82349L32.6656 5.04608L32.5917 5.41708Z" fill="#FFC112"/>
<path d="M34.1432 3.93258C33.9955 3.63579 33.7738 3.48739 33.4783 3.33899C32.3702 3.41319 31.1142 4.00678 30.8187 5.49076V5.63916L30.671 5.56496C30.2277 5.41656 29.8583 5.49076 29.4889 5.71336C29.4151 6.01016 29.3412 6.23275 29.3412 6.38115C29.2673 6.67795 28.9718 6.82635 28.7501 6.82635C28.5285 6.82635 28.233 6.60375 28.1591 6.38115C28.1591 6.30695 28.0852 6.08436 28.0114 5.78756C27.7159 5.56496 27.2726 5.56496 26.8293 5.63916L26.6816 5.71336V5.56496C26.3861 4.08098 25.204 3.48739 24.022 3.41319C23.8003 3.56159 23.5787 3.78418 23.3571 4.00678C22.3228 5.56496 24.3175 7.41994 25.0563 8.01353C25.5734 7.34574 27.1987 7.04894 28.7501 7.04894C30.3755 7.04894 32.0008 7.41994 32.444 8.01353C33.1089 7.34574 35.1037 5.49076 34.1432 3.93258ZM24.3175 5.49076L24.1697 5.41656V5.19397V4.82297V4.37778L24.613 4.60037L24.9824 4.74877L25.1301 4.82297V5.04557V5.41656V5.86176L24.6869 5.63916L24.3175 5.49076ZM24.9824 7.27154C24.8346 7.27154 24.7607 7.19734 24.7607 7.04894C24.7607 6.90055 24.8346 6.82635 24.9824 6.82635C25.1301 6.82635 25.204 6.90055 25.204 7.04894C25.204 7.12314 25.1301 7.27154 24.9824 7.27154ZM26.0905 6.82635C25.9428 6.82635 25.8689 6.75215 25.8689 6.60375C25.8689 6.45535 25.9428 6.38115 26.0905 6.38115C26.2383 6.38115 26.3122 6.45535 26.3122 6.60375C26.3122 6.67795 26.1644 6.82635 26.0905 6.82635ZM27.1987 6.52955C27.051 6.52955 26.9771 6.45535 26.9771 6.30695C26.9771 6.15856 27.051 6.08436 27.1987 6.08436C27.3465 6.08436 27.4203 6.15856 27.4203 6.30695C27.4203 6.45535 27.3465 6.52955 27.1987 6.52955ZM30.2277 6.52955C30.08 6.52955 30.0061 6.45535 30.0061 6.30695C30.0061 6.15856 30.08 6.08436 30.2277 6.08436C30.3755 6.08436 30.4493 6.15856 30.4493 6.30695C30.4493 6.45535 30.3016 6.52955 30.2277 6.52955ZM31.3359 6.82635C31.1881 6.82635 31.1142 6.75215 31.1142 6.60375C31.1142 6.45535 31.1881 6.38115 31.3359 6.38115C31.4836 6.38115 31.5575 6.45535 31.5575 6.60375C31.5575 6.67795 31.4836 6.82635 31.3359 6.82635ZM32.444 7.27154C32.2963 7.27154 32.2224 7.19734 32.2224 7.04894C32.2224 6.90055 32.2963 6.82635 32.444 6.82635C32.5918 6.82635 32.6657 6.90055 32.6657 7.04894C32.6657 7.12314 32.5918 7.27154 32.444 7.27154ZM32.2963 5.86176V5.41656V5.04557V4.82297L32.444 4.74877L32.8134 4.60037L33.2567 4.37778V4.82297V5.19397V5.41656L33.1089 5.49076L32.7396 5.63916L32.2963 5.86176Z" fill="#FFC112"/>
<path d="M28.6759 6.52996C28.8799 6.52996 29.0453 6.36385 29.0453 6.15896C29.0453 5.95406 28.8799 5.78796 28.6759 5.78796C28.4719 5.78796 28.3065 5.95406 28.3065 6.15896C28.3065 6.36385 28.4719 6.52996 28.6759 6.52996Z" fill="#FFC112"/>
<path d="M28.2328 5.63916C28.3806 5.49076 28.5283 5.49076 28.6761 5.49076C28.8238 5.49076 29.0455 5.56496 29.1194 5.63916C29.1932 5.19397 29.4149 4.52617 29.7843 3.93258C29.7843 3.93258 29.7843 3.85838 29.8581 3.85838C29.8581 3.63579 29.7104 3.48739 29.4887 3.33899C29.341 3.63579 29.0455 3.93258 28.6022 3.93258C28.2328 3.93258 27.8634 3.70998 27.7157 3.33899C27.5679 3.41319 27.4202 3.56159 27.4202 3.78418C27.4202 3.85838 27.494 3.85838 27.494 3.93258C27.9373 4.60037 28.1589 5.19397 28.2328 5.63916Z" fill="#FFC112"/>
<path d="M49.1408 37.3223C41.8269 41.2548 35.3995 44.8906 28.8243 48.1553L28.9721 48.3779V48.4521C35.6211 45.5584 42.6395 42.3678 49.8796 38.732C49.7318 38.2869 49.4363 37.6933 49.1408 37.3223Z" fill="#E0E0E0"/>
<path d="M26.7558 49.3422L26.682 49.1938C25.2044 49.9358 23.653 50.6036 22.1754 51.2714C23.653 50.6778 25.2044 50.0842 26.7558 49.3422Z" fill="#E0E0E0"/>
<path d="M50.9134 38.5835C43.9689 42.0709 36.5811 45.484 29.1194 48.7488L30.8186 52.3103C38.2064 49.194 45.7419 46.226 52.982 43.7774C52.6864 41.9225 51.9477 40.2159 50.9134 38.5835Z" fill="#E0E0E0"/>
<path d="M13.7531 54.8331L14.1225 55.9461C14.1963 56.1687 13.9747 56.3913 13.9747 56.6881C14.0486 57.7269 13.3837 58.4689 13.3837 58.4689L13.0143 58.7657L12.8665 58.3205L11.9061 55.5009C11.9061 55.5751 11.8322 55.5751 11.7584 55.5751L12.3494 57.2817C12.571 58.0237 12.2016 59.0624 12.1278 59.0624L11.98 59.3592L11.6845 59.285C11.6845 59.285 10.9457 58.7657 10.5763 57.8011C10.5024 57.6527 10.3547 57.6527 10.2808 57.5043L9.91141 56.3171C9.83754 56.3171 9.76366 56.3913 9.6159 56.3913L10.5024 59.0624L10.6502 59.5076H10.2069C10.133 59.5076 9.32039 59.5076 8.65549 58.5431C8.58161 58.3947 8.21222 58.4689 8.13834 58.2463L7.76895 57.0591C6.88242 57.3559 6.06976 57.6527 5.18323 57.9495C5.47874 59.9528 6.14364 61.7336 7.32569 63.1434C9.39427 62.1046 11.5367 61.0658 13.7531 60.027C13.7531 59.9528 13.8269 59.8044 13.9008 59.656L14.7874 58.1721C14.7874 58.1721 14.6396 57.7269 14.7135 57.2075C15.3784 57.3559 15.8955 57.6527 16.1172 58.0979C16.191 58.3205 16.191 58.6915 16.0433 58.9882C20.1066 57.0591 24.3176 55.2041 28.5287 53.4233L26.9033 49.6392C22.5445 51.4941 18.1119 53.2749 13.7531 54.8331Z" fill="#E0E0E0"/>
<path d="M12.8664 49.1941C12.1276 49.1199 11.4627 49.0457 10.7978 48.8973L10.8717 48.6005C11.3888 48.7489 11.9059 48.8231 12.497 48.8973C11.4627 47.9327 11.3149 46.5229 11.6843 45.1132L8.80307 43.7034C7.91654 44.9648 6.73449 45.4841 5.33081 45.2615C6.58673 46.5971 7.99042 47.6359 9.68961 48.2295L9.61573 48.5263C7.76878 47.8585 6.21734 46.7455 4.88754 45.1874C4.44427 45.1132 4.00101 44.8906 3.55774 44.668C4.29652 48.1553 11.6104 51.6427 14.1962 49.7877C13.679 49.6393 13.2357 49.4167 12.8664 49.1941Z" fill="#E2E2E2"/>
<path d="M7.02983 39.2517L6.66044 39.1033C6.29105 38.9549 5.92166 39.1033 5.77391 39.4001C5.62615 39.7711 5.77391 40.1421 6.06942 40.2904L6.36493 40.4388C6.51269 40.142 6.73432 39.9937 7.02983 39.9937C6.95596 39.7711 6.95596 39.4743 7.02983 39.2517Z" fill="#A5A5A5"/>
<path d="M52.0212 60.7696L51.6518 60.547C51.5041 60.7696 51.2825 60.9922 50.9869 60.9922C51.1347 61.2148 51.1347 61.5116 50.9869 61.7342L51.4302 61.9568C51.7996 62.1052 52.169 61.9568 52.3167 61.66C52.4645 61.3632 52.3167 60.918 52.0212 60.7696Z" fill="#A5A5A5"/>
<path d="M49.1759 57.5934L47.1746 61.8136L48.2417 62.3241L50.2431 58.1039L49.1759 57.5934Z" fill="#939393"/>
<path d="M14.124 40.7666L12.1227 44.9868L13.1898 45.4973L15.1912 41.2771L14.124 40.7666Z" fill="#939393"/>
<path d="M9.485 38.6062L7.48364 42.8264L8.55079 43.3369L10.5521 39.1167L9.485 38.6062Z" fill="#939393"/>
<path d="M17.8906 42.5908L22.6927 50.0849L23.4315 50.4559C23.6531 50.3817 23.8009 50.3075 24.0225 50.1591L19.7376 43.4812L17.8906 42.5908Z" fill="#939393"/>
<path d="M26.5338 46.7458L27.642 48.4524C27.9375 48.304 28.3069 48.1556 28.6024 48.0072L28.3808 47.6362L26.5338 46.7458Z" fill="#939393"/>
<path d="M30.9664 52.5334L31.1142 52.8302L30.8187 52.9786L30.597 53.0528L31.2619 54.1658L33.035 55.0562L31.3358 52.385C31.2619 52.4592 31.1142 52.5334 30.9664 52.5334Z" fill="#939393"/>
<path d="M35.1034 50.8268L39.9055 58.3209L40.6442 58.6919C40.4226 58.0983 40.6442 57.6531 40.7181 57.5789L36.9503 51.7172L35.1034 50.8268Z" fill="#939393"/>
<path d="M45.2253 55.6498L44.9298 55.5756L43.6 58.6177L43.4522 58.4693L42.8612 59.7307L43.8955 60.2501L44.4865 58.9887C44.4126 58.6919 44.191 57.9499 44.4865 57.3563L45.2253 55.6498Z" fill="#939393"/>
<path d="M13.7533 44.965L13.4578 45.4844L22.0276 49.5653L21.3627 48.6007L13.7533 44.965Z" fill="#DBDBDB"/>
<path d="M19.9584 46.3749L14.3437 43.6295L13.8265 44.6683L21.0666 48.1557L19.9584 46.3749Z" fill="#DBDBDB"/>
<path d="M18.4811 44.0745L14.935 42.3679L14.4917 43.4067L19.6632 45.8553L18.4811 44.0745Z" fill="#DBDBDB"/>
<path d="M17.6679 42.7389L17.594 42.6647L15.3038 41.5518L15.0822 42.0712L18.185 43.5551L17.6679 42.7389Z" fill="#DBDBDB"/>
<path d="M6.43922 41.4036L6.36534 41.4778C6.21758 41.7746 6.36534 42.0714 6.66085 42.2198L7.25187 42.5166L7.47351 41.9972L6.73473 41.6262C6.66085 41.552 6.58697 41.4778 6.43922 41.4036Z" fill="#DBDBDB"/>
<path d="M9.14696 42.7563L8.89282 43.2922L11.8942 44.728L12.1483 44.1921L9.14696 42.7563Z" fill="#DBDBDB"/>
<path d="M6.6605 40.5874C6.51275 40.8841 6.6605 41.1809 6.95602 41.3293L7.6948 41.7003L8.13806 40.6616L7.39928 40.2906C7.10377 40.2164 6.73438 40.2906 6.6605 40.5874Z" fill="#DBDBDB"/>
<path d="M9.74324 41.4948L9.26672 42.4996L12.2681 43.9354L12.7446 42.9306L9.74324 41.4948Z" fill="#DBDBDB"/>
<path d="M7.32591 39.3256C7.17815 39.6224 7.32591 39.9192 7.62142 40.0676L8.28632 40.3644L8.72959 39.3256L8.06469 39.103C7.76918 38.9546 7.47367 39.0288 7.32591 39.3256Z" fill="#DBDBDB"/>
<path d="M10.3464 40.1358L9.86987 41.1406L12.8712 42.5764L13.3478 41.5716L10.3464 40.1358Z" fill="#DBDBDB"/>
<path d="M7.84304 38.7323C7.9908 38.7323 8.06468 38.7323 8.21243 38.8065L8.87733 39.1033L9.09897 38.5839L8.50794 38.2871C8.21243 38.1387 7.91692 38.2871 7.76917 38.5839C7.84304 38.6581 7.84304 38.6581 7.84304 38.7323Z" fill="#DBDBDB"/>
<path d="M10.7201 39.3431L10.4659 39.879L13.4673 41.3148L13.7214 40.7789L10.7201 39.3431Z" fill="#DBDBDB"/>
<path d="M32.813 54.0916L33.3301 54.9077L33.404 54.9819L39.2404 57.8015L38.6493 56.8369L32.813 54.0916Z" fill="#DBDBDB"/>
<path d="M44.509 59.6559L44.2549 60.1918L46.9895 61.4999L47.2436 60.964L44.509 59.6559Z" fill="#DBDBDB"/>
<path d="M26.8291 47.7102L26.2381 46.894L26.1642 46.7456L20.4017 44.0002L20.9928 44.9648L26.8291 47.7102Z" fill="#DBDBDB"/>
<path d="M51.2825 58.7658L50.396 58.3206L50.1743 58.84L51.2086 59.3593C51.3564 59.4335 51.4302 59.5077 51.5041 59.5819L51.578 59.5077C51.7258 59.211 51.578 58.9142 51.2825 58.7658Z" fill="#DBDBDB"/>
<path d="M49.805 62.1793L48.8446 61.7341L48.5491 62.2535L49.3617 62.6245C49.6572 62.7729 49.9528 62.6245 50.1005 62.3277C50.1005 62.2535 50.1005 62.2535 50.1744 62.1793C50.0266 62.2535 49.8789 62.2535 49.805 62.1793Z" fill="#DBDBDB"/>
<path d="M50.3964 60.9177L49.4359 60.4725L48.9927 61.5113L49.9531 61.9565C50.2486 62.1049 50.5441 61.9565 50.6919 61.6597C50.7657 61.3629 50.6919 61.0661 50.3964 60.9177Z" fill="#DBDBDB"/>
<path d="M51.0609 59.6565L50.0266 59.1371L49.5834 60.1759L50.6177 60.6953C50.9132 60.8437 51.2087 60.6953 51.3564 60.3985C51.5042 60.1017 51.3564 59.8049 51.0609 59.6565Z" fill="#DBDBDB"/>
<path d="M23.9481 49.4911L24.6869 49.8621C25.1302 49.6395 25.5734 49.4911 26.0167 49.2685L22.84 47.7103L23.9481 49.4911Z" fill="#DBDBDB"/>
<path d="M21.2886 45.4103L22.3967 47.1911L26.3123 49.046C26.6817 48.8976 26.9772 48.7492 27.3466 48.5266L27.1249 48.1556L21.2886 45.4103Z" fill="#DBDBDB"/>
<path d="M30.0057 53.3491L30.5968 53.6459L30.3012 53.2007L30.0057 53.3491Z" fill="#DBDBDB"/>
<path d="M34.8825 50.9751C34.6608 51.0493 34.4392 51.1235 34.1437 51.1977L35.3996 51.7913L34.8825 50.9751Z" fill="#DBDBDB"/>
<path d="M35.6944 52.3109L33.7736 51.4205C33.3303 51.6431 32.887 51.7915 32.3699 52.0141L36.8025 54.1659L35.6944 52.3109Z" fill="#DBDBDB"/>
<path d="M37.1724 54.6109L32.001 52.1624C31.8532 52.2366 31.7793 52.2366 31.6316 52.3107L32.4442 53.6463L38.2067 56.3917L37.1724 54.6109Z" fill="#DBDBDB"/>
<path d="M42.9342 55.4271L43.2297 54.9077L37.615 52.2366L38.206 53.2012L42.9342 55.4271Z" fill="#DBDBDB"/>
<path d="M42.8602 55.798L38.5753 53.6462L39.6835 55.427L42.8602 56.911C42.8602 56.6884 42.9341 56.4658 42.9341 56.3174C42.8602 56.0948 42.7125 56.0206 42.8602 55.798Z" fill="#DBDBDB"/>
<path d="M39.9791 55.9465L40.8657 57.3563C41.3828 56.9111 42.1216 56.9853 42.1216 56.9853L41.9 57.7273L42.1216 58.1725L43.082 58.6177L43.3036 58.2467C43.1559 58.0241 43.0081 57.7273 42.9342 57.2821L39.9791 55.9465Z" fill="#DBDBDB"/>
<path d="M42.7127 59.3594L42.9343 58.9142L42.3433 58.6174L42.7127 59.3594Z" fill="#DBDBDB"/>
<path d="M47.1453 56.7624L46.8498 56.614L46.5543 57.2076L46.9237 57.356L47.1453 56.7624Z" fill="#DBDBDB"/>
<path d="M46.7763 57.5788L46.4808 57.4304L46.3331 57.7272C46.2592 57.8756 46.1114 57.7272 45.8159 58.3208L46.2592 58.5434L46.7763 57.5788Z" fill="#DBDBDB"/>
<path d="M47.9582 59.3594L48.4014 58.469C48.3275 58.5432 48.1059 58.469 48.032 58.6174C47.8843 58.84 47.5888 59.1368 47.5149 59.1368L47.9582 59.3594Z" fill="#DBDBDB"/>
<path d="M46.4064 59.5079H45.9632L46.1109 59.0627L46.1848 58.9144L45.7415 58.6176C45.3722 59.0627 44.7811 59.4337 44.7811 59.4337L47.4407 60.6951L47.884 59.6563L47.2191 59.3595C46.7758 59.4337 46.4803 59.5079 46.4064 59.5079Z" fill="#DBDBDB"/>
<path d="M28.8248 54.6851C27.6428 54.6851 26.6824 55.6496 26.6824 56.8368C26.6824 58.024 27.6428 58.9886 28.8248 58.9886C30.0069 58.9886 30.9673 58.024 30.9673 56.8368C30.9673 55.6496 30.0069 54.6851 28.8248 54.6851ZM29.342 56.0206C29.4897 56.0206 29.4897 55.8722 29.4159 55.798C29.4897 55.6496 29.5636 55.798 29.5636 55.8722C29.5636 55.8722 29.7114 55.8722 29.7114 55.9464C29.7114 56.0206 29.6375 56.0206 29.6375 56.169C29.6375 56.169 29.4897 56.0948 29.5636 56.169C29.5636 56.169 29.4897 56.169 29.4897 56.0948C29.4897 56.0206 29.5636 56.0206 29.5636 55.9464C29.5636 55.8722 29.4159 55.8722 29.4159 55.8722C29.4897 55.9464 29.4897 56.0948 29.342 56.0206ZM29.1203 56.7626H28.6032C28.751 56.6142 28.6032 56.2432 28.3077 56.2432C28.2338 56.2432 28.2338 56.3174 28.2338 56.3174V56.2432C28.2338 56.0948 28.6032 56.169 28.751 56.0948C28.751 56.169 28.6771 56.2432 28.6771 56.2432C28.751 56.3174 28.8248 56.4658 28.8987 56.6884C28.8987 56.4658 28.9726 56.3174 29.1203 56.2432C29.0465 56.2432 28.9726 56.169 29.0465 56.0948C29.1942 56.169 29.5636 56.0948 29.5636 56.2432V56.3174C29.5636 56.3174 29.5636 56.2432 29.4897 56.2432C29.1203 56.2432 28.8987 56.6142 29.1203 56.7626ZM29.342 56.3916C29.2681 56.3916 29.2681 56.3916 29.1942 56.3916L29.2681 56.3174C29.2681 56.3174 29.342 56.3174 29.342 56.3916ZM28.8987 57.282C28.8987 57.282 28.9726 57.2078 28.9726 57.282C28.9726 57.3562 28.8987 57.3562 28.8987 57.3562L28.751 56.911H28.8248C28.8248 56.911 28.8987 56.8368 28.9726 56.911C28.9726 56.911 28.9726 56.911 28.9726 56.9852V57.0594C29.0465 57.0594 29.0465 57.0594 29.0465 57.1336C29.0465 57.0594 28.9726 57.0594 28.9726 57.0594C28.8987 57.2078 28.8987 57.2078 28.8987 57.282ZM28.6771 57.1336C28.6032 57.0594 28.6032 57.0594 28.6032 57.0594C28.6032 57.0594 28.6771 57.0594 28.6771 57.1336C28.6771 57.0594 28.751 57.0594 28.751 57.0594C28.6771 57.0594 28.6032 57.0594 28.6032 56.9852L28.6771 56.911V56.8368L28.8987 57.4304C28.8248 57.4304 28.751 57.4304 28.6771 57.4304C28.6771 57.4304 28.6032 57.4304 28.6032 57.3562C28.6032 57.3562 28.6032 57.3562 28.6032 57.282C28.6032 57.282 28.6771 57.2078 28.6771 57.1336ZM28.4554 56.3916C28.4554 56.3916 28.3816 56.3916 28.3077 56.3916C28.3077 56.3174 28.3077 56.3174 28.3816 56.3174C28.3816 56.3174 28.4554 56.3174 28.4554 56.3916ZM28.8248 55.5012L28.8987 55.5754L28.8248 55.6496L28.751 55.5754L28.8248 55.5012ZM28.3816 55.8722H28.5293C28.6032 55.8722 28.6032 55.8722 28.6032 55.9464C28.6771 55.9464 28.751 55.8722 28.751 55.798L28.6771 55.7238C28.6032 55.6496 28.6771 55.5754 28.751 55.5754L28.8248 55.7238L28.8987 55.5754C28.9726 55.5754 29.0465 55.6496 28.9726 55.7238L28.8987 55.798C28.8987 55.8722 28.9726 55.9464 29.0465 55.9464C29.0465 55.8722 29.0465 55.8722 29.1203 55.8722L29.1942 55.9464L29.2681 55.8722C29.342 55.8722 29.342 55.8722 29.342 55.9464L29.2681 56.0206H29.1203C28.9726 56.0206 28.8987 55.9464 28.8987 55.8722H28.751C28.751 55.9464 28.6771 56.0206 28.5293 56.0206H28.3816C28.3816 56.0206 28.3816 55.9464 28.3077 55.9464C28.2338 55.9464 28.3077 55.8722 28.3816 55.8722ZM28.0122 55.8722C28.0861 55.798 28.1599 55.6496 28.1599 55.798C28.0861 55.8722 28.0861 56.0206 28.2338 56.0206C28.0861 56.0206 28.0861 55.9464 28.0861 55.8722C28.0861 55.8722 27.9383 55.8722 27.9383 55.9464C27.9383 56.0206 28.0122 56.0206 28.0122 56.0948C28.0122 56.0948 28.0122 56.169 27.9383 56.169C27.9383 56.0948 27.8644 56.0948 27.8644 56.169C27.9383 56.0206 27.7905 56.0206 27.7905 55.9464C27.8644 55.8722 28.0122 55.9464 28.0122 55.8722ZM27.495 56.6142C27.5689 56.6142 27.6428 56.6142 27.5689 56.54C27.495 56.4658 27.4212 56.3174 27.495 56.2432C27.495 56.2432 27.7167 56.3174 27.6428 56.2432C27.5689 56.0948 27.5689 55.9464 27.6428 55.8722C27.6428 55.9464 27.9383 56.3174 28.2338 56.54C28.2338 56.54 28.1599 56.6142 28.1599 56.6884C28.1599 56.7626 28.2338 56.8368 28.3077 56.8368C28.3816 56.8368 28.3816 56.8368 28.4554 56.8368V57.0594C28.4554 56.9852 28.3077 56.911 28.2338 56.911C28.2338 56.9852 28.1599 57.0594 28.1599 57.1336C28.0861 57.2078 28.0122 57.2078 27.9383 57.1336C27.9383 57.1336 28.0122 56.9852 27.9383 57.0594C27.8644 57.1336 27.7905 57.0594 27.7167 56.9852C27.7905 56.9852 27.7905 56.911 27.7167 56.911C27.6428 56.911 27.495 56.911 27.495 56.7626C27.495 56.7626 27.6428 56.6884 27.5689 56.6884C27.5689 56.8368 27.495 56.7626 27.495 56.6142ZM29.5636 57.8014C29.4897 57.8014 29.4159 57.8014 29.4159 57.7272C29.342 57.653 29.2681 57.653 29.1203 57.653C29.1942 57.5788 29.0465 57.5046 28.9726 57.5788C28.8987 57.5788 28.8987 57.653 28.8987 57.7272C29.0465 57.7272 29.2681 57.8756 29.2681 57.9498C29.2681 58.024 29.2681 58.024 29.1942 58.024C29.1942 57.8756 29.1203 57.8756 29.1203 58.024C29.1203 58.0982 29.0465 58.0982 29.0465 58.1724C29.0465 58.024 28.9726 58.024 28.9726 58.1724C28.9726 58.2466 28.8987 58.2466 28.8987 58.2466L28.8248 58.1724C28.8248 58.024 28.751 58.024 28.751 58.1724C28.6771 58.1724 28.6771 58.0982 28.6771 58.024C28.6771 57.8756 28.6032 57.8756 28.6032 58.024C28.5293 58.024 28.5293 57.9498 28.5293 57.9498C28.6032 57.8756 28.751 57.7272 28.8987 57.7272C28.8987 57.653 28.8248 57.5788 28.8248 57.5788C28.751 57.5046 28.6771 57.5788 28.6771 57.653C28.6032 57.653 28.4554 57.653 28.4554 57.7272H28.3816C28.3077 57.7272 28.3077 57.653 28.3077 57.653V57.5788L28.0122 57.3562H27.9383C27.9383 57.3562 27.7905 57.3562 27.7905 57.282H27.8644C27.8644 57.282 27.7905 57.2078 27.8644 57.2078C27.9383 57.2078 28.0122 57.2078 28.0122 57.2078V57.1336C28.0861 57.1336 28.0861 57.282 28.0861 57.282C28.0861 57.282 28.1599 57.282 28.0861 57.3562L28.3816 57.653H28.4554C28.5293 57.653 28.6771 57.653 28.6771 57.5788C28.5293 57.3562 28.6771 57.2078 28.751 57.2078V57.3562C28.751 57.4304 28.8248 57.4304 28.8248 57.4304H28.8987C28.9726 57.4304 29.0465 57.5046 29.0465 57.5046C29.0465 57.5046 29.1203 57.4304 29.1942 57.4304H29.2681C29.342 57.4304 29.342 57.3562 29.342 57.3562V57.2078C29.4897 57.2078 29.6375 57.3562 29.4159 57.5788L29.5636 57.653C29.5636 57.5788 29.5636 57.5788 29.6375 57.5788L29.7114 57.653L29.7852 57.5788C29.8591 57.5788 29.8591 57.653 29.8591 57.7272C29.7114 57.7272 29.6375 57.8014 29.5636 57.8014ZM30.1546 56.6142C30.1546 56.6884 30.0808 56.8368 30.0069 56.8368C29.8591 56.8368 30.0069 56.911 30.0808 56.911C30.0808 56.9852 30.0069 57.0594 29.8591 57.0594C29.7852 57.0594 29.7852 57.1336 29.8591 57.1336C29.7852 57.2078 29.7114 57.2078 29.6375 57.2078C29.5636 57.2078 29.6375 57.282 29.6375 57.282C29.5636 57.3562 29.4897 57.3562 29.4159 57.282C29.342 57.2078 29.342 57.1336 29.342 57.0594C29.2681 57.0594 29.1942 57.0594 29.1203 57.2078V56.9852C29.1942 56.9852 29.2681 56.9852 29.2681 56.9852C29.342 56.9852 29.4159 56.911 29.4159 56.8368C29.4159 56.7626 29.4159 56.7626 29.342 56.6884C29.6375 56.54 29.8591 56.0948 29.933 56.0206C30.0069 56.0948 30.0069 56.2432 29.933 56.3916C29.8591 56.4658 30.0808 56.3916 30.0808 56.3916C30.1546 56.4658 30.0808 56.6142 30.0069 56.6884C29.933 56.6142 30.0808 56.6142 30.1546 56.6142Z" fill="#D0D2D3"/>
<path d="M16.0422 9.42358C15.4511 9.57198 15.2295 9.64618 14.8601 9.79458C14.1952 11.427 15.4511 13.2819 16.9287 14.1723C17.2242 14.0239 17.8152 13.7271 18.4801 13.8013C16.7809 12.7625 15.3773 11.2786 16.0422 9.42358Z" fill="#1FC150"/>
<path d="M41.383 9.42358C41.9741 9.57198 42.1957 9.64618 42.5651 9.79458C43.1561 11.427 41.9741 13.2819 40.4965 14.1723C40.201 14.0239 39.61 13.7271 38.9451 13.8013C40.7181 12.7625 42.0479 11.2786 41.383 9.42358Z" fill="#1FC150"/>
<path d="M14.8606 12.6141C13.6047 12.6141 11.9055 11.3527 10.5757 12.1689L10.8712 13.2077C12.2749 12.6141 13.5308 14.0981 15.5994 13.5787C15.3039 13.2077 15.0822 12.9109 14.8606 12.6141Z" fill="#1FC150"/>
<path d="M16.4863 11.724C16.6341 12.0208 16.9296 12.3176 17.2251 12.5402C17.9639 11.5756 17.7423 9.64643 16.3386 9.42383V9.49803C16.1908 9.79482 16.1908 10.0916 16.1169 10.3142C16.5602 10.6852 16.6341 11.2046 16.4863 11.724Z" fill="#1FC150"/>
<path d="M42.5643 12.6143C42.3427 12.9111 42.1211 13.2821 41.8256 13.5047C43.8941 14.024 45.1501 12.5401 46.5537 13.1337L46.8493 12.0949C45.5195 11.3529 43.8203 12.6143 42.5643 12.6143Z" fill="#1FC150"/>
<path d="M40.9401 11.7239C40.7923 11.2787 40.8662 10.6851 41.3095 10.3141C41.3095 10.0915 41.2356 9.7947 41.0878 9.49791V9.42371C39.6841 9.6463 39.5364 11.5755 40.2013 12.5401C40.4968 12.2433 40.7923 12.0207 40.9401 11.7239Z" fill="#1FC150"/>
<path d="M24.9822 14.395C26.903 13.3562 28.0851 11.5754 28.1589 8.75586C27.6418 8.75586 27.1246 8.83006 26.6814 8.90426C26.6814 10.7592 26.0903 12.0206 24.9822 12.8368C25.2777 12.7626 25.4993 12.6884 25.721 12.6142L26.4597 12.2432L26.0903 12.9852C25.7948 13.7272 25.4254 14.1724 24.9822 14.395Z" fill="#1FC150"/>
<path d="M32.3688 14.3949C31.9994 14.1723 31.5561 13.7271 31.2606 13.0593L30.8912 12.3173L31.63 12.6883C31.8516 12.7625 32.0733 12.8367 32.3688 12.9109C31.2606 12.0947 30.6696 10.8333 30.6696 8.97835C30.2263 8.90416 29.783 8.82996 29.192 8.82996C29.3398 11.5753 30.5218 13.4303 32.3688 14.3949Z" fill="#1FC150"/>
<path d="M34.2163 27.9734L33.9208 27.7509V26.9347H33.182L32.9604 26.5637C32.1477 25.0055 30.5963 24.0409 28.8971 24.0409H28.5277C26.8285 24.0409 25.2032 25.0055 24.4644 26.5637L24.2428 26.9347H23.5779V27.7509L23.2824 27.9734C21.2138 29.5316 20.0317 31.906 20.0317 34.4288C20.0317 36.9515 21.2138 39.3259 23.2824 40.8841L23.5779 41.1067V41.9229H24.2428L24.4644 42.2939C25.2771 43.8521 26.8285 44.8167 28.5277 44.8167H28.8971C30.5963 44.8167 32.2216 43.8521 32.9604 42.2939L33.182 41.9229H33.9208V41.1067L34.2163 40.8841C36.2849 39.3259 37.4669 36.9515 37.4669 34.4288C37.4669 31.906 36.2849 29.6058 34.2163 27.9734ZM31.6306 41.4777H25.7203V40.2163H26.1636V39.5485H26.4591V38.9549H26.9763V34.9482H26.2375V32.8706H26.9763V32.4996H26.6808V31.9802H26.3852V30.8672H26.6808V30.3478H27.0501V29.9768C26.533 29.4574 26.0159 28.4928 26.533 27.825C27.0501 27.1573 28.0844 27.6025 28.0844 27.6025C28.0844 27.5283 28.0844 27.3057 28.0844 27.2315H28.0106L28.0844 27.0831L27.9367 27.1573V25.9701L28.0844 26.0443L28.0106 25.8959H29.1926L29.1187 26.0443L29.2665 25.9701V27.1573L29.1187 27.0831L29.1926 27.2315H29.1187C29.1187 27.3057 29.1187 27.5283 29.1187 27.6025C29.1187 27.6025 30.2269 27.1573 30.6702 27.825C31.1873 28.567 30.6702 29.4574 30.2269 29.9768V30.3478H30.5963V30.8672H30.9657V31.9802H30.6702V32.4996H30.3746V32.8706H31.1134V34.9482H30.3746V38.9549H30.8918V39.5485H31.1873V40.2163H31.6306V41.4777Z" fill="#1FC150"/>
<path d="M27.2725 29.6055H28.0113C28.0113 28.9377 27.8635 28.1215 27.4941 27.7506L27.2725 27.528C27.0508 27.528 26.9031 27.6022 26.7553 27.8247C26.3121 28.4925 26.9031 29.3087 27.2725 29.6055Z" fill="#FFD400"/>
<path d="M30.3754 30.4962H26.9771V30.793H30.3754V30.4962Z" fill="#FFD400"/>
<path d="M30.5975 31.0155H26.682V31.5349H30.5975V31.0155Z" fill="#FFD400"/>
<path d="M30.0804 32.351H27.3469V32.8703H30.0804V32.351Z" fill="#FFD400"/>
<path d="M30.0065 29.8281H27.3469V30.2733H30.0065V29.8281Z" fill="#FFD400"/>
<path d="M30.0064 29.6055C30.3757 29.2346 30.9668 28.4926 30.5235 27.899C30.3757 27.6764 30.228 27.6022 30.0064 27.6022L29.7847 27.8248C29.4153 28.1216 29.2676 29.012 29.2676 29.6797H30.0064V29.6055Z" fill="#FFD400"/>
<path d="M28.4548 26.7862H28.8981L28.8242 26.4894L29.0458 26.5636V26.1926L28.8242 26.2668L28.8981 25.97H28.4548L28.5287 26.2668L28.2332 26.1926V26.5636L28.5287 26.4894L28.4548 26.7862Z" fill="#FFD400"/>
<path d="M28.6766 27.528C28.8398 27.528 28.9721 27.3952 28.9721 27.2312C28.9721 27.0673 28.8398 26.9344 28.6766 26.9344C28.5134 26.9344 28.3811 27.0673 28.3811 27.2312C28.3811 27.3952 28.5134 27.528 28.6766 27.528Z" fill="#FFD400"/>
<path d="M28.2327 29.6055H29.0454C29.0454 28.8636 29.1931 27.9732 29.6364 27.6022L29.0454 27.8248L28.9715 27.6022C28.8976 27.6764 28.8237 27.6764 28.676 27.6764C28.6021 27.6764 28.4544 27.6764 28.3805 27.6022L28.3066 27.8248L27.7156 27.6022C28.1588 27.9732 28.2327 28.8636 28.2327 29.6055Z" fill="#FFD400"/>
<path d="M30.3754 31.8317H26.9771V32.1285H30.3754V31.8317Z" fill="#FFD400"/>
<path d="M30.5235 39.2518H26.7557V39.6228H30.5235V39.2518Z" fill="#FFD400"/>
<path d="M30.8921 39.7709H26.4595V40.2161H30.8921V39.7709Z" fill="#FFD400"/>
<path d="M31.3364 40.4387H26.0172V41.1065H31.3364V40.4387Z" fill="#FFD400"/>
<path d="M30.0804 39.0288V34.7994H27.3469V38.9546H30.0804V39.0288ZM29.4155 35.2446H29.6371V38.4352H29.4155V35.2446ZM28.6028 35.2446H28.8245V38.4352H28.6028V35.2446ZM27.7902 35.2446H28.0118V38.4352H27.7902V35.2446Z" fill="#FFD400"/>
<path d="M27.8636 33.9095H27.9375V33.7611L27.8636 33.9095Z" fill="#FFD400"/>
<path d="M26.5341 33.0933V34.5772H30.7451V33.0933H26.5341ZM27.3467 34.2062C27.2728 34.2062 27.199 34.2062 27.1251 34.132V33.9837C27.1251 33.9837 27.1251 33.9837 27.199 33.9837L27.2728 34.0578H27.3467C27.4206 34.0578 27.4945 34.0579 27.4945 33.9837C27.4945 33.9095 27.4945 33.9095 27.3467 33.9095H27.2728C27.3467 33.9095 27.3467 33.9095 27.3467 33.8353C27.3467 33.7611 27.2728 33.7611 27.2728 33.7611H27.199V33.8353H27.1251V33.6869C27.199 33.6869 27.2728 33.6127 27.3467 33.6127C27.4945 33.6127 27.5683 33.6869 27.5683 33.7611C27.5683 33.8353 27.5683 33.9095 27.4945 33.9095C27.5683 33.9095 27.5683 33.9837 27.5683 34.0578C27.5683 34.132 27.4206 34.2062 27.3467 34.2062ZM28.3071 34.132H28.0116C28.0116 34.132 28.0116 34.132 28.0116 34.0578H28.0855L28.0116 33.9837H27.79V34.0578H27.8639C27.8639 34.0578 27.8639 34.0578 27.8639 34.132H27.6422C27.6422 34.132 27.6422 34.132 27.6422 34.0578H27.7161L27.9377 33.5385H28.0116L28.3071 34.132ZM28.972 34.2062H28.7504L28.5288 33.9095V34.0578H28.6026C28.6026 34.0578 28.6026 34.0578 28.6026 34.132H28.3071C28.3071 34.132 28.3071 34.132 28.3071 34.0578H28.381V33.6127H28.3071C28.3071 33.6127 28.3071 33.6127 28.3071 33.5385H28.6026C28.6026 33.5385 28.6026 33.5385 28.6026 33.6127H28.5288V33.8353L28.6765 33.6127C28.6765 33.6127 28.6765 33.6127 28.6765 33.5385H28.8982C28.8982 33.5385 28.8982 33.5385 28.8982 33.6127H28.8243L28.6765 33.7611L28.8982 34.0578L28.972 34.2062C28.972 34.132 28.972 34.132 28.972 34.2062ZM29.2675 34.2062C29.0459 34.2062 28.972 34.0578 28.972 33.9095C28.972 33.6869 29.0459 33.6127 29.2675 33.6127C29.4892 33.6127 29.5631 33.7611 29.5631 33.9095C29.5631 34.0578 29.4153 34.2062 29.2675 34.2062ZM30.228 34.2062H29.9324C29.9324 34.2062 29.9324 34.2062 29.9324 34.132H30.0063V33.9095H29.7847V34.0578H29.8586C29.8586 34.0578 29.8586 34.0578 29.8586 34.132H29.5631C29.5631 34.132 29.5631 34.132 29.5631 34.0578H29.6369V33.6127H29.5631C29.5631 33.6127 29.5631 33.6127 29.5631 33.5385H29.8586C29.8586 33.5385 29.8586 33.5385 29.8586 33.6127H29.7847V33.7611H30.0063V33.6127H29.9324C29.9324 33.6127 29.9324 33.6127 29.9324 33.5385H30.228C30.228 33.5385 30.228 33.5385 30.228 33.6127H30.1541V34.0578L30.228 34.2062C30.228 34.132 30.228 34.132 30.228 34.2062Z" fill="#FFD400"/>
<path d="M29.268 33.6128C29.1941 33.6128 29.1202 33.687 29.1202 33.8354C29.1202 33.9838 29.1941 34.058 29.268 34.058C29.3419 34.058 29.4158 33.9096 29.4158 33.8354C29.3419 33.7612 29.3419 33.6128 29.268 33.6128Z" fill="#FFD400"/>
<path d="M45.2984 55.3528C45.3723 55.3528 45.3723 55.3528 45.2984 55.3528C45.2246 55.1302 45.1507 55.056 45.0029 54.9076C45.0029 54.9818 45.0768 55.1302 45.0029 55.2044L45.2984 55.3528Z" fill="#FFE000"/>
<path d="M24.613 55.3525C24.613 56.0203 24.6869 56.6881 24.8347 57.3559C25.3518 57.1333 25.869 56.9107 26.3122 56.5397C26.3861 55.7977 26.8294 55.13 27.4943 54.759C27.5682 54.5364 27.642 54.2396 27.7159 54.017L24.613 55.3525Z" fill="#FFE000"/>
<path d="M28.6018 53.5718L28.0847 53.7944C28.0108 54.017 27.9369 54.3138 27.863 54.5364C28.1585 54.4622 28.4541 54.388 28.7496 54.388C29.0451 54.388 29.3406 54.4622 29.6361 54.5364C29.5622 54.2396 29.4884 53.9428 29.4145 53.646L28.7496 53.9428L28.6018 53.5718Z" fill="#FFE000"/>
<path d="M30.0796 54.685C30.7445 55.056 31.1877 55.7238 31.2616 56.4658C31.7049 56.8368 32.222 57.1336 32.7392 57.282C32.8869 56.54 33.0347 55.8722 32.9608 55.2786L29.7841 53.7205C29.8579 54.0915 29.9318 54.3883 30.0796 54.685Z" fill="#FFE000"/>
<path d="M27.7158 59.0626C27.9375 59.582 28.3068 60.324 28.7501 60.695C29.1934 60.324 29.6366 59.582 29.8583 59.0626C29.4889 59.4336 28.1591 59.4336 27.7158 59.0626Z" fill="#FFE000"/>
<path d="M14.9345 57.5044L15.23 58.9142L14.8606 58.3948L14.1218 59.6562C13.9002 59.953 14.048 60.1756 14.3435 60.0272L14.639 59.953C14.9345 59.8788 15.3778 59.5078 15.5255 59.1368L15.6733 58.9142C16.3382 57.8012 14.9345 57.5044 14.9345 57.5044Z" fill="#FFE000"/>
<path d="M9.17219 58.0238L9.83709 57.9496L9.24607 56.1688C9.17219 55.872 8.87668 55.7236 8.58116 55.7978L8.35953 55.872C8.06402 55.9462 7.91626 56.243 7.99014 56.5398L8.35953 57.727C8.43341 57.8754 8.8028 57.8012 8.87668 58.0238C9.39382 58.9884 10.2065 58.9884 10.2065 58.9884L9.98484 58.2464L9.17219 58.0238Z" fill="#FFE000"/>
<path d="M13.8266 55.8722L13.5311 54.9076C13.4572 54.6108 13.1617 54.4624 12.8662 54.5366L12.6446 54.6108C12.3491 54.685 12.2013 54.9818 12.2752 55.2786L12.7923 56.911L13.5311 56.2432L12.9401 57.282L13.014 57.4304L13.2356 58.1724C13.2356 58.1724 13.9005 57.282 13.7527 56.54C13.605 56.3174 13.9005 56.169 13.8266 55.8722Z" fill="#FFE000"/>
<path d="M11.3881 55.5014C11.3142 55.2788 11.0187 55.1304 10.797 55.2046L10.4276 55.353C10.206 55.4272 10.0583 55.724 10.1321 55.9466L10.5754 57.2822L11.6097 57.8016H10.9448C11.0925 58.4694 11.4619 58.7662 11.9052 59.063C11.9052 59.063 12.2746 58.1726 12.053 57.5048L11.3881 55.5014Z" fill="#FFE000"/>
<path d="M42.4173 54.1656L43.3038 54.6108C43.4516 54.3882 43.8209 54.0914 44.3381 54.2398L44.5597 54.314C44.5597 54.314 44.5597 54.314 44.6336 54.314C43.0083 52.3849 41.974 50.5299 41.7524 48.1555L38.7972 49.3427C38.945 49.7879 39.1666 50.2331 39.3883 50.6783L40.2009 49.7137L40.4226 49.9363L39.536 50.9751C39.6838 51.1977 39.8315 51.4203 39.9793 51.6429L40.6442 50.8267L40.8658 51.0493L40.127 51.9397C40.2748 52.1623 40.4226 52.3849 40.6442 52.5333L41.3091 51.7913L41.5307 52.0139L40.8658 52.8301C41.2352 53.3495 41.7524 53.7946 42.4173 54.1656Z" fill="#FFE000"/>
<path d="M13.0875 54.24C13.3092 54.24 13.5308 54.3884 13.6785 54.5368L15.7471 53.7206C16.1165 53.498 16.412 53.2012 16.7075 52.9044L15.9688 52.014L16.1904 51.7914L16.9292 52.6818C17.0769 52.4592 17.2247 52.3108 17.4463 52.0882L16.4859 51.1237L16.7075 50.9011L17.4463 51.8656C17.5941 51.643 17.7418 51.4205 17.8896 51.1979L16.9292 50.0107L17.1508 49.7881L18.0373 50.8269C18.4806 49.9365 18.7761 49.1203 18.85 48.3783L15.821 46.9685C15.821 49.7881 14.8606 52.0882 13.0875 54.24Z" fill="#FFE000"/>
<path d="M2.81886 14.6916V13.8754L3.33601 14.5432C3.77927 15.1368 4.22254 15.6562 4.66581 16.1014C4.3703 15.4336 4.14866 14.6174 4.07479 13.727C2.74498 11.7978 1.63681 9.94286 1.26742 8.53308C0.454767 12.3914 1.48906 14.9884 3.18825 17.066C2.96662 16.324 2.81886 15.582 2.81886 14.6916Z" fill="#FFE000"/>
<path d="M9.91066 28.2701C9.83678 28.1959 9.83678 28.1217 9.7629 28.0475L9.31963 27.3798L10.0584 27.6023C10.5756 27.7507 11.1666 27.8249 11.8315 27.8249C10.6494 27.5281 9.46739 26.9346 8.65473 25.599C6.58615 24.6344 4.51757 23.0762 3.18776 21.2212C2.67062 20.8502 2.15347 20.4792 1.71021 19.9598C2.59674 23.8182 6.36451 27.1572 9.91066 28.2701Z" fill="#FFE000"/>
<path d="M11.0192 25.1536C9.76329 24.6342 8.87675 23.7438 8.3596 22.8534C6.80817 22.0372 5.0351 20.7016 3.92693 18.7725C3.26203 18.2531 2.671 17.6595 2.0061 16.9175C2.15386 20.7016 5.25673 23.5954 8.43348 25.1536C8.3596 25.0794 8.3596 25.0052 8.28573 24.8568L7.99021 24.189L8.65512 24.4858C9.46777 24.8568 10.2804 25.0052 11.0192 25.1536Z" fill="#FFE000"/>
<path d="M8.58133 19.9598C8.50745 19.7372 8.50745 19.5146 8.43358 19.292L8.3597 18.6243L8.87684 18.9953C9.46787 19.4404 10.0589 19.7372 10.6499 20.034C10.1328 19.5888 9.6895 18.8469 9.61562 17.8081C7.0299 16.5467 5.84785 14.9885 4.22253 13.0593C4.44417 16.4725 6.36499 18.4017 8.58133 19.9598Z" fill="#FFE000"/>
<path d="M14.0479 33.8352C14.3434 33.39 14.7128 33.019 15.1561 32.7964C14.4912 32.8706 13.8263 32.8706 13.1614 32.8706C11.0189 32.8706 9.09809 32.4254 7.47277 31.6093C6.95563 31.7577 6.51236 31.906 6.06909 32.2028C7.54665 33.8352 10.5756 34.503 14.0479 33.8352Z" fill="#FFE000"/>
<path d="M16.338 34.577C16.1902 34.577 15.9686 34.577 15.7469 34.577C15.2298 34.577 14.7126 34.5028 14.1216 34.4286L13.6784 34.3544L13.8261 34.1318C13.0135 34.2802 12.2008 34.3544 11.3881 34.3544C10.6494 34.3544 9.98446 34.2802 9.31956 34.206C8.28527 34.5028 7.54649 34.8738 7.25098 35.5416C10.5755 36.5062 13.3828 35.9868 16.338 34.577Z" fill="#FFE000"/>
<path d="M15.8955 32.3508H15.8217C14.9351 32.3508 13.827 32.2024 12.4972 31.9056L12.0539 31.8314L12.2755 31.4604C12.3494 31.312 12.4972 31.1636 12.571 31.0152C9.32041 30.8668 6.66081 29.6796 4.59222 27.4536C4.22283 27.5278 3.92732 27.6762 3.70569 27.6762C6.51305 32.1282 11.0935 33.0185 15.8955 32.3508Z" fill="#FFE000"/>
<path d="M12.866 30.7185C13.0137 30.5701 13.1615 30.4217 13.3092 30.3475C11.9794 30.0507 10.9451 29.4571 10.2802 28.641C8.80267 28.27 7.17736 27.4538 5.77368 26.2666C4.73939 25.4504 3.92673 24.56 3.18795 23.5954C2.81856 23.5212 2.44917 23.447 2.22754 23.447C4.44388 27.9732 7.84226 30.5701 12.866 30.7185Z" fill="#FFE000"/>
<path d="M11.4623 20.1822C14.4174 21.5178 17.2248 22.1856 17.5942 25.3762C16.3383 21.221 12.6444 21.8888 8.72884 19.2177C8.8766 20.7758 9.98476 21.8146 11.684 22.4824C13.8264 23.2244 15.9689 23.8922 16.7815 26.044C14.4913 22.705 10.9452 23.6696 8.13782 21.5178C8.50721 22.8534 9.76313 24.7826 12.3489 25.1536C14.1958 25.5988 15.1562 25.8956 16.1166 27.3054C14.1219 25.2278 11.1668 25.8214 8.50721 24.7084C10.1325 28.4925 13.9742 27.3054 16.1905 28.8635C14.2697 27.9732 11.6101 28.4183 9.98477 27.899C10.7974 29.1603 12.1272 29.8281 13.6048 30.1249C14.4174 29.6055 15.304 29.6055 16.2644 29.5313C16.6338 29.5313 17.077 29.4571 17.4464 29.4571C16.3383 28.2699 16.5599 26.1924 18.4807 26.2666C18.7024 19.4403 12.4227 19.8854 9.98477 16.9175C9.76313 18.7725 10.6497 19.737 11.4623 20.1822Z" fill="#FFE000"/>
<path d="M22.6921 14.3209C23.4309 14.6177 24.9823 14.7661 25.8689 12.9111C25.204 13.2821 24.3174 13.2821 23.5787 13.2079C22.5444 13.1337 21.5101 12.9111 20.4019 12.9853C20.1064 12.9853 19.5893 13.2821 19.5154 13.6531C21.4362 13.2821 21.9534 14.0241 22.6921 14.3209Z" fill="#FFE000"/>
<path d="M27.0512 18.5499C27.0512 19.1435 27.0512 19.7371 26.7557 20.1823L26.3863 20.7759L26.2385 20.1081C26.1646 19.8855 26.0908 19.6629 26.0169 19.4403C25.8691 19.8855 25.7214 20.3307 25.4259 20.7017L24.9826 21.3695L24.9087 20.5533C24.9087 20.4049 24.9087 20.3307 24.8348 20.1823C24.761 20.4791 24.6132 20.7759 24.3916 21.0727L24.3177 21.2211C24.2438 21.7405 24.1699 22.2599 24.0961 22.5567C24.761 22.4083 25.5736 21.5179 25.8691 20.7759C26.0169 21.2211 26.3124 21.8147 26.6079 22.0373C27.1251 21.4437 27.2728 20.7017 27.4206 19.8113C27.7161 20.2565 28.0855 20.4049 28.7504 20.4791C29.4153 20.4049 29.7847 20.1823 30.0802 19.8113C30.1541 20.7017 30.3757 21.4437 30.8928 22.0373C31.1145 21.8147 31.4839 21.2211 31.6316 20.7759C31.9271 21.4437 32.7398 22.4083 33.4047 22.5567C33.3308 22.2599 33.2569 21.7405 33.1831 21.2211L33.1092 21.1469C32.8875 20.8501 32.7398 20.5533 32.6659 20.2565C32.6659 20.3307 32.6659 20.4791 32.592 20.6275L32.4443 21.3695L32.001 20.7017C31.7055 20.3307 31.5577 19.8855 31.41 19.4403C31.3361 19.6629 31.2622 19.8855 31.1883 20.1081L31.0406 20.7759L30.6712 20.1823C30.3757 19.7371 30.3757 19.1435 30.3757 18.5499C30.0063 18.9209 29.563 19.2177 29.1936 19.4403C29.1198 19.8113 28.8981 20.1823 28.6765 20.4791C28.4549 20.1823 28.3071 19.7371 28.1594 19.4403C27.8638 19.2177 27.4206 18.9209 27.0512 18.5499Z" fill="#FFE000"/>
<path d="M24.834 14.5431C23.5781 15.2109 22.5438 14.6915 21.9528 14.2463C21.214 13.7269 20.4752 13.7269 19.7365 13.8753C21.1401 14.7657 20.623 16.3981 21.5834 16.8433C22.0267 17.1401 23.061 17.8078 23.5042 18.995C23.7259 18.624 23.9475 17.2885 22.7654 15.8045C23.061 15.9529 23.4303 16.3981 23.4303 16.3981C24.1691 16.8433 24.7601 17.3627 25.1295 17.9562C25.2773 17.0659 24.834 16.2497 24.0952 15.3593C25.2773 16.7691 26.6071 16.8433 27.4936 16.5465C26.4593 16.4723 25.3512 15.4335 24.834 14.5431ZM20.4014 14.0979C20.623 14.0979 21.0663 14.0237 21.7312 14.3947C21.5095 14.6173 20.9924 14.9883 20.4014 14.0979Z" fill="#FFE000"/>
<path d="M25.2037 16.7692C25.3514 17.1402 25.4253 17.5854 25.3514 18.1047L25.2037 18.9209L24.7604 18.2531C24.4649 17.808 24.0955 17.437 23.6522 17.1402C23.9477 18.0305 23.8739 18.6983 23.7261 19.1435C23.9477 19.7371 24.0955 20.4049 24.0955 20.9985C24.5388 20.3307 24.6865 19.6629 24.6865 18.9209C24.9081 19.4403 25.0559 19.9597 25.1298 20.5533C25.573 19.8855 25.7947 19.2177 25.8686 18.4757C26.1641 18.9951 26.3857 19.5145 26.4596 20.0339C26.829 19.5145 26.6812 18.5499 26.6073 17.7338C27.1245 18.3273 27.9371 19.0693 28.4543 19.2919C28.1588 18.4757 27.5678 17.7338 26.9767 17.1402C26.9029 17.066 25.8686 17.2144 25.2037 16.7692Z" fill="#FFE000"/>
<path d="M22.8391 24.2635C20.9921 25.2281 21.066 27.0831 20.1056 27.4541C20.3272 27.5283 20.475 27.6025 20.6966 27.6025C20.9182 27.3799 21.066 27.0831 21.2138 26.7863C21.8048 25.8959 22.4697 24.7829 24.2428 24.3377C24.2428 24.2635 24.1689 24.1893 24.1689 24.1151C23.8734 24.1893 23.6517 24.2635 23.4301 24.2635C23.3562 24.2635 23.2823 24.2635 23.2085 24.2635H22.8391Z" fill="#FFE000"/>
<path d="M11.6841 22.8536C10.2065 22.26 9.24613 21.4438 8.80286 20.405C7.3253 19.5146 6.06937 18.4016 5.10896 16.9918C4.37018 16.3241 3.77916 15.5821 3.11426 14.7659C3.11426 18.55 5.55223 20.9986 8.13796 22.4084C8.06408 22.1858 7.91632 21.889 7.84245 21.6664L7.62081 20.776L8.28571 21.2954C9.39388 22.1116 10.5021 22.4826 11.6841 22.8536Z" fill="#FFE000"/>
<path d="M1.71042 16.9917V16.1013L2.30145 16.7691C2.81859 17.4369 3.33574 17.8821 3.85288 18.3273L2.96635 17.2143C2.00594 16.0271 1.34103 14.6916 0.971645 13.356C0.823889 13.0592 0.676133 12.7624 0.528377 12.4656C-0.28428 16.3981 1.1194 18.3273 2.74471 20.2565C2.15369 19.2919 1.7843 18.1789 1.71042 16.9917Z" fill="#FFE000"/>
<path d="M15.6 39.9935C15.2306 40.2161 14.8612 40.3645 14.418 40.5129L15.3784 40.9581C15.3784 40.7355 15.5261 40.3645 15.6 39.9935Z" fill="#FFE000"/>
<path d="M17.2983 42.1455L17.5939 42.2939L17.8155 42.1455L18.3326 42.3681C18.3326 41.9971 18.3326 41.4777 18.3326 41.0325C18.0371 41.4035 17.6677 41.8487 17.2983 42.1455Z" fill="#FFE000"/>
<path d="M19.8843 43.1099L20.2537 43.2583L20.4753 43.6293L21.0663 43.9261C20.9186 43.3325 20.8447 42.5905 20.8447 41.9227C20.5492 42.3679 20.2537 42.7389 19.8843 43.1099Z" fill="#FFE000"/>
<path d="M9.39368 38.2129L10.428 38.7323C12.7182 38.6581 14.5651 37.6935 16.4121 36.5063V36.4321C16.4121 35.7643 16.8553 34.9481 17.2247 34.4287C15.3039 35.4675 13.6047 36.0611 11.9055 36.2837C10.7235 36.8773 9.76307 37.4709 9.39368 38.2129Z" fill="#FFE000"/>
<path d="M54.0898 14.5431L54.607 13.8753V14.6915C54.607 15.5819 54.4592 16.3239 54.2376 17.0659C55.9368 14.9883 56.9711 12.3913 56.1584 8.53296C55.789 9.94274 54.6808 11.7977 53.351 13.7269C53.2772 14.6173 53.0555 15.3593 52.76 16.1013C53.2033 15.5819 53.6465 15.0625 54.0898 14.5431Z" fill="#FFE000"/>
<path d="M48.6973 25.6731C47.8846 27.0087 46.7026 27.5281 45.5205 27.8991C46.1854 27.8249 46.8503 27.8249 47.2936 27.6765L48.0324 27.4539L47.5891 28.1217C47.5152 28.1959 47.5152 28.2701 47.4413 28.3443C50.9875 27.2313 54.7553 23.8923 55.5679 20.1082C55.0508 20.5533 54.5336 20.9985 54.0904 21.3695C52.8344 23.2245 50.7658 24.7085 48.6973 25.6731Z" fill="#FFE000"/>
<path d="M48.9922 25.2278C52.169 23.5954 55.2718 20.7017 55.4196 16.9917C54.8286 17.7337 54.1637 18.3273 53.4988 18.8467C52.3906 20.7759 50.5437 22.0372 49.0661 22.9276C48.549 23.8922 47.6624 24.7084 46.4065 25.2278C47.2192 25.0794 47.9579 24.931 48.7706 24.6342L49.4355 24.3374L49.14 25.0052C49.0661 25.0052 49.0661 25.1536 48.9922 25.2278Z" fill="#FFE000"/>
<path d="M46.7024 20.0342C47.2934 19.7374 47.8844 19.4406 48.4755 18.9954L48.9926 18.6244L48.9187 19.2922C48.9187 19.5148 48.8448 19.7374 48.771 19.96C51.0612 18.476 52.9081 16.4726 53.0559 13.1337C51.5045 15.0628 50.3224 16.621 47.6628 17.8824C47.6628 18.847 47.2195 19.589 46.7024 20.0342Z" fill="#FFE000"/>
<path d="M44.2639 32.8705C43.6728 32.8705 43.0079 32.8705 42.2692 32.7963C42.6386 33.0189 43.0079 33.3899 43.3773 33.8351C46.8496 34.5029 49.8786 33.9093 51.3561 32.2769C50.9129 31.9801 50.4696 31.7575 49.9525 31.6833C48.3272 32.4253 46.4063 32.8705 44.2639 32.8705Z" fill="#FFE000"/>
<path d="M48.1054 34.206C47.4405 34.3544 46.7756 34.3544 46.0369 34.3544C45.2242 34.3544 44.4115 34.2802 43.5989 34.1318L43.7466 34.3544L43.3034 34.4286C42.7123 34.577 42.1952 34.577 41.6781 34.577C41.4564 34.577 41.3087 34.577 41.087 34.577C43.9683 35.9868 46.8495 36.5062 50.1001 35.5416C49.8785 34.8738 49.1397 34.5028 48.1054 34.206Z" fill="#FFE000"/>
<path d="M44.855 31.0154C44.9289 31.1638 45.0767 31.3122 45.1505 31.4606L45.3722 31.8316L44.9289 31.9058C43.5991 32.2026 42.4909 32.351 41.6044 32.351H41.5305C46.2587 33.0188 50.913 32.1284 53.7204 27.7507C53.4987 27.6765 53.1294 27.6023 52.8338 27.5281C50.6914 29.6799 48.0318 30.867 44.855 31.0154Z" fill="#FFE000"/>
<path d="M51.7257 26.3408C50.3221 27.4538 48.6967 28.27 47.2192 28.7152C46.4804 29.5314 45.4461 30.125 44.1902 30.4218C44.3379 30.5702 44.4857 30.6444 44.6335 30.7928C49.6572 30.5702 53.0555 27.9732 55.3458 23.5955C55.1241 23.5955 54.7547 23.6697 54.3853 23.7439C53.5727 24.6342 52.76 25.5246 51.7257 26.3408Z" fill="#FFE000"/>
<path d="M39.9055 29.4572C40.3488 29.5314 40.7182 29.5314 41.0876 29.5314C42.048 29.6056 42.9345 29.6056 43.7472 30.125C45.2247 29.8282 46.5545 29.1604 47.3672 27.899C45.7419 28.4184 43.1561 27.9732 41.1614 28.8636C43.3778 27.3054 47.2194 28.4926 48.7709 24.8568C46.1113 25.9698 43.1561 25.3762 41.1614 27.4538C42.1219 26.044 43.0823 25.7472 44.9292 25.302C47.5888 24.8568 48.7709 23.0018 49.1403 21.6663C46.3329 23.818 42.7868 22.8534 40.4965 26.1924C41.3831 23.9664 43.4517 23.2986 45.5941 22.6308C47.2933 21.9631 48.4015 20.9243 48.5492 19.3661C44.6337 22.0373 40.9398 21.3695 39.6839 25.5246C40.0533 22.3341 42.9345 21.5921 45.8157 20.3307C46.6284 19.8113 47.4411 18.8467 47.2933 17.0659C44.8553 19.9597 38.5757 19.5887 38.7973 26.415C40.8659 26.1924 41.0876 28.27 39.9055 29.4572Z" fill="#FFE000"/>
<path d="M34.7331 14.3208C35.4719 13.9498 35.9891 13.282 37.9099 13.653C37.836 13.282 37.3928 12.9852 37.0234 12.9852C35.9152 12.911 34.8809 13.1336 33.8466 13.2078C33.1078 13.282 32.2213 13.282 31.5564 12.911C32.4429 14.766 33.9944 14.6176 34.7331 14.3208Z" fill="#FFE000"/>
<path d="M30.7447 17.7338C30.6708 18.5499 30.523 19.5145 30.8924 20.0339C31.0402 19.5145 31.2618 18.9209 31.4835 18.4757C31.5573 19.2177 31.779 19.8855 32.2222 20.5533C32.2961 19.9597 32.4439 19.4403 32.6655 18.9209C32.6655 19.6629 32.8133 20.4049 33.2565 20.9985C33.2565 20.3307 33.3304 19.7371 33.6259 19.1435C33.4782 18.6983 33.4043 18.0305 33.6998 17.1402C33.2565 17.437 32.8871 17.8822 32.5916 18.2531L32.1484 18.9209L32.0006 18.1047C31.9267 17.6596 32.0006 17.2144 32.1484 16.7692C31.4835 17.1402 30.4492 17.066 30.3014 17.066C29.7104 17.6596 29.1932 18.4015 28.8239 19.2177C29.4888 18.9951 30.2275 18.3273 30.7447 17.7338Z" fill="#FFE000"/>
<path d="M34.5859 24.2632L34.2904 24.3374C34.2165 24.3374 34.1426 24.3374 34.0688 24.3374C33.8471 24.3374 33.5516 24.2632 33.33 24.189C33.33 24.2632 33.2561 24.3374 33.2561 24.4116C35.0292 24.7826 35.6941 25.8955 36.2851 26.8601C36.4329 27.1569 36.6545 27.4537 36.8022 27.6763C37.0239 27.6763 37.1716 27.6021 37.3933 27.5279C36.359 27.0827 36.4329 25.2278 34.5859 24.2632Z" fill="#FFE000"/>
<path d="M49.2882 22.4083C51.8739 20.9243 54.3119 18.4757 54.3119 14.7657C53.647 15.6561 52.9821 16.3239 52.3172 16.9917C51.4306 18.4757 50.1008 19.5887 48.6972 20.4791C48.2539 21.5179 47.2935 22.2599 45.8898 22.8534H45.8159C46.9241 22.5567 48.1061 22.1857 49.1404 21.3695L49.8053 20.8501L49.5837 21.7405C49.5098 21.8889 49.3621 22.1115 49.2882 22.4083Z" fill="#FFE000"/>
<path d="M53.5725 18.3272C54.0897 17.882 54.6068 17.3626 55.1239 16.769L55.715 16.1012V16.9916C55.6411 18.1788 55.3456 19.366 54.7546 20.4048C56.3799 18.4014 57.7836 16.5464 56.9709 12.6139C56.8231 12.9107 56.6754 13.2075 56.5276 13.5043C56.1582 14.9141 55.4933 16.1754 54.5329 17.3626L53.5725 18.3272Z" fill="#FFE000"/>
<path d="M47.6622 37.7677C47.219 37.2483 46.4063 36.8031 45.5198 36.2837C43.8206 36.0611 42.1214 35.4675 40.2006 34.4287C40.6438 34.9481 41.0132 35.7643 41.0132 36.4321V36.5063C42.6385 37.5451 44.2638 38.3613 46.1847 38.5839C46.6279 38.2871 47.1451 37.9903 47.6622 37.7677Z" fill="#FFE000"/>
<path d="M42.7128 40.4387C42.4173 40.2903 42.1218 40.1419 41.8263 39.9935C41.9002 40.2903 41.9002 40.5871 41.9741 40.8097C42.2696 40.7355 42.4912 40.5871 42.7128 40.4387Z" fill="#FFE000"/>
<path d="M39.9798 41.997C39.6843 41.7002 39.3888 41.4034 39.0933 41.1066C39.1671 41.626 39.1671 42.0712 39.0933 42.4422C39.3888 42.2938 39.6843 42.1454 39.9798 41.997Z" fill="#FFE000"/>
<path d="M36.2855 43.9261C36.7288 43.7035 37.1721 43.4067 37.6892 43.1841C37.3198 42.7389 36.9504 42.3679 36.6549 41.9227C36.581 42.7389 36.5072 43.4067 36.2855 43.9261Z" fill="#FFE000"/>
<path d="M44.7807 39.3258C44.5591 39.029 44.3374 38.7322 44.0419 38.4354C42.8599 38.0644 41.8256 37.3966 40.7174 36.7288H40.6435C40.4958 36.7288 40.4219 36.7288 40.2741 36.7288C39.6092 36.7288 38.8705 36.5062 38.2794 36.1353C38.2794 36.2837 38.2056 36.3579 38.2056 36.5062C39.6092 38.1386 41.0868 39.5484 43.0815 40.2904C43.6725 39.9194 44.2636 39.6226 44.7807 39.3258Z" fill="#FFE000"/>
<path d="M41.6781 41.0322C41.6781 40.6612 41.6043 40.2902 41.4565 39.845C40.2006 39.103 39.0924 38.0643 38.132 36.8771C37.9842 37.3223 37.8365 37.7675 37.6887 38.2127C38.2797 39.6224 39.0924 40.8096 40.2744 41.8484C40.7177 41.5516 41.2349 41.329 41.6781 41.0322Z" fill="#FFE000"/>
<path d="M38.7234 40.6615C38.2063 39.9937 37.8369 39.2518 37.5414 38.5098C37.172 39.2518 36.7287 39.9195 36.1377 40.5131C36.581 41.4035 37.172 42.2197 37.9108 43.0359C38.2063 42.8875 38.5018 42.7391 38.7973 42.5907C38.8712 42.0713 38.7973 41.4035 38.7234 40.6615Z" fill="#FFE000"/>
<path d="M36.2856 41.4775C36.1379 41.2549 35.9901 41.0323 35.9162 40.8097C35.6207 41.1065 35.3252 41.4033 34.9558 41.6259V42.7389V42.9615C35.2513 43.3325 35.5468 43.7035 35.8423 44.0745C36.2117 43.4809 36.3595 42.5905 36.2856 41.4775Z" fill="#FFE000"/>
<path d="M33.8475 43.0355C33.6259 43.3323 33.4781 43.7033 33.1826 43.9259C33.4043 44.2969 33.6998 44.7421 33.9953 45.1131C34.2169 44.9647 34.4385 44.8905 34.6602 44.7421C34.8079 44.3711 34.9557 44.0001 35.0296 43.4807C34.8818 43.3323 34.7341 43.1097 34.6602 42.9613H33.8475V43.0355Z" fill="#FFE000"/>
<path d="M32.9606 44.1487C32.5174 44.5939 32.0002 45.0391 31.4092 45.3359C31.7047 45.5585 32.0002 45.7811 32.2957 46.0037C32.6651 45.7811 33.1084 45.6327 33.4778 45.4101C33.4778 45.1875 33.4039 45.0391 33.33 44.8165C33.1823 44.5939 33.1084 44.3713 32.9606 44.1487Z" fill="#FFE000"/>
<path d="M31.8524 46.2264C31.8524 46.1522 31.8524 46.078 31.8524 46.078C31.6308 45.9296 31.3353 45.707 31.1136 45.4844C30.5965 45.707 30.0055 45.8554 29.3406 45.9296C29.5622 46.3748 29.7838 46.7458 30.0794 47.1168C30.6704 46.82 31.2614 46.5232 31.8524 46.2264Z" fill="#FFE000"/>
<path d="M29.0454 45.9294C28.9715 45.9294 28.8976 45.9294 28.8976 45.9294H28.5282C28.4543 45.9294 28.3805 45.9294 28.3805 45.9294C28.2327 46.3004 27.9372 46.6714 27.7894 47.0424L28.6021 47.4134C28.676 47.265 28.7498 47.0424 28.7498 46.894C28.8237 47.1908 28.8976 47.4134 28.9715 47.7102C29.267 47.5618 29.5625 47.4134 29.858 47.265C29.5625 46.8198 29.267 46.3746 29.0454 45.9294Z" fill="#FFE000"/>
<path d="M25.573 46.1522L26.0901 46.3748L26.2379 46.3006L27.4199 46.8942C27.6416 46.5974 27.8632 46.2264 28.011 45.9296C27.4199 45.8554 26.8289 45.707 26.2379 45.4844C26.0901 45.6328 25.7946 46.0038 25.573 46.1522Z" fill="#FFE000"/>
<path d="M26.0162 45.3357C25.4252 45.0389 24.908 44.668 24.4648 44.1486C24.317 44.3712 24.2431 44.5938 24.0954 44.7422C24.0954 44.8906 23.9476 45.1873 23.9476 45.2615L25.3513 45.9293C25.4991 45.8551 25.7946 45.4841 26.0162 45.3357Z" fill="#FFE000"/>
<path d="M23.5784 43.0358H22.8396C22.6918 43.1842 22.618 43.4068 22.4702 43.5552C22.4702 43.9262 22.5441 44.4456 22.618 44.6682L23.5784 45.1133C23.8 44.8165 24.1694 44.223 24.3172 43.9262C24.0217 43.6294 23.8 43.3326 23.5784 43.0358Z" fill="#FFE000"/>
<path d="M22.5442 42.739V41.626C22.1748 41.3292 21.8793 41.0324 21.5838 40.7356C21.436 40.9582 21.2883 41.255 21.1405 41.4776C21.0667 42.5164 21.1405 43.5552 21.436 44.1488L21.5838 44.223C21.8793 43.852 22.2487 43.2584 22.4703 42.8874V42.739H22.5442Z" fill="#FFE000"/>
<path d="M19.9579 38.4357C19.5885 39.1777 19.2192 39.9197 18.702 40.6616C18.6281 41.4036 18.5543 42.0714 18.6281 42.5908L19.5885 43.036C20.3273 42.2198 20.9184 41.4036 21.3616 40.5132C20.7706 39.8455 20.3273 39.1777 19.9579 38.4357Z" fill="#FFE000"/>
<path d="M19.2931 36.8027C18.2588 37.9899 17.1507 39.1029 15.8948 39.8449C15.747 40.3643 15.5992 40.9579 15.5992 41.4031L17.0768 42.0709C18.3327 41.0321 19.2193 39.4739 19.8103 38.0641C19.5887 37.6931 19.4409 37.2479 19.2931 36.8027Z" fill="#FFE000"/>
<path d="M19.2197 36.4319C19.2197 36.3577 19.1458 36.2093 19.1458 36.1351C18.4809 36.5061 17.816 36.8029 17.0773 36.8029C16.9295 36.8029 16.8556 36.8029 16.7079 36.8029H16.634C15.5997 37.4707 14.4915 38.0643 13.3095 38.5095C12.9401 38.9547 12.423 39.4741 12.1274 39.8451L13.605 40.5871C15.9691 39.7709 17.7422 38.2127 19.2197 36.4319Z" fill="#FFE000"/>
<path d="M44.8551 31.6831C42.9343 28.7151 40.4963 30.7927 37.5412 28.9377C37.3196 29.0861 37.0241 29.0861 36.6547 29.1603C37.4673 30.2733 37.9845 31.5347 38.2061 32.7961C39.1665 34.2801 41.1612 34.5027 43.082 34.1317C42.4171 33.0187 41.5306 32.6477 40.4963 32.4251C39.3143 32.0541 38.3539 31.6089 38.0583 30.3475C39.0926 32.4993 42.1955 32.2025 44.8551 31.6831Z" fill="#FFE000"/>
<path d="M40.6442 36.4319C40.6442 35.6899 40.0532 34.6512 39.61 34.3544C39.0189 34.1318 38.6495 33.835 38.354 33.3898C38.4279 33.7608 38.4279 34.1318 38.4279 34.4286C38.4279 34.8738 38.354 35.3931 38.2802 35.8383C39.0928 36.2835 39.9055 36.5061 40.6442 36.4319Z" fill="#FFE000"/>
<path d="M17.7418 34.3543C17.2985 34.7253 16.7814 35.6899 16.7075 36.4319C17.5202 36.5061 18.259 36.2835 19.0716 35.7641C18.9977 35.3189 18.9977 34.8737 18.9977 34.4285C18.9977 34.0575 18.9977 33.6123 19.0716 33.2413C18.7761 33.7607 18.4067 34.0575 17.7418 34.3543Z" fill="#FFE000"/>
<path d="M16.7812 32.4251C15.7469 32.6477 14.8604 33.0929 14.1955 34.1317C16.1902 34.5027 18.2588 34.2801 19.2192 32.6477C19.4408 31.3863 20.0319 30.1991 20.7706 29.1603C20.4013 29.1603 20.1057 29.0861 19.8841 28.9377C17.0029 30.7927 14.491 28.7151 12.5702 31.6831C15.2298 32.2767 18.3327 32.5735 19.2931 30.3475C18.9237 31.6089 17.9633 32.0541 16.7812 32.4251Z" fill="#FFE000"/>
<path d="M34.9556 27.2311C35.5467 27.6763 36.0638 28.2699 36.5071 28.7893C36.9503 28.7893 37.3197 28.7151 37.6891 28.4925C35.6944 28.1215 36.0638 25.2277 33.0348 24.6342L32.9609 24.7084C33.2564 25.0052 33.552 25.3761 33.7736 25.8213H34.6601H34.9556V26.1181V27.2311Z" fill="#FFE000"/>
<path d="M20.9929 28.8636C21.4362 28.2701 21.9533 27.7507 22.5443 27.3055V26.1925V25.8957H22.8398H23.5786C23.8003 25.4505 24.0958 25.0795 24.3913 24.7827L24.3174 24.7085C21.2884 25.3763 21.6578 28.1959 19.6631 28.5668C20.1064 28.7894 20.4757 28.8636 20.9929 28.8636Z" fill="#FFE000"/>
<path d="M24.4648 24.0407C24.5387 24.1891 24.6126 24.3375 24.6865 24.4859C24.982 24.1891 25.2775 23.9665 25.6469 23.7439C25.573 23.5955 25.573 23.3729 25.573 23.1503C25.2036 23.5955 24.8342 23.8923 24.4648 24.0407Z" fill="#FFE000"/>
<path d="M31.9265 23.2246C31.9265 23.4472 31.8527 23.6698 31.8527 23.8182C32.2221 24.0408 32.5176 24.2634 32.8131 24.5602C32.887 24.4118 32.9608 24.2634 33.0347 24.115C32.5914 23.8924 32.222 23.5956 31.9265 23.2246Z" fill="#FFE000"/>
<path d="M27.7158 23.0021C27.7897 23.0021 27.9375 23.0021 28.0113 23.0021C28.0113 22.9279 27.9375 22.7795 27.9375 22.7053C27.8636 22.7795 27.7897 22.9279 27.7158 23.0021Z" fill="#FFE000"/>
<path d="M29.7105 23.0022C29.6367 22.928 29.5628 22.7796 29.4889 22.6312C29.4889 22.7796 29.415 22.8538 29.415 22.928C29.4889 23.0022 29.6367 23.0022 29.7105 23.0022Z" fill="#FFE000"/>
<path d="M33.256 22.8536C32.665 22.7052 32.0001 22.1116 31.6307 21.518C31.4829 21.8148 31.2613 22.1116 31.0397 22.3342L30.818 22.5568L30.5964 22.3342C30.1531 21.8148 29.9315 21.147 29.7838 20.4792C29.4882 21.0728 27.7891 21.0728 27.5674 20.4792C27.4935 21.0728 27.2719 21.7406 26.7548 22.3342L26.5331 22.5568L26.3115 22.3342C26.0899 22.1858 25.9421 21.889 25.7205 21.518C25.2772 22.1116 24.6123 22.7794 24.0952 22.8536L23.8735 22.9278C23.7258 23.2988 23.5041 23.6698 23.2086 24.0408C24.0213 24.1892 25.2033 23.4472 25.7943 22.3342C25.7943 22.9278 25.7943 23.2988 25.8682 23.6698C26.3115 23.4472 26.7548 23.2246 27.2719 23.1504C27.5674 22.7794 27.8629 22.26 27.9368 21.5922C28.0846 22.3342 28.1584 22.7052 28.3062 23.002C28.3801 23.002 28.9711 23.002 29.045 23.002C29.1927 22.7052 29.2666 22.26 29.4144 21.5922C29.4882 22.26 29.7838 22.7794 30.0793 23.1504C30.5964 23.2988 31.0397 23.4472 31.4829 23.6698C31.5568 23.373 31.5568 23.002 31.5568 22.3342C32.2217 23.4472 33.3299 24.1892 34.1426 24.0408C33.847 23.6698 33.6254 23.2988 33.4777 22.9278L33.256 22.8536Z" fill="#FFE000"/>
<path d="M33.6261 42.739H34.6604V41.4776C36.8029 39.8452 38.2066 37.3224 38.2066 34.4287C38.2066 31.6091 36.8029 29.0121 34.6604 27.3798V26.1184H33.6261C32.7396 24.4118 30.9665 23.2246 28.898 23.2246H28.5286C26.46 23.2246 24.6869 24.4118 23.8004 26.1184H22.84V27.3798C20.6975 29.0121 19.2938 31.5349 19.2938 34.4287C19.2938 37.2482 20.6975 39.8452 22.84 41.4776V42.739H23.8004C24.6869 44.4456 26.46 45.6327 28.5286 45.6327H28.898C30.9665 45.6327 32.7396 44.4456 33.6261 42.739ZM28.898 45.1875H28.5286C26.6816 45.1875 25.0563 44.1488 24.1698 42.5164L24.022 42.2938H23.2094V41.3292L23.0616 41.1808C20.9191 39.5484 19.7371 37.0998 19.7371 34.5029C19.7371 31.9059 20.993 29.4573 23.0616 27.825L23.2094 27.6766V26.6378H24.022L24.1698 26.4152C25.0563 24.7828 26.6816 23.744 28.5286 23.744H28.898C30.7449 23.744 32.3702 24.7828 33.2567 26.4152L33.4045 26.6378H34.2172V27.6024L34.3649 27.7508C36.5074 29.3831 37.6894 31.8317 37.6894 34.4287C37.6894 37.0256 36.4335 39.4742 34.3649 41.1066L34.2172 41.255V42.2196H33.4045L33.2567 42.4422C32.3702 44.1488 30.7449 45.1875 28.898 45.1875Z" fill="#FFE000"/>
<path d="M33.4037 15.5078C32.665 16.3982 32.2217 17.2144 32.3694 18.1048C32.7388 17.5112 33.256 16.9918 34.0686 16.5466C34.0686 16.5466 34.438 16.0272 34.7335 15.953C33.5515 17.437 33.7731 18.6984 33.9948 19.1436C34.438 17.8822 35.4723 17.2144 35.9156 16.9918C36.876 16.5466 36.3588 14.84 37.7625 14.0239C36.9499 13.8755 36.2111 13.8755 35.5462 14.3948C34.9552 14.84 33.9209 15.3594 32.665 14.6916C32.1478 15.5078 31.0396 16.6208 30.0792 16.7692C30.8919 16.9176 32.2217 16.8434 33.4037 15.5078ZM37.0238 14.0981C36.4327 14.9142 35.9895 14.5432 35.6939 14.3948C36.3588 14.0981 36.7282 14.1723 37.0238 14.0981Z" fill="#FFE000"/>
<path d="M41.826 58.0983L41.3827 58.5435L41.826 57.1337C41.826 57.1337 40.3485 57.2821 40.9395 58.5435L41.0134 58.7661C41.1611 59.137 41.5305 59.508 41.826 59.6564L42.0476 59.8048C42.3432 59.9532 42.4909 59.8048 42.3432 59.4338L41.826 58.0983Z" fill="#FFE000"/>
<path d="M48.5492 56.3172L48.3276 56.243C48.0321 56.0946 47.7366 56.243 47.5888 56.5398L46.7762 58.2464L47.4411 58.3948L46.6284 58.5432L46.3329 59.2852C46.3329 59.2852 47.1455 59.4336 47.7366 58.469C47.8843 58.2464 48.1798 58.3948 48.2537 58.2464L48.7709 57.0592C48.9186 56.7624 48.8447 56.4656 48.5492 56.3172Z" fill="#FFE000"/>
<path d="M44.7814 55.3529C44.9291 55.0561 44.7814 54.7593 44.4859 54.6109L44.2642 54.4625C43.9687 54.3141 43.6732 54.4625 43.5255 54.7593L43.0822 55.6497C42.9344 55.9465 43.23 56.0949 43.0822 56.3917C42.8606 57.1337 43.4516 58.0241 43.4516 58.0241L43.7471 57.2821L43.821 57.1337L43.3777 56.0949L44.0426 56.7627L44.7814 55.3529Z" fill="#FFE000"/>
<path d="M46.7763 56.0945C46.8502 55.8719 46.7763 55.5751 46.5547 55.5009L46.1853 55.3525C45.9637 55.2783 45.6681 55.3525 45.5943 55.5751L44.7816 57.4301C44.4861 58.0979 44.7816 59.0625 44.7816 59.0625C45.2249 58.7657 45.5943 58.4689 45.8159 57.8753L45.2249 57.8011L46.2592 57.4301L46.7763 56.0945Z" fill="#FFE000"/>
</svg>
