<svg width="59" height="62" viewBox="0 0 59 62" fill="none" xmlns="http://www.w3.org/2000/svg">
<path fill-rule="evenodd" clip-rule="evenodd" d="M5.60783 13.7038L18.0703 3.7666C24.3773 -1.26255 34.6971 -1.26255 41.004 3.7666L53.4665 13.7038C59.309 18.3626 59.7384 25.7675 54.7558 30.8305C54.3598 30.4283 53.9307 30.0407 53.4665 29.6703L41.004 19.7328C34.6971 14.7036 24.3773 14.7036 18.0703 19.7328L5.60783 29.6703C5.14356 30.0407 4.71423 30.4283 4.31852 30.8305C-0.663927 25.7678 -0.234154 18.3623 5.60783 13.7038Z" fill="url(#paint0_linear_1_11638)"/>
<path fill-rule="evenodd" clip-rule="evenodd" d="M54.7558 30.8305C59.7382 35.8938 59.3085 43.299 53.4666 47.9575L41.0041 57.8947C34.6972 62.9241 24.3774 62.9241 18.0704 57.8947L5.60791 47.9575C-0.234632 43.2983 -0.664179 35.8938 4.31861 30.8305C4.71431 31.233 5.14364 31.6206 5.60791 31.991L18.0704 41.9284C24.3774 46.9576 34.6972 46.9576 41.0041 41.9284L53.4666 31.991C53.9307 31.6206 54.3599 31.233 54.7558 30.8305Z" fill="url(#paint1_linear_1_11638)"/>
<path fill-rule="evenodd" clip-rule="evenodd" d="M29.6199 22.3011C30.4657 22.3011 31.2819 22.4241 32.0542 22.6539C30.6981 23.3422 29.7688 24.7505 29.7688 26.3755C29.7688 28.6792 31.6365 30.5468 33.9399 30.5468C35.6108 30.5468 37.0526 29.5642 37.7182 28.1453C37.9979 28.9904 38.1494 29.8927 38.1494 30.8308C38.1494 35.5415 34.3307 39.3606 29.6199 39.3606C24.909 39.3606 21.0901 35.5415 21.0901 30.8308C21.0901 26.1201 24.909 22.3011 29.6199 22.3011Z" fill="#242E63"/>
<defs>
<linearGradient id="paint0_linear_1_11638" x1="28.4476" y1="31.4361" x2="32.1048" y2="2.60786" gradientUnits="userSpaceOnUse">
<stop stop-color="#50AAE3"/>
<stop offset="1" stop-color="#60CBE8"/>
</linearGradient>
<linearGradient id="paint1_linear_1_11638" x1="29.1312" y1="30.659" x2="30.62" y2="60.5754" gradientUnits="userSpaceOnUse">
<stop stop-color="#F25879"/>
<stop offset="1" stop-color="#F9AE2F"/>
</linearGradient>
</defs>
</svg>
