<svg width="54" height="65" viewBox="0 0 54 65" fill="none" xmlns="http://www.w3.org/2000/svg">
<path d="M53.2786 51.2933L53.2642 51.3786V51.6203L53.2498 51.8336V51.9473L53.2209 52.1606L53.2065 52.2744L53.1632 52.4876L53.1488 52.6014C52.917 53.6806 52.4061 54.6824 51.6657 55.5095C50.9253 56.3366 49.9806 56.961 48.9233 57.3219C48.2882 57.5404 47.6202 57.651 46.9475 57.6489H40.602L39.9819 57.6632C37.0668 57.7208 34.1912 58.339 31.5164 59.4831C30.7377 59.8386 30.0166 60.2509 29.382 60.7201L29.1369 60.905L28.9926 61.0187C28.9605 61.0382 28.9313 61.0621 28.9061 61.0898L28.4446 61.4879C28.1418 61.7581 27.8678 62.0567 27.5937 62.3695C27.5745 62.3969 27.5485 62.419 27.5183 62.4339C27.488 62.4488 27.4545 62.456 27.4207 62.4548C27.3962 62.4549 27.372 62.4499 27.3496 62.4401C27.3272 62.4303 27.3072 62.4159 27.2909 62.3979L27.2621 62.3837C26.1819 61.1493 24.8438 60.1598 23.3394 59.4831C22.5895 59.1419 21.8107 58.8433 21.0319 58.6158L20.8156 58.5589L20.4262 58.4452L20.2099 58.3883L19.8205 58.2888L19.6619 58.2603L19.2148 58.1608L18.5947 58.0471C17.3679 57.8138 16.123 57.6853 14.8739 57.6632L14.2538 57.6489H7.85058L7.57656 57.6347H7.56214L7.24487 57.6063C6.13569 57.4629 5.08244 57.0412 4.186 56.3814C3.28956 55.7217 2.57997 54.8461 2.1252 53.8384C1.77692 53.0296 1.60495 52.1576 1.62044 51.2791L1.5916 1.55706C1.5916 1.358 1.76466 1.18738 1.96656 1.18738H52.9181C53.12 1.18738 53.293 1.358 53.293 1.55706L53.2786 51.2933ZM0.942627 0.547546V51.3644C0.944519 52.2793 1.12918 53.1849 1.48606 54.0295C1.84293 54.874 2.36504 55.641 3.02258 56.2867C3.68011 56.9323 4.46018 57.4439 5.31827 57.7923C6.17635 58.1407 7.09564 58.3191 8.02363 58.3172H14.1672C15.0325 58.3172 17.3111 58.3741 19.7484 58.9571C23.5413 59.867 26.1949 61.6586 27.4351 64.1468C28.6465 61.6586 31.2857 59.867 35.093 58.9571C37.5447 58.3741 39.8521 58.3172 40.7318 58.3172H46.861C47.789 58.3191 48.7083 58.1407 49.5664 57.7923C50.4245 57.4439 51.2045 56.9323 51.8621 56.2867C52.5196 55.641 53.0417 54.874 53.3986 54.0295C53.7555 53.1849 53.9401 52.2793 53.942 51.3644V0.547546H0.942627Z" fill="#F5E57F"/>
<path d="M17.1381 17.0267V16.7992C17.1525 16.6428 17.1381 16.4864 17.1237 16.2732L17.066 15.7471L17.0371 15.4769L16.9794 15.221L16.8785 14.7091L16.7343 14.183L16.6622 13.9413L16.6477 13.8845L16.5756 13.6854C16.5219 13.5164 16.4593 13.3503 16.3882 13.1878L16.1863 12.7043L15.9411 12.2351C15.9058 12.1551 15.8623 12.0789 15.8113 12.0076L15.6815 11.7943L15.6527 11.7517L15.4796 11.5242C15.3467 11.3363 15.1918 11.1645 15.0181 11.0123L14.9893 10.9839L14.8306 10.8559L14.7297 10.7706L14.672 10.7422C14.6487 10.7223 14.6246 10.7034 14.5999 10.6853L14.5278 10.6426L14.4268 10.6C14.3691 10.5573 14.3115 10.5431 14.2538 10.5289L14.1961 10.5005L14.2249 10.6426L14.2538 10.9555L14.2682 11.0408L14.2826 11.2683L14.3259 11.8939V12.5195L14.3115 12.8465L14.297 13.0456L14.2826 13.1593L14.2393 13.4721L14.2249 13.5717L14.1817 13.7991L14.1672 13.8987L14.1096 14.112L14.0951 14.1688L14.023 14.4248L13.9076 14.7376L13.8355 14.9366L13.7779 15.0362C13.7346 15.1641 13.6192 15.2352 13.475 15.2352L13.3596 15.221C13.2269 15.1708 13.097 15.1138 12.9702 15.0504C12.8404 15.0077 12.7251 14.9366 12.5953 14.8655L12.2347 14.6665L11.8886 14.439C11.5713 14.1973 11.2397 13.9413 10.8647 13.6001L10.8214 13.6285L10.7926 13.657L10.6195 13.8134L10.5763 13.8418L10.5186 13.8987L10.3167 14.1262L10.259 14.1973L10.2013 14.2826L10.0715 14.4816L10.0282 14.5669L9.92728 14.7376C9.84076 14.9082 9.78307 15.093 9.72538 15.3063L9.69654 15.4058L9.65328 15.5907L9.63885 15.7044L9.61001 15.8893V16.003L9.59559 16.1879V16.4864L9.62443 16.7992L9.6677 17.0978L9.69654 17.2827C9.71142 17.3191 9.72112 17.3574 9.72538 17.3964L9.76865 17.5813L9.81191 17.695C9.8696 17.9083 9.92728 18.1073 9.99939 18.278L10.1148 18.5481L10.1869 18.7187L10.3311 18.9889L10.4032 19.1311L10.5618 19.4012L10.7349 19.6572L10.7782 19.714L10.9224 19.9131L10.9656 19.97L11.1099 20.1548L11.1387 20.1975L11.3118 20.3965L11.5425 20.624L11.7732 20.8231C11.9175 20.951 12.0761 21.0648 12.278 21.1928L12.5664 21.3207L17.0371 17.0978C17.0645 17.0664 17.0991 17.042 17.1381 17.0267Z" fill="#F5E57F"/>
<path d="M10.461 48.1083L11.0667 47.2268L11.0378 47.113C10.9356 46.8384 10.8489 46.5583 10.7782 46.2742C10.6705 45.8516 10.6315 45.4149 10.6629 44.9803C10.7099 44.443 10.9564 43.9418 11.3551 43.5726C11.5714 43.402 11.8022 43.2456 12.0473 43.1461L12.1916 43.075L12.3935 43.0039L12.5233 42.9613L12.754 42.9044L12.8838 42.8759L13.1145 42.8333L13.4462 42.7764L13.576 42.7622L14.0664 42.7195H14.1529L14.3404 42.7053H15.047L15.0182 42.6058L14.874 41.9091L14.8451 41.7811L14.4846 41.8096L14.0519 41.838L13.9366 41.8522L13.403 41.9091L12.9703 41.9802L12.8261 41.9944L12.754 42.0086L12.6242 42.037L12.1771 42.1366L11.9608 42.1934L11.8743 42.2077L11.3984 42.3641L11.0667 42.5063L10.9657 42.5489L10.6484 42.7337C10.3725 42.8939 10.1361 43.1124 9.95621 43.3736C9.78315 43.6153 9.66778 43.9139 9.62452 44.2267C9.58125 44.5111 9.58125 44.8239 9.62452 45.1793C9.69667 45.7422 9.8321 46.2954 10.0283 46.8287L10.0427 46.8713L10.3456 47.7955L10.461 48.1083Z" fill="#F5E57F"/>
<path d="M22.7048 34.288L22.7192 34.3306L22.7491 34.3341L23.4547 34.4159L25.0123 32.6529L24.2479 31.8282L22.5974 33.7921L22.575 33.8188L22.6616 34.1458L22.7048 34.288Z" fill="#F5E57F"/>
<path d="M22.4885 25.1313L22.4308 25.1739L22.3443 25.2166L22.2289 25.2877L22.1424 25.3445L21.8539 25.572V25.5862C21.753 25.6573 21.6809 25.7569 21.5944 25.8564L21.5223 25.9417C21.4869 25.9797 21.4577 26.0229 21.4357 26.0697L21.378 26.1408L21.3636 26.1834C21.3348 26.2119 21.3204 26.2261 21.3204 26.2545L21.2482 26.354L21.205 26.4536L21.1329 26.5958L21.0999 26.6747L21.0319 26.8375C20.9079 27.183 20.8209 27.5404 20.7723 27.9039C20.6671 28.6866 20.6574 29.4791 20.7435 30.2641C20.9581 31.9086 21.32 33.5311 21.8251 35.1126C22.0876 35.8912 22.3043 36.684 22.4741 37.4871C22.5606 37.871 22.6183 38.2691 22.6327 38.6672C22.6616 39.1365 22.6183 39.5061 22.5173 39.8474C22.402 40.2313 22.1424 40.5725 21.8395 40.8C21.5371 40.998 21.1995 41.1379 20.8444 41.2123C20.2611 41.332 19.6664 41.3892 19.0706 41.383H19.0562L18.1764 41.3972H17.784H16.8064C16.868 41.8612 16.9257 42.3257 16.9794 42.7906L17.0997 42.7943L17.4409 42.8048H17.9601C18.436 42.8048 18.8831 42.7906 19.3446 42.7622C19.7628 42.7337 20.4118 42.6768 21.104 42.5204L21.2627 42.492L21.3348 42.4636L21.4213 42.4494L21.5799 42.4067L21.7097 42.3498C21.8256 42.3221 21.9372 42.279 22.0414 42.2219C22.402 42.0655 22.676 41.8948 22.9067 41.6816C23.1519 41.4398 23.3538 41.1413 23.4836 40.8C23.599 40.4872 23.6711 40.1175 23.6999 39.691C23.7213 38.8744 23.6438 38.0581 23.4692 37.2596C23.325 36.5345 23.1375 35.7524 22.8635 34.7429L22.7491 34.3341L22.5974 33.7921L22.5173 33.5059L22.4885 33.4206L22.1568 32.2547C21.9549 31.5153 21.7386 30.6338 21.652 29.738C21.6172 29.3164 21.6269 28.8923 21.6809 28.4726C21.7386 28.0034 21.8828 27.6053 22.0991 27.2782C22.3299 26.9228 22.6616 26.6384 23.0509 26.4678C23.3826 26.3114 23.7576 26.2261 24.1614 26.1976L24.5796 26.1834C25.1277 26.1834 25.6324 26.2545 26.0506 26.3398C26.6679 26.4552 27.2754 26.6169 27.8678 26.8232L27.5505 26.1976C27.4746 26.0644 27.4072 25.9267 27.3486 25.7853L27.2909 25.6573L27.0457 25.1028L26.4544 24.9606L26.166 24.9038L25.9785 24.8611C25.5492 24.788 25.1157 24.7405 24.6806 24.7189H24.5364C23.927 24.7121 23.3212 24.8132 22.7481 25.0175L22.6844 25.0489L22.6327 25.0744C22.5816 25.0846 22.5327 25.1039 22.4885 25.1313Z" fill="#F5E57F"/>
<path d="M13.9221 22.771L19.7772 28.0318L21.0999 26.6747L22.6844 25.0489L22.9644 24.7616L17.888 19.0315L13.9221 22.771Z" fill="#F5E57F"/>
<path d="M23.4836 27.5626C23.1952 27.6906 22.95 27.8897 22.7769 28.1598C22.6904 28.2736 22.6327 28.4015 22.575 28.5437L28.0985 34.2453C28.4014 34.1884 28.6465 34.1031 28.8773 34.0036L29.108 33.8756L23.498 27.5626H23.4836Z" fill="#F5E57F"/>
<path d="M6.72569 17.6239L6.74011 17.7234V17.7803L6.75453 17.8514L6.78337 18.1073L6.81222 18.2069L6.85548 18.4344C6.91317 18.6477 6.97086 18.8467 7.07181 19.0742L7.11507 19.188L7.2016 19.387L7.25929 19.4865L7.36024 19.6856L7.41793 19.7851L7.5333 19.97L7.60541 20.0695L7.7352 20.2401L7.80731 20.3396L7.9371 20.5103L8.02363 20.6098L8.16785 20.7662L8.25438 20.8515L8.41302 20.9937L8.51397 21.079L8.67261 21.2212C8.70955 21.24 8.74355 21.2639 8.77356 21.2923L8.94662 21.4203L9.06199 21.4913L9.23505 21.6051L9.85518 21.9037L9.95613 21.9321L10.1725 22.0174L10.2157 22.0316L10.5042 22.1027L10.6772 22.1312L10.7782 22.1454L11.0089 22.1738H11.2541C11.4416 22.1738 11.629 22.1596 11.8454 22.117L11.9752 22.0885L12.1771 22.0316L12.379 21.9606C12.4183 21.9487 12.4568 21.9345 12.4943 21.9179L12.6818 21.8184L12.7828 21.7757C12.4755 21.6382 12.1852 21.4664 11.9175 21.2638L11.7877 21.1501L11.6723 21.0364C11.5713 20.9653 11.4992 20.88 11.4271 20.8089L11.2252 20.5956L11.1964 20.5671L11.0233 20.3681L10.9801 20.3112L10.8214 20.0979L10.7782 20.0411L10.6195 19.8136L10.5907 19.7709L10.4032 19.4865L10.3167 19.3586L10.158 19.06L10.0715 18.8894L9.94171 18.605C9.8696 18.4202 9.78307 18.2211 9.71096 17.9794L9.68212 17.8656L9.62443 17.6666C9.60955 17.6301 9.59985 17.5919 9.59559 17.5528L9.5379 17.3396L9.48021 17.0125L9.42253 16.33L9.43695 16.1025V15.9888L9.48021 15.6476C9.48021 15.5622 9.49464 15.4911 9.52348 15.4201L9.5379 15.3063C9.59559 15.0646 9.6677 14.8513 9.76865 14.638L9.8696 14.4105C9.88715 14.3888 9.90171 14.3649 9.91287 14.3395L10.0715 14.0693L10.1436 13.984L10.2013 13.8845L10.432 13.6143L10.5186 13.529L10.5474 13.4863L10.7349 13.3157L10.7926 13.2731L11.081 13.0314C11.139 12.9872 11.2097 12.9623 11.2829 12.9603C11.323 12.9589 11.363 12.9657 11.4002 12.9804C11.4375 12.9951 11.4712 13.0173 11.4992 13.0456L11.5137 13.0598C11.9744 13.4935 12.4713 13.8882 12.9991 14.2399L13.3164 14.4248C13.4432 14.4827 13.5682 14.5443 13.6913 14.6096C13.7239 14.5318 13.7481 14.4507 13.7634 14.3679L13.8355 14.1546L13.85 14.0977L13.8932 13.9129L13.9076 13.8134L13.9509 13.6143L13.9653 13.529L13.9942 13.2304L14.0086 13.1309L14.023 12.946L14.0519 12.3489L14.0374 12.0503L14.0086 11.4673L13.9798 11.254V11.1687L13.9221 10.7706L13.9076 10.5716L13.85 10.2587C13.8375 10.174 13.8592 10.0879 13.9104 10.0187C13.9616 9.94962 14.0383 9.90307 14.124 9.88907H14.2249L14.3259 9.90329L14.5422 9.94594L14.6864 9.9886L14.7729 10.017L14.8883 10.0597L15.1335 10.1734L15.2633 10.2445L15.4363 10.3583L15.5229 10.4294L15.6382 10.5147L15.8546 10.728C16.0425 10.9152 16.2115 11.1199 16.3593 11.3394L16.4026 11.3962L16.5324 11.6095L16.5612 11.6379L16.7054 11.8797L16.8352 12.1356L17.066 12.6332L17.1669 12.8892L17.2679 13.1593L17.4409 13.6854L17.4986 13.8987L17.5131 13.9556L17.5852 14.2115L17.7005 14.7518L17.8015 15.2921L17.8447 15.5622L17.8736 15.8466L17.9024 16.4011V16.9414L18.0899 16.6855C18.263 16.4296 18.4072 16.1736 18.5081 15.9319C18.7389 15.3916 18.8543 14.8229 18.811 14.2684C18.7743 13.6993 18.6223 13.1433 18.3639 12.6332C18.1083 12.1074 17.7939 11.6114 17.4265 11.1545C16.54 10.0501 15.5342 9.04418 14.4268 8.15442C13.9147 7.69798 13.4146 7.22862 12.927 6.74679C12.8127 6.63594 12.7067 6.51715 12.6097 6.39132L12.4943 6.23492C12.3934 6.29179 12.2924 6.34867 12.2203 6.41976C12.0761 6.56195 11.9463 6.71835 11.8598 6.91741C11.7011 7.25865 11.6146 7.67099 11.6002 8.23973C11.5858 8.72315 11.629 9.20658 11.6579 9.69001L11.6723 9.77532L11.7011 10.4578C11.7156 10.5858 11.7011 10.728 11.6867 10.8844C11.6723 10.9555 11.6579 11.0408 11.6146 11.1403C11.5611 11.2681 11.4642 11.3736 11.3406 11.4389L11.3262 11.4531C11.2947 11.4689 11.2604 11.4786 11.2252 11.4815H11.1531L11.0089 11.4958H10.9656L10.7637 11.4815L10.7349 11.4673L10.6484 11.4531L10.5474 11.4389L10.4032 11.382L10.3455 11.3536C10.2729 11.332 10.2046 11.2983 10.1436 11.254L10.0859 11.2256L9.91287 11.1119L9.79749 11.0265L9.76865 10.9981L9.63885 10.8844L9.46579 10.7137L9.37926 10.6142C9.28869 10.5272 9.20661 10.432 9.1341 10.3298L9.11967 10.3156L8.90335 10.0455L8.87451 10.0597L8.64376 10.3298C8.60504 10.3786 8.57123 10.431 8.54281 10.4862L8.51397 10.5147L8.48512 10.5716L8.39859 10.728L8.36975 10.8133L8.29764 10.9839L8.28322 11.0123L8.23996 11.1545L8.22553 11.2114L8.18227 11.3394L8.11016 11.7233V11.7943L8.09574 11.9081L8.0669 12.3062L8.08132 12.5053L8.09574 12.9034L8.12458 13.3015L8.18227 13.6996L8.25438 14.0977L8.41302 14.9082L8.44186 15.0219C8.48513 15.2494 8.54281 15.4911 8.57166 15.7471C8.58097 15.8059 8.57379 15.8662 8.55092 15.9213C8.52805 15.9764 8.49034 16.0243 8.44186 16.0599L8.23996 16.2021C8.15888 16.2511 8.0716 16.2893 7.98037 16.3158C7.88987 16.3579 7.79187 16.3821 7.69194 16.3869L7.57656 16.4011H7.49004L7.37466 16.3869L7.34582 16.3727L7.24487 16.3585L7.21602 16.3443L7.11507 16.3158L6.98528 16.2732L6.95643 16.2589L6.88433 16.2305L6.84106 16.2163L6.81222 16.3585L6.78337 16.4722L6.75453 16.6855L6.74011 16.7992L6.72569 17.1121L6.71127 17.2969V17.4533L6.72569 17.6239Z" fill="#F5E57F"/>
<path d="M29.209 27.8186L28.9205 27.7048L28.5023 27.5626L26.9015 29.4537L27.7091 30.2926L29.483 28.302L29.2522 27.8897L29.209 27.8186Z" fill="#F5E57F"/>
<path d="M15.523 43.4305L15.4797 43.2314L15.0615 43.203H14.9029L9.69668 50.3975L9.68227 50.4117L9.65342 50.4544C9.55247 50.625 9.58131 50.8667 9.73995 50.9947C9.81206 51.0658 9.91301 51.1084 10.014 51.1227H10.0572C10.1438 51.1227 10.2303 51.0942 10.3024 51.0516L10.3601 51.0089H10.3745L10.3889 50.9947L10.4178 50.952L10.4466 50.9236L15.5951 43.8001L15.523 43.4305Z" fill="#F5E57F"/>
<path d="M21.7674 36.6625L21.6232 36.1932L21.1473 36.1222L20.9598 36.0937L16.8116 41.0071L16.8064 41.0133L16.8929 41.5963L17.6284 41.5821L17.784 41.3972L21.7674 36.6625Z" fill="#F5E57F"/>
<path d="M28.4735 25.4867L28.5456 25.6147L28.7331 26.0128L29.0071 26.5247L29.1513 26.7948L29.3388 27.1219L29.4397 27.1503L29.4109 27.2214L29.6128 27.5626C30.0743 28.3589 30.4204 29.0698 30.68 29.7381C30.8386 30.1504 30.954 30.5343 31.0261 30.904C31.1126 31.3305 31.1415 31.7429 31.0982 32.1125C31.0549 32.5675 30.8963 32.9657 30.6655 33.2785C30.4348 33.577 30.1175 33.833 29.7281 34.0178C29.4253 34.16 29.0792 34.2738 28.6754 34.3448C28.3517 34.4062 28.024 34.4442 27.6947 34.4586L27.0457 34.4728C26.2648 34.4717 25.4846 34.4242 24.7094 34.3306L24.0172 34.2595L24.1181 34.6434L24.2768 35.2406L24.421 35.2548L25.2575 35.3259L26.5554 35.3686H26.6852C27.2332 35.3686 27.738 35.3544 28.2283 35.2975C28.8803 35.2414 29.5238 35.1127 30.1464 34.9136C30.4925 34.7998 30.8098 34.6577 31.0982 34.5013C31.5614 34.2326 31.9561 33.863 32.2519 33.4206C32.5355 32.9417 32.6848 32.397 32.6846 31.8424C32.699 31.4869 32.6702 31.103 32.598 30.6907C32.3635 29.5048 31.9297 28.3659 31.3145 27.3209C31.1887 27.0728 31.0552 26.8321 30.903 26.5717C30.8459 26.474 30.7862 26.3735 30.7232 26.2688L30.6079 26.0839L30.4204 25.7711L30.305 25.5863L30.1973 25.3984L30.1175 25.2592C29.7421 24.5923 29.4561 23.8802 29.2667 23.1407C29.1921 22.7853 29.1582 22.4229 29.1657 22.0601C29.1768 21.5867 29.3047 21.123 29.5384 20.7093C29.7721 20.2956 30.1045 19.9442 30.5069 19.6856C30.9684 19.3728 31.401 19.2022 31.7327 19.0884L31.8783 19.0481L32.5548 18.8609L32.5259 18.7898L32.4827 18.6476L32.4683 18.605V18.5481C32.4518 18.5023 32.4421 18.4544 32.4394 18.4059L32.425 18.2069V18.15C32.3043 17.9913 32.1458 17.8643 31.9635 17.7803C31.7933 17.7023 31.6141 17.645 31.4299 17.6097L31.1415 17.7519L30.9948 17.8267L30.7232 17.9652C30.4636 18.1073 30.0887 18.3206 29.656 18.6192C29.1657 18.9747 28.7907 19.3159 28.4879 19.6856L28.286 19.9415C28.2669 19.978 28.2426 20.0115 28.2139 20.0411L28.1706 20.1264L27.9975 20.425C27.6985 21.01 27.5593 21.6618 27.5937 22.316C27.6468 23.4239 27.9471 24.5065 28.4735 25.4867Z" fill="#F5E57F"/>
<path d="M17.1381 43.0323L17.0997 42.7943L16.8116 41.0071L16.792 40.8853L16.7775 40.7858C16.6622 40.1175 16.5468 39.4351 16.4891 38.7668C16.4638 38.4116 16.4686 38.0549 16.5035 37.7004C16.5612 37.2881 16.6766 36.9326 16.8641 36.6625C17.1092 36.307 17.4554 36.0937 17.7005 35.98C18.0178 35.8378 18.3495 35.7667 18.6235 35.724C18.9696 35.6672 19.3157 35.6529 19.7196 35.6529H20.2099L21.4069 35.7525L21.8395 35.8094L21.9982 35.8236L21.6665 34.743H21.5799L20.9021 34.7003L20.3974 34.6861L20.1089 34.6719H19.734C19.2292 34.6719 18.7966 34.7003 18.3783 34.743C17.9313 34.7998 17.34 34.8852 16.7775 35.1411C16.5035 35.2548 16.2584 35.4255 16.042 35.6103C15.8401 35.7951 15.6671 36.0511 15.5229 36.3354L15.4219 36.5487L15.3498 36.7762L15.3065 36.9326L15.2921 37.0037L15.2777 37.089C15.2613 37.1348 15.2516 37.1827 15.2489 37.2312L15.2344 37.3165L15.1767 37.7146V37.8142L15.1623 37.9706V38.2265C15.1479 38.8094 15.1912 39.4493 15.3065 40.2597C15.3931 40.8569 15.5084 41.511 15.6671 42.2788L15.7248 42.5916L15.869 43.2741C16.1454 44.203 16.2957 45.164 16.3161 46.132V46.587L16.3016 46.7434V46.8145L16.2728 47.0277C16.2295 47.3405 16.1574 47.6107 16.0565 47.8524C15.9411 48.1226 15.7969 48.35 15.6238 48.5491C15.4508 48.7197 15.2633 48.8761 15.0325 48.9899C14.6143 49.2032 14.1961 49.2458 13.8788 49.26H13.6769L13.1433 49.2458L13.0568 49.2316L12.4799 50.0705L13.1577 50.1558C13.475 50.1984 13.8644 50.2553 14.3115 50.2695H14.398L14.5855 50.2838H14.6576L14.8306 50.2695H15.0181C15.321 50.2411 15.5373 50.1984 15.7536 50.1274C16.0164 50.0523 16.2596 49.922 16.4662 49.7452C16.6729 49.5684 16.8382 49.3495 16.9506 49.1036C17.0804 48.8335 17.1813 48.5491 17.239 48.2363C17.322 47.9365 17.3519 47.6105 17.3797 47.3085C17.3809 47.2955 17.3821 47.2824 17.3833 47.2694C17.4265 46.6581 17.4265 45.9756 17.3688 45.1936C17.3256 44.5253 17.239 43.8144 17.1381 43.0323Z" fill="#F5E57F"/>
<path d="M38.0494 23.2971L37.9917 23.3113L37.7898 23.3255L37.6889 23.3398L37.5879 23.3255H37.5302L37.3716 23.3113L37.3139 23.2971V23.3682C37.2851 23.6383 37.2562 23.9796 37.1553 24.4061C37.0255 24.9464 36.838 25.4156 36.5928 25.7995C36.347 26.1808 36.0144 26.5001 35.6213 26.7322C35.2282 26.9642 34.7855 27.1025 34.3286 27.1361L34.17 27.1503H34.1123L33.896 27.1645H33.7374L33.4633 27.1503L33.3191 27.1361L33.0595 27.1076L32.6702 27.0508L32.5115 27.0223C32.331 26.9852 32.1528 26.9377 31.9779 26.8801L31.6751 26.8091L31.228 26.6527L31.7472 27.5484L32.1942 28.4157L32.5259 28.4868L32.6557 28.5011L32.9874 28.5579L33.5787 28.6148H34.2854L34.545 28.5864H34.6603L34.7613 28.5721L35.0497 28.5153C35.5989 28.4209 36.1148 28.191 36.5496 27.847C37.0024 27.5063 37.3885 27.0872 37.6889 26.61L38.0783 25.9275C38.2817 25.5398 38.4506 25.1355 38.583 24.7189L38.6984 24.4061L38.7416 24.2782L38.7561 24.2071C38.6912 24.0195 38.5989 23.8422 38.4821 23.681C38.3712 23.5206 38.2228 23.389 38.0494 23.2971Z" fill="#F5E57F"/>
<path d="M29.7858 36.4918L45.2891 51.6487C45.3612 51.7056 45.4477 51.7483 45.5342 51.7483C45.6352 51.7483 45.7217 51.7056 45.7794 51.6487C45.8412 51.583 45.8756 51.4967 45.8756 51.407C45.8756 51.3174 45.8412 51.231 45.7794 51.1653L30.6944 36.0937C30.406 36.2501 30.1031 36.3781 29.7858 36.4918Z" fill="#F5E57F"/>
<path d="M29.8147 25.9275L30.0022 26.2545L30.1031 26.4252L30.132 26.4678L30.6079 26.6527L30.7809 26.7095L30.903 26.5717L36.737 19.9842L36.5928 19.8278C36.4775 19.6856 36.3477 19.5718 36.2034 19.4581C36.0689 19.3414 35.9241 19.2367 35.7708 19.1453L35.5833 19.0315L30.1973 25.3984L29.7858 25.8849L29.8147 25.9275Z" fill="#F5E57F"/>
<path d="M31.0838 17.8656C31.4155 18.0363 31.7039 18.278 31.877 18.5623V18.5766C31.9202 18.6477 31.9346 18.7187 31.9202 18.7898L31.9058 18.8467L31.8914 18.932L31.8783 19.0481L31.877 19.06V19.1595L31.8914 19.2022V19.2448L31.9058 19.3301L31.9347 19.4297V19.4581L31.9491 19.4865L31.9923 19.5861C32.0057 19.6266 32.0251 19.665 32.05 19.6998V19.714L32.1366 19.8278C32.2519 19.9842 32.3961 20.1122 32.5692 20.2401L32.8432 20.4107L32.8576 20.425L34.7469 18.1927L34.6748 17.9794C34.644 17.8912 34.6199 17.8009 34.6026 17.7092L34.5738 17.6097L34.545 17.4391L34.5305 17.3396L34.5017 17.1689L34.4729 16.6286V16.2732L34.4873 16.0741L34.5017 15.804L34.5161 15.6333L34.5305 15.5338L34.5594 15.2637L34.6026 15.093L34.6603 14.7376L34.7324 14.3537C34.2544 13.6629 33.7033 13.0243 33.0884 12.4484C32.7855 12.1356 32.4538 11.8228 32.1077 11.51L31.0982 10.6C30.2269 9.87984 29.3323 9.18752 28.4158 8.52409L27.8533 8.12598L27.2909 7.7563L27.1178 7.65677L27.0457 8.09754C27.0313 8.22551 27.0025 8.38191 27.0025 8.53831L26.9736 8.9933C26.9736 9.32033 27.0025 9.6047 27.0602 9.87485C27.1661 10.4542 27.4536 10.9863 27.8822 11.3962C28.0697 11.5811 28.3148 11.7517 28.6033 11.9223C28.8196 12.0503 29.0503 12.1498 29.2811 12.2636L29.4541 12.3489L29.9012 12.5906C30.031 12.6759 30.1896 12.7754 30.305 12.9318C30.3339 12.9603 30.3483 13.0029 30.3483 13.0456C30.3483 13.0882 30.3339 13.1309 30.305 13.1593C30.2681 13.188 30.2222 13.2031 30.1752 13.202H30.1175L30.1031 13.1878C29.9733 13.1309 29.8147 13.1024 29.6705 13.0598C29.3661 12.983 29.0581 12.9213 28.7475 12.8749L28.7042 12.8607L28.286 12.8039C27.9976 12.7612 27.6803 12.7185 27.3774 12.7185H27.3053L26.9592 12.7328L26.9015 12.747V12.7612L26.9592 13.0456L26.988 13.1451L27.0313 13.3157L27.0602 13.4152L27.0746 13.4721L27.1323 13.6285L27.262 13.8987L27.2765 13.9271L27.4495 14.2115L27.5072 14.2826L27.5505 14.3395L27.6082 14.4105L27.6514 14.4674L27.8822 14.6949L28.1418 14.894L28.4302 15.0788L28.5744 15.1499L28.7331 15.221L29.0503 15.349L29.3964 15.4627L30.3627 15.6902L30.8098 15.7897C30.853 15.7897 30.8963 15.8182 30.9251 15.8466C30.954 15.8893 30.9684 15.9319 30.954 15.9746C30.954 16.0599 30.8819 16.131 30.7953 16.131L30.6079 16.1594C30.3325 16.1737 30.0581 16.2022 29.7858 16.2447C29.5118 16.2874 29.1657 16.3585 28.8773 16.5149C28.7331 16.5718 28.6321 16.6571 28.56 16.7424C28.4878 16.8325 28.4428 16.941 28.4302 17.0552C28.4158 17.1689 28.4302 17.2969 28.4735 17.4391L28.5167 17.6097L28.7186 17.5955L29.1801 17.5528H29.4253C29.9632 17.5245 30.5001 17.6184 30.9948 17.8267C31.0246 17.8393 31.0543 17.8522 31.0838 17.8656Z" fill="#F5E57F"/>
<path d="M38.8426 19.6856L38.5686 19.6998L38.3811 19.714H38.0927L38.0061 19.6998L37.5735 19.6572L37.487 19.6429L35.5545 21.8184L35.5689 21.8326L35.7708 22.0743C35.9294 22.2165 36.0881 22.3445 36.2611 22.4298L36.3909 22.4866H36.4053L36.5207 22.5293L36.6361 22.5577H36.6938L36.7947 22.5719H36.9822L37.0687 22.5577L37.2851 22.4866L37.3428 22.4724L37.4437 22.4582C37.4827 22.4552 37.522 22.46 37.5591 22.4724H37.5735C37.8908 22.6004 38.1792 22.8421 38.3955 23.1407C38.583 23.3824 38.7128 23.6668 38.8282 24.0222C38.9672 24.4649 39.0449 24.924 39.0589 25.3872L39.0733 25.572L39.2608 25.6005H39.3906C39.4916 25.6005 39.5781 25.6005 39.6502 25.572C39.7625 25.5473 39.8637 25.4875 39.9386 25.4014C40.0107 25.3161 40.0829 25.2024 40.1261 25.046C40.2271 24.7474 40.2415 24.4061 40.2415 24.136L40.2127 23.3255L40.1982 23.1407C40.1838 23.0412 40.2703 22.9558 40.3569 22.9416H40.3713C40.4434 22.9416 40.5155 22.9985 40.5443 23.0696L40.703 23.4819C40.8328 23.7947 40.9482 24.0933 41.0924 24.3919L41.4385 24.9891L41.5394 25.1313L41.6404 25.2592L41.8711 25.501L42.1163 25.7284L42.3759 25.9133L42.4336 25.9417L42.5201 25.9986L42.5778 26.027L42.6787 26.0697L42.823 26.1408L42.9816 26.1834L43.0104 26.1977L43.4719 26.3114H43.5296L43.6306 26.3256L43.8036 26.3541H43.9767L44.1353 26.3683H44.2219V26.2972C44.2219 26.1692 44.2074 26.027 44.1786 25.8991C44.1353 25.6005 44.0344 25.3019 43.9478 25.0317L43.8181 24.6336L43.8036 24.591L43.645 24.1644L43.4719 23.7379L43.27 23.3255L43.2556 23.3113C43.2412 23.2829 43.2268 23.2402 43.2412 23.1976C43.2556 23.1549 43.2845 23.1123 43.3133 23.098L43.3998 23.0696L43.5008 23.098C43.6738 23.1833 43.8036 23.3255 43.9046 23.4393L44.2074 23.8232L44.3228 23.9796L44.7843 24.5768C45.0006 24.8327 45.2169 25.046 45.4333 25.2024C45.664 25.373 45.938 25.5152 46.212 25.6005C46.4716 25.6858 46.7601 25.7427 47.0773 25.7569H47.2071C47.4523 25.7569 47.7119 25.7285 47.9859 25.6858L48.433 25.6005L48.88 25.4725L49.3127 25.3303L49.1829 25.1881C49.0246 25.0312 48.8707 24.87 48.7214 24.7047L48.2455 24.2213L47.7551 23.7521C46.4209 22.5236 45.0096 21.3791 43.5296 20.3254C42.8464 19.828 42.1173 19.3948 41.352 19.0315L40.977 19.1737L40.4578 19.3444L40.1982 19.4154L40.1117 19.4439L39.9242 19.4865L39.6646 19.5576C39.5983 19.5731 39.5308 19.5826 39.4627 19.5861L39.3906 19.6003L39.2897 19.6145L39.1166 19.6429L38.8426 19.6856Z" fill="#F5E57F"/>
<path d="M35.8716 17.823L36.0735 18.0931L36.2033 18.2069L36.3331 18.3348C36.7034 18.6169 37.1499 18.7851 37.6166 18.8183H37.7032L37.9483 18.8041L38.2656 18.7187L38.5252 18.5766L38.5541 18.5481C38.4964 18.4486 38.4243 18.3491 38.381 18.2211C38.3289 18.0985 38.295 17.9693 38.28 17.8372C38.2656 17.695 38.2945 17.5528 38.3521 17.4106C38.4003 17.2844 38.4796 17.172 38.5829 17.0836C38.6631 16.9957 38.7553 16.9191 38.8569 16.8561L39.1598 16.6713C39.2189 16.6283 39.2816 16.5902 39.3472 16.5575C39.5059 16.458 39.5924 16.3585 39.6068 16.3158V16.2305C39.5982 16.1751 39.5786 16.122 39.5491 16.0741C39.4584 15.9347 39.352 15.8059 39.2319 15.6902L38.8425 15.3347L38.4098 15.0077C38.2781 14.9229 38.1379 14.8515 37.9916 14.7944L37.8474 14.766H37.833L37.7753 14.7944C37.7464 14.8087 37.6743 14.8798 37.5734 15.1357L37.5157 15.3063L37.3571 15.676C37.2994 15.7897 37.2561 15.8893 37.184 15.9746C37.1015 16.0868 36.9988 16.1831 36.8811 16.2589C36.7529 16.3313 36.6101 16.3749 36.4629 16.3869H36.3764C36.2754 16.3869 36.1745 16.3869 36.0735 16.3585L35.713 16.2447L35.6842 16.2732C35.6396 16.3589 35.6057 16.4496 35.5832 16.5433C35.5399 16.7424 35.5399 16.9699 35.5976 17.1974C35.6409 17.3964 35.7274 17.6097 35.8716 17.823Z" fill="#F5E57F"/>
<path fill-rule="evenodd" clip-rule="evenodd" d="M53.2786 51.2933L53.2642 51.3786V51.6203L53.2498 51.8336V51.9473L53.2209 52.1606L53.2065 52.2744L53.1632 52.4876L53.1488 52.6014C52.917 53.6806 52.4061 54.6824 51.6657 55.5095C50.9253 56.3366 49.9806 56.961 48.9233 57.3219C48.2882 57.5404 47.6202 57.651 46.9475 57.6489H40.602L39.9819 57.6632C37.0668 57.7208 34.1912 58.339 31.5164 59.4831C30.7377 59.8386 30.0166 60.2509 29.382 60.7201L29.1369 60.905L28.9926 61.0187C28.9605 61.0382 28.9313 61.0621 28.9061 61.0898L28.4446 61.4879C28.1418 61.7581 27.8678 62.0567 27.5937 62.3695C27.5745 62.3969 27.5485 62.419 27.5183 62.4339C27.488 62.4488 27.4545 62.456 27.4207 62.4548C27.3962 62.4549 27.372 62.4499 27.3496 62.4401C27.3272 62.4303 27.3072 62.4159 27.2909 62.3979L27.2621 62.3837C26.1819 61.1493 24.8438 60.1598 23.3394 59.4831C22.5895 59.1419 21.8107 58.8433 21.0319 58.6158L20.8156 58.5589L20.4262 58.4452L20.2099 58.3883L19.8205 58.2888L19.6619 58.2603L19.2148 58.1608L18.5947 58.0471C17.3679 57.8138 16.123 57.6853 14.8739 57.6632L14.2538 57.6489H7.85058L7.57656 57.6347H7.56214L7.24487 57.6063C6.13569 57.4629 5.08244 57.0412 4.186 56.3814C3.28956 55.7217 2.57997 54.8461 2.1252 53.8384C1.77692 53.0296 1.60495 52.1576 1.62044 51.2791L1.5916 1.55706C1.5916 1.358 1.76466 1.18738 1.96656 1.18738H52.9181C53.12 1.18738 53.293 1.358 53.293 1.55706L53.2786 51.2933ZM17.1381 16.7992V17.0267C17.0991 17.042 17.0645 17.0664 17.0371 17.0978L12.5664 21.3207L12.278 21.1928C12.0761 21.0648 11.9175 20.951 11.7732 20.8231L11.5425 20.624L11.3118 20.3965L11.1387 20.1975L11.1099 20.1548L10.9656 19.97L10.9224 19.9131L10.7782 19.714L10.7349 19.6572L10.5618 19.4012L10.4032 19.1311L10.3311 18.9889L10.1869 18.7187L10.1148 18.5481L9.99939 18.278C9.92728 18.1073 9.8696 17.9083 9.81191 17.695L9.76865 17.5813L9.72538 17.3964C9.72112 17.3574 9.71142 17.3191 9.69654 17.2827L9.6677 17.0978L9.62443 16.7992L9.59559 16.4864V16.1879L9.61001 16.003V15.8893L9.63885 15.7044L9.65328 15.5907L9.69654 15.4058L9.72538 15.3063C9.78307 15.093 9.84076 14.9082 9.92728 14.7376L10.0282 14.5669L10.0715 14.4816L10.2013 14.2826L10.259 14.1973L10.3167 14.1262L10.5186 13.8987L10.5763 13.8418L10.6195 13.8134L10.7926 13.657L10.8214 13.6285L10.8647 13.6001C11.2397 13.9413 11.5713 14.1973 11.8886 14.439L12.2347 14.6665L12.5953 14.8655C12.7251 14.9366 12.8404 15.0077 12.9702 15.0504C13.097 15.1138 13.2269 15.1708 13.3596 15.221L13.475 15.2352C13.6192 15.2352 13.7346 15.1641 13.7779 15.0362L13.8355 14.9366L13.9076 14.7376L14.023 14.4248L14.0951 14.1688L14.1096 14.112L14.1672 13.8987L14.1817 13.7991L14.2249 13.5717L14.2393 13.4721L14.2826 13.1593L14.297 13.0456L14.3115 12.8465L14.3259 12.5195V11.8939L14.2826 11.2683L14.2682 11.0408L14.2538 10.9555L14.2249 10.6426L14.1961 10.5005L14.2538 10.5289C14.3115 10.5431 14.3691 10.5573 14.4268 10.6L14.5278 10.6426L14.5999 10.6853C14.6246 10.7034 14.6487 10.7223 14.672 10.7422L14.7297 10.7706L14.8306 10.8559L14.9893 10.9839L15.0181 11.0123C15.1918 11.1645 15.3467 11.3363 15.4796 11.5242L15.6527 11.7517L15.6815 11.7943L15.8113 12.0076C15.8623 12.0789 15.9058 12.1551 15.9411 12.2351L16.1863 12.7043L16.3882 13.1878C16.4593 13.3503 16.5219 13.5164 16.5756 13.6854L16.6477 13.8845L16.6622 13.9413L16.7343 14.183L16.8785 14.7091L16.9794 15.221L17.0371 15.4769L17.066 15.7471L17.1237 16.2732C17.1381 16.4864 17.1525 16.6428 17.1381 16.7992ZM11.0667 47.2268L10.461 48.1083L10.3456 47.7955L10.0427 46.8713L10.0283 46.8287C9.8321 46.2954 9.69667 45.7422 9.62452 45.1793C9.58125 44.8239 9.58125 44.5111 9.62452 44.2267C9.66778 43.9139 9.78315 43.6153 9.95621 43.3736C10.1361 43.1124 10.3725 42.8939 10.6484 42.7337L10.9657 42.5489L11.0667 42.5063L11.3984 42.3641L11.8743 42.2077L11.9608 42.1934L12.1771 42.1366L12.6242 42.037L12.754 42.0086L12.8261 41.9944L12.9703 41.9802L13.403 41.9091L13.9366 41.8522L14.0519 41.838L14.4846 41.8096L14.8451 41.7811L14.874 41.9091L15.0182 42.6058L15.047 42.7053H14.3404L14.1529 42.7195H14.0664L13.576 42.7622L13.4462 42.7764L13.1145 42.8333L12.8838 42.8759L12.754 42.9044L12.5233 42.9613L12.3935 43.0039L12.1916 43.075L12.0473 43.1461C11.8022 43.2456 11.5714 43.402 11.3551 43.5726C10.9564 43.9418 10.7099 44.443 10.6629 44.9803C10.6315 45.4149 10.6705 45.8516 10.7782 46.2742C10.8489 46.5583 10.9356 46.8384 11.0378 47.113L11.0667 47.2268ZM23.4547 34.4159L22.7491 34.3341L22.8635 34.7429C23.1375 35.7524 23.325 36.5345 23.4692 37.2596C23.6438 38.0581 23.7213 38.8744 23.6999 39.691C23.6711 40.1175 23.599 40.4872 23.4836 40.8C23.3538 41.1413 23.1519 41.4398 22.9067 41.6816C22.676 41.8948 22.402 42.0655 22.0414 42.2219C21.9372 42.279 21.8256 42.3221 21.7097 42.3498L21.5799 42.4067L21.4213 42.4494L21.3348 42.4636L21.2627 42.492L21.104 42.5204C20.4118 42.6768 19.7628 42.7337 19.3446 42.7622C18.8831 42.7906 18.436 42.8048 17.9601 42.8048H17.4409L17.0997 42.7943L17.1381 43.0323C17.239 43.8144 17.3256 44.5253 17.3688 45.1936C17.4265 45.9756 17.4265 46.6581 17.3833 47.2694L17.3797 47.3085C17.3519 47.6105 17.322 47.9365 17.239 48.2363C17.1813 48.5491 17.0804 48.8335 16.9506 49.1036C16.8382 49.3495 16.6729 49.5684 16.4662 49.7452C16.2596 49.922 16.0164 50.0523 15.7536 50.1274C15.5373 50.1984 15.321 50.2411 15.0181 50.2695H14.8306L14.6576 50.2838H14.5855L14.398 50.2695H14.3115C13.8644 50.2553 13.475 50.1984 13.1577 50.1558L12.4799 50.0705L13.0568 49.2316L13.1433 49.2458L13.6769 49.26H13.8788C14.1961 49.2458 14.6143 49.2032 15.0325 48.9899C15.2633 48.8761 15.4508 48.7197 15.6238 48.5491C15.7969 48.35 15.9411 48.1226 16.0565 47.8524C16.1574 47.6107 16.2295 47.3405 16.2728 47.0277L16.3016 46.8145V46.7434L16.3161 46.587V46.132C16.2957 45.164 16.1454 44.203 15.869 43.2741L15.7248 42.5916L15.6671 42.2788C15.5084 41.511 15.3931 40.8569 15.3065 40.2597C15.1912 39.4493 15.1479 38.8094 15.1623 38.2265V37.9706L15.1767 37.8142V37.7146L15.2344 37.3165L15.2489 37.2312C15.2516 37.1827 15.2613 37.1348 15.2777 37.089L15.2921 37.0037L15.3065 36.9326L15.3498 36.7762L15.4219 36.5487L15.5229 36.3354C15.6671 36.0511 15.8401 35.7951 16.042 35.6103C16.2584 35.4255 16.5035 35.2548 16.7775 35.1411C17.34 34.8852 17.9313 34.7998 18.3783 34.743C18.7966 34.7003 19.2292 34.6719 19.734 34.6719H20.1089L20.3974 34.6861L20.9021 34.7003L21.5799 34.743H21.6665L21.9982 35.8236L21.8395 35.8094L21.4069 35.7525L20.2099 35.6529H19.7196C19.3157 35.6529 18.9696 35.6672 18.6235 35.724C18.3495 35.7667 18.0178 35.8378 17.7005 35.98C17.4554 36.0937 17.1092 36.307 16.8641 36.6625C16.6766 36.9326 16.5612 37.2881 16.5035 37.7004C16.4686 38.0549 16.4638 38.4116 16.4891 38.7668C16.5468 39.4351 16.6622 40.1175 16.7775 40.7858L16.792 40.8853L16.8116 41.0071L20.9598 36.0937L21.1473 36.1222L21.6232 36.1932L21.7674 36.6625L17.784 41.3972H18.1764L19.0562 41.383H19.0706C19.6664 41.3892 20.2611 41.332 20.8444 41.2123C21.1995 41.1379 21.5371 40.998 21.8395 40.8C22.1424 40.5725 22.402 40.2313 22.5173 39.8474C22.6183 39.5061 22.6616 39.1365 22.6327 38.6672C22.6183 38.2691 22.5606 37.871 22.4741 37.4871C22.3043 36.684 22.0876 35.8912 21.8251 35.1126C21.32 33.5311 20.9581 31.9086 20.7435 30.2641C20.6574 29.4791 20.6671 28.6866 20.7723 27.9039C20.8209 27.5404 20.9079 27.183 21.0319 26.8375L21.0999 26.6747L19.7772 28.0318L13.9221 22.771L17.888 19.0315L22.9644 24.7616L22.6844 25.0489L22.7481 25.0175C23.3212 24.8132 23.927 24.7121 24.5364 24.7189H24.6806C25.1157 24.7405 25.5492 24.788 25.9785 24.8611L26.166 24.9038L26.4544 24.9606L27.0457 25.1028L27.2909 25.6573L27.3486 25.7853C27.4072 25.9267 27.4746 26.0644 27.5505 26.1976L27.8678 26.8232C27.2754 26.6169 26.6679 26.4552 26.0506 26.3398C25.6324 26.2545 25.1277 26.1834 24.5796 26.1834L24.1614 26.1976C23.7576 26.2261 23.3826 26.3114 23.0509 26.4678C22.6616 26.6384 22.3299 26.9228 22.0991 27.2782C21.8828 27.6053 21.7386 28.0034 21.6809 28.4726C21.6269 28.8923 21.6172 29.3164 21.652 29.738C21.7386 30.6338 21.9549 31.5153 22.1568 32.2547L22.4885 33.4206L22.5173 33.5059L22.5974 33.7921L24.2479 31.8282L25.0123 32.6529L23.4547 34.4159ZM22.7769 28.1598C22.95 27.8897 23.1952 27.6906 23.4836 27.5626H23.498L29.108 33.8756L28.8773 34.0036C28.6465 34.1031 28.4014 34.1884 28.0985 34.2453L22.575 28.5437C22.6327 28.4015 22.6904 28.2736 22.7769 28.1598ZM6.74011 17.7234L6.72569 17.6239L6.71127 17.4533V17.2969L6.72569 17.1121L6.74011 16.7992L6.75453 16.6855L6.78337 16.4722L6.81222 16.3585L6.84106 16.2163L6.88433 16.2305L6.95643 16.2589L6.98528 16.2732L7.11507 16.3158L7.21602 16.3443L7.24487 16.3585L7.34582 16.3727L7.37466 16.3869L7.49004 16.4011H7.57656L7.69194 16.3869C7.79187 16.3821 7.88987 16.3579 7.98037 16.3158C8.0716 16.2893 8.15888 16.2511 8.23996 16.2021L8.44186 16.0599C8.49034 16.0243 8.52805 15.9764 8.55092 15.9213C8.57379 15.8662 8.58097 15.8059 8.57166 15.7471C8.54281 15.4911 8.48513 15.2494 8.44186 15.0219L8.41302 14.9082L8.25438 14.0977L8.18227 13.6996L8.12458 13.3015L8.09574 12.9034L8.08132 12.5053L8.0669 12.3062L8.09574 11.9081L8.11016 11.7943V11.7233L8.18227 11.3394L8.22553 11.2114L8.23996 11.1545L8.28322 11.0123L8.29764 10.9839L8.36975 10.8133L8.39859 10.728L8.48512 10.5716L8.51397 10.5147L8.54281 10.4862C8.57123 10.431 8.60504 10.3786 8.64376 10.3298L8.87451 10.0597L8.90335 10.0455L9.11967 10.3156L9.1341 10.3298C9.20661 10.432 9.28869 10.5272 9.37926 10.6142L9.46579 10.7137L9.63885 10.8844L9.76865 10.9981L9.79749 11.0265L9.91287 11.1119L10.0859 11.2256L10.1436 11.254C10.2046 11.2983 10.2729 11.332 10.3455 11.3536L10.4032 11.382L10.5474 11.4389L10.6484 11.4531L10.7349 11.4673L10.7637 11.4815L10.9656 11.4958H11.0089L11.1531 11.4815H11.2252C11.2604 11.4786 11.2947 11.4689 11.3262 11.4531L11.3406 11.4389C11.4642 11.3736 11.5611 11.2681 11.6146 11.1403C11.6579 11.0408 11.6723 10.9555 11.6867 10.8844C11.7011 10.728 11.7156 10.5858 11.7011 10.4578L11.6723 9.77532L11.6579 9.69001C11.629 9.20658 11.5858 8.72315 11.6002 8.23973C11.6146 7.67099 11.7011 7.25865 11.8598 6.91741C11.9463 6.71835 12.0761 6.56195 12.2203 6.41976C12.2924 6.34867 12.3934 6.29179 12.4943 6.23492L12.6097 6.39132C12.7067 6.51715 12.8127 6.63594 12.927 6.74679C13.4146 7.22862 13.9147 7.69798 14.4268 8.15442C15.5342 9.04418 16.54 10.0501 17.4265 11.1545C17.7939 11.6114 18.1083 12.1074 18.3639 12.6332C18.6223 13.1433 18.7743 13.6993 18.811 14.2684C18.8543 14.8229 18.7389 15.3916 18.5081 15.9319C18.4072 16.1736 18.263 16.4296 18.0899 16.6855L17.9024 16.9414V16.4011L17.8736 15.8466L17.8447 15.5622L17.8015 15.2921L17.7005 14.7518L17.5852 14.2115L17.5131 13.9556L17.4986 13.8987L17.4409 13.6854L17.2679 13.1593L17.1669 12.8892L17.066 12.6332L16.8352 12.1356L16.7054 11.8797L16.5612 11.6379L16.5324 11.6095L16.4026 11.3962L16.3593 11.3394C16.2115 11.1199 16.0425 10.9152 15.8546 10.728L15.6382 10.5147L15.5229 10.4294L15.4363 10.3583L15.2633 10.2445L15.1335 10.1734L14.8883 10.0597L14.7729 10.017L14.6864 9.9886L14.5422 9.94594L14.3259 9.90329L14.2249 9.88907H14.124C14.0383 9.90307 13.9616 9.94962 13.9104 10.0187C13.8592 10.0879 13.8375 10.174 13.85 10.2587L13.9076 10.5716L13.9221 10.7706L13.9798 11.1687V11.254L14.0086 11.4673L14.0374 12.0503L14.0519 12.3489L14.023 12.946L14.0086 13.1309L13.9942 13.2304L13.9653 13.529L13.9509 13.6143L13.9076 13.8134L13.8932 13.9129L13.85 14.0977L13.8355 14.1546L13.7634 14.3679C13.7481 14.4507 13.7239 14.5318 13.6913 14.6096C13.5682 14.5443 13.4432 14.4827 13.3164 14.4248L12.9991 14.2399C12.4713 13.8882 11.9744 13.4935 11.5137 13.0598L11.4992 13.0456C11.4712 13.0173 11.4375 12.9951 11.4002 12.9804C11.363 12.9657 11.323 12.9589 11.2829 12.9603C11.2097 12.9623 11.139 12.9872 11.081 13.0314L10.7926 13.2731L10.7349 13.3157L10.5474 13.4863L10.5186 13.529L10.432 13.6143L10.2013 13.8845L10.1436 13.984L10.0715 14.0693L9.91287 14.3395C9.90171 14.3649 9.88715 14.3888 9.8696 14.4105L9.76865 14.638C9.6677 14.8513 9.59559 15.0646 9.5379 15.3063L9.52348 15.4201C9.49464 15.4911 9.48021 15.5622 9.48021 15.6476L9.43695 15.9888V16.1025L9.42253 16.33L9.48021 17.0125L9.5379 17.3396L9.59559 17.5528C9.59985 17.5919 9.60955 17.6301 9.62443 17.6666L9.68212 17.8656L9.71096 17.9794C9.78307 18.2211 9.8696 18.4202 9.94171 18.605L10.0715 18.8894L10.158 19.06L10.3167 19.3586L10.4032 19.4865L10.5907 19.7709L10.6195 19.8136L10.7782 20.0411L10.8214 20.0979L10.9801 20.3112L11.0233 20.3681L11.1964 20.5671L11.2252 20.5956L11.4271 20.8089C11.4992 20.88 11.5713 20.9653 11.6723 21.0364L11.7877 21.1501L11.9175 21.2638C12.1852 21.4664 12.4755 21.6382 12.7828 21.7757L12.6818 21.8184L12.4943 21.9179C12.4568 21.9345 12.4183 21.9487 12.379 21.9606L12.1771 22.0316L11.9752 22.0885L11.8454 22.117C11.629 22.1596 11.4416 22.1738 11.2541 22.1738H11.0089L10.7782 22.1454L10.6772 22.1312L10.5042 22.1027L10.2157 22.0316L10.1725 22.0174L9.95613 21.9321L9.85518 21.9037L9.23505 21.6051L9.06199 21.4913L8.94662 21.4203L8.77356 21.2923C8.74355 21.2639 8.70955 21.24 8.67261 21.2212L8.51397 21.079L8.41302 20.9937L8.25438 20.8515L8.16785 20.7662L8.02363 20.6098L7.9371 20.5103L7.80731 20.3396L7.7352 20.2401L7.60541 20.0695L7.5333 19.97L7.41793 19.7851L7.36024 19.6856L7.25929 19.4865L7.2016 19.387L7.11507 19.188L7.07181 19.0742C6.97086 18.8467 6.91317 18.6477 6.85548 18.4344L6.81222 18.2069L6.78337 18.1073L6.75453 17.8514L6.74011 17.7803V17.7234ZM28.9205 27.7048L29.209 27.8186L29.2522 27.8897L29.483 28.302L27.7091 30.2926L26.9015 29.4537L28.5023 27.5626L28.9205 27.7048ZM15.4797 43.2314L15.523 43.4305L15.5951 43.8001L10.4466 50.9236L10.4178 50.952L10.3889 50.9947L10.3745 51.0089H10.3601L10.3024 51.0516C10.2303 51.0942 10.1438 51.1227 10.0572 51.1227H10.014C9.91301 51.1084 9.81206 51.0658 9.73995 50.9947C9.58131 50.8667 9.55247 50.625 9.65342 50.4544L9.68227 50.4117L9.69668 50.3975L14.9029 43.203H15.0615L15.4797 43.2314ZM28.5456 25.6147L28.4735 25.4867C27.9471 24.5065 27.6468 23.4239 27.5937 22.316C27.5593 21.6618 27.6985 21.01 27.9975 20.425L28.1706 20.1264L28.2139 20.0411C28.2426 20.0115 28.2669 19.978 28.286 19.9415L28.4879 19.6856C28.7907 19.3159 29.1657 18.9747 29.656 18.6192C30.0887 18.3206 30.4636 18.1073 30.7232 17.9652L30.9948 17.8267C30.5001 17.6184 29.9632 17.5245 29.4253 17.5528H29.1801L28.7186 17.5955L28.5167 17.6097L28.4735 17.4391C28.4302 17.2969 28.4158 17.1689 28.4302 17.0552C28.4428 16.941 28.4878 16.8325 28.56 16.7424C28.6321 16.6571 28.7331 16.5718 28.8773 16.5149C29.1657 16.3585 29.5118 16.2874 29.7858 16.2447C30.0581 16.2022 30.3325 16.1737 30.6079 16.1594L30.7953 16.131C30.8819 16.131 30.954 16.0599 30.954 15.9746C30.9684 15.9319 30.954 15.8893 30.9251 15.8466C30.8963 15.8182 30.853 15.7897 30.8098 15.7897L30.3627 15.6902L29.3964 15.4627L29.0503 15.349L28.7331 15.221L28.5744 15.1499L28.4302 15.0788L28.1418 14.894L27.8822 14.6949L27.6514 14.4674L27.6082 14.4105L27.5505 14.3395L27.5072 14.2826L27.4495 14.2115L27.2765 13.9271L27.262 13.8987L27.1323 13.6285L27.0746 13.4721L27.0602 13.4152L27.0313 13.3157L26.988 13.1451L26.9592 13.0456L26.9015 12.7612V12.747L26.9592 12.7328L27.3053 12.7185H27.3774C27.6803 12.7185 27.9976 12.7612 28.286 12.8039L28.7042 12.8607L28.7475 12.8749C29.0581 12.9213 29.3661 12.983 29.6705 13.0598C29.8147 13.1024 29.9733 13.1309 30.1031 13.1878L30.1175 13.202H30.1752C30.2222 13.2031 30.2681 13.188 30.305 13.1593C30.3339 13.1309 30.3483 13.0882 30.3483 13.0456C30.3483 13.0029 30.3339 12.9603 30.305 12.9318C30.1896 12.7754 30.031 12.6759 29.9012 12.5906L29.4541 12.3489L29.2811 12.2636C29.0503 12.1498 28.8196 12.0503 28.6033 11.9223C28.3148 11.7517 28.0697 11.5811 27.8822 11.3962C27.4536 10.9863 27.1661 10.4542 27.0602 9.87485C27.0025 9.6047 26.9736 9.32033 26.9736 8.9933L27.0025 8.53831C27.0025 8.38191 27.0313 8.22551 27.0457 8.09754L27.1178 7.65677L27.2909 7.7563L27.8533 8.12598L28.4158 8.52409C29.3323 9.18752 30.2269 9.87984 31.0982 10.6L32.1077 11.51C32.4538 11.8228 32.7855 12.1356 33.0884 12.4484C33.7033 13.0243 34.2544 13.6629 34.7324 14.3537L34.6603 14.7376L34.6026 15.093L34.5594 15.2637L34.5305 15.5338L34.5161 15.6333L34.5017 15.804L34.4873 16.0741L34.4729 16.2732V16.6286L34.5017 17.1689L34.5305 17.3396L34.545 17.4391L34.5738 17.6097L34.6026 17.7092C34.6199 17.8009 34.644 17.8912 34.6748 17.9794L34.7469 18.1927L32.8576 20.425L32.8432 20.4107L32.5692 20.2401C32.3961 20.1122 32.2519 19.9842 32.1366 19.8278L32.05 19.714V19.6998C32.0251 19.665 32.0057 19.6266 31.9923 19.5861L31.9491 19.4865L31.9347 19.4581V19.4297L31.9058 19.3301L31.8914 19.2448V19.2022L31.877 19.1595V19.06L31.8783 19.0481L31.7327 19.0884C31.401 19.2022 30.9684 19.3728 30.5069 19.6856C30.1045 19.9442 29.7721 20.2956 29.5384 20.7093C29.3047 21.123 29.1768 21.5867 29.1657 22.0601C29.1582 22.4229 29.1921 22.7853 29.2667 23.1407C29.4561 23.8802 29.7421 24.5923 30.1175 25.2592L30.1973 25.3984L35.5833 19.0315L35.7708 19.1453C35.9241 19.2367 36.0689 19.3414 36.2034 19.4581C36.3477 19.5718 36.4775 19.6856 36.5928 19.8278L36.737 19.9842L30.903 26.5717C31.0552 26.8321 31.1887 27.0728 31.3145 27.3209C31.9297 28.3659 32.3635 29.5048 32.598 30.6907C32.6702 31.103 32.699 31.4869 32.6846 31.8424C32.6848 32.397 32.5355 32.9417 32.2519 33.4206C31.9561 33.863 31.5614 34.2326 31.0982 34.5013C30.8098 34.6577 30.4925 34.7998 30.1464 34.9136C29.5238 35.1127 28.8803 35.2414 28.2283 35.2975C27.738 35.3544 27.2332 35.3686 26.6852 35.3686H26.5554L25.2575 35.3259L24.421 35.2548L24.2768 35.2406L24.1181 34.6434L24.0172 34.2595L24.7094 34.3306C25.4846 34.4242 26.2648 34.4717 27.0457 34.4728L27.6947 34.4586C28.024 34.4442 28.3517 34.4062 28.6754 34.3448C29.0792 34.2738 29.4253 34.16 29.7281 34.0178C30.1175 33.833 30.4348 33.577 30.6655 33.2785C30.8963 32.9657 31.0549 32.5675 31.0982 32.1125C31.1415 31.7429 31.1126 31.3305 31.0261 30.904C30.954 30.5343 30.8386 30.1504 30.68 29.7381C30.4204 29.0698 30.0743 28.3589 29.6128 27.5626L29.4109 27.2214L29.4397 27.1503L29.3388 27.1219L29.1513 26.7948L29.0071 26.5247L28.7331 26.0128L28.5456 25.6147ZM37.9917 23.3113L38.0494 23.2971C38.2228 23.389 38.3712 23.5206 38.4821 23.681C38.5989 23.8422 38.6912 24.0195 38.7561 24.2071L38.7416 24.2782L38.6984 24.4061L38.583 24.7189C38.4506 25.1355 38.2817 25.5398 38.0783 25.9275L37.6889 26.61C37.3885 27.0872 37.0024 27.5063 36.5496 27.847C36.1148 28.191 35.5989 28.4209 35.0497 28.5153L34.7613 28.5721L34.6603 28.5864H34.545L34.2854 28.6148H33.5787L32.9874 28.5579L32.6557 28.5011L32.5259 28.4868L32.1942 28.4157L31.7472 27.5484L31.228 26.6527L31.6751 26.8091L31.9779 26.8801C32.1528 26.9377 32.331 26.9852 32.5115 27.0223L32.6702 27.0508L33.0595 27.1076L33.3191 27.1361L33.4633 27.1503L33.7374 27.1645H33.896L34.1123 27.1503H34.17L34.3286 27.1361C34.7855 27.1025 35.2282 26.9642 35.6213 26.7322C36.0144 26.5001 36.347 26.1808 36.5928 25.7995C36.838 25.4156 37.0255 24.9464 37.1553 24.4061C37.2562 23.9796 37.2851 23.6383 37.3139 23.3682V23.2971L37.3716 23.3113L37.5302 23.3255H37.5879L37.6889 23.3398L37.7898 23.3255L37.9917 23.3113ZM45.2891 51.6487L29.7858 36.4918C30.1031 36.3781 30.406 36.2501 30.6944 36.0937L45.7794 51.1653C45.8412 51.231 45.8756 51.3174 45.8756 51.407C45.8756 51.4967 45.8412 51.583 45.7794 51.6487C45.7217 51.7056 45.6352 51.7483 45.5342 51.7483C45.4477 51.7483 45.3612 51.7056 45.2891 51.6487ZM38.5686 19.6998L38.8426 19.6856L39.1166 19.6429L39.2897 19.6145L39.3906 19.6003L39.4627 19.5861C39.5308 19.5826 39.5983 19.5731 39.6646 19.5576L39.9242 19.4865L40.1117 19.4439L40.1982 19.4154L40.4578 19.3444L40.977 19.1737L41.352 19.0315C42.1173 19.3948 42.8464 19.828 43.5296 20.3254C45.0096 21.3791 46.4209 22.5236 47.7551 23.7521L48.2455 24.2213L48.7214 24.7047C48.8707 24.87 49.0246 25.0312 49.1829 25.1881L49.3127 25.3303L48.88 25.4725L48.433 25.6005L47.9859 25.6858C47.7119 25.7285 47.4523 25.7569 47.2071 25.7569H47.0773C46.7601 25.7427 46.4716 25.6858 46.212 25.6005C45.938 25.5152 45.664 25.373 45.4333 25.2024C45.2169 25.046 45.0006 24.8327 44.7843 24.5768L44.3228 23.9796L44.2074 23.8232L43.9046 23.4393C43.8036 23.3255 43.6738 23.1833 43.5008 23.098L43.3998 23.0696L43.3133 23.098C43.2845 23.1123 43.2556 23.1549 43.2412 23.1976C43.2268 23.2402 43.2412 23.2829 43.2556 23.3113L43.27 23.3255L43.4719 23.7379L43.645 24.1644L43.8036 24.591L43.8181 24.6336L43.9478 25.0317C44.0344 25.3019 44.1353 25.6005 44.1786 25.8991C44.2074 26.027 44.2219 26.1692 44.2219 26.2972V26.3683H44.1353L43.9767 26.3541H43.8036L43.6306 26.3256L43.5296 26.3114H43.4719L43.0104 26.1977L42.9816 26.1834L42.823 26.1408L42.6787 26.0697L42.5778 26.027L42.5201 25.9986L42.4336 25.9417L42.3759 25.9133L42.1163 25.7284L41.8711 25.501L41.6404 25.2592L41.5394 25.1313L41.4385 24.9891L41.0924 24.3919C40.9482 24.0933 40.8328 23.7947 40.703 23.4819L40.5443 23.0696C40.5155 22.9985 40.4434 22.9416 40.3713 22.9416H40.3569C40.2703 22.9558 40.1838 23.0412 40.1982 23.1407L40.2127 23.3255L40.2415 24.136C40.2415 24.4061 40.2271 24.7474 40.1261 25.046C40.0829 25.2024 40.0107 25.3161 39.9386 25.4014C39.8637 25.4875 39.7625 25.5473 39.6502 25.572C39.5781 25.6005 39.4916 25.6005 39.3906 25.6005H39.2608L39.0733 25.572L39.0589 25.3872C39.0449 24.924 38.9672 24.4649 38.8282 24.0222C38.7128 23.6668 38.583 23.3824 38.3955 23.1407C38.1792 22.8421 37.8908 22.6004 37.5735 22.4724H37.5591C37.522 22.46 37.4827 22.4552 37.4437 22.4582L37.3428 22.4724L37.2851 22.4866L37.0687 22.5577L36.9822 22.5719H36.7947L36.6938 22.5577H36.6361L36.5207 22.5293L36.4053 22.4866H36.3909L36.2611 22.4298C36.0881 22.3445 35.9294 22.2165 35.7708 22.0743L35.5689 21.8326L35.5545 21.8184L37.487 19.6429L37.5735 19.6572L38.0061 19.6998L38.0927 19.714H38.3811L38.5686 19.6998ZM36.0735 18.0931L35.8716 17.823C35.7274 17.6097 35.6409 17.3964 35.5976 17.1974C35.5399 16.9699 35.5399 16.7424 35.5832 16.5433C35.6057 16.4496 35.6396 16.3589 35.6842 16.2732L35.713 16.2447L36.0735 16.3585C36.1745 16.3869 36.2754 16.3869 36.3764 16.3869H36.4629C36.6101 16.3749 36.7529 16.3313 36.8811 16.2589C36.9988 16.1831 37.1015 16.0868 37.184 15.9746C37.2561 15.8893 37.2994 15.7897 37.3571 15.676L37.5157 15.3063L37.5734 15.1357C37.6743 14.8798 37.7464 14.8087 37.7753 14.7944L37.833 14.766H37.8474L37.9916 14.7944C38.1379 14.8515 38.2781 14.9229 38.4098 15.0077L38.8425 15.3347L39.2319 15.6902C39.352 15.8059 39.4584 15.9347 39.5491 16.0741C39.5786 16.122 39.5982 16.1751 39.6068 16.2305V16.3158C39.5924 16.3585 39.5059 16.458 39.3472 16.5575C39.2816 16.5902 39.2189 16.6283 39.1598 16.6713L38.8569 16.8561C38.7553 16.9191 38.6631 16.9957 38.5829 17.0836C38.4796 17.172 38.4003 17.2844 38.3521 17.4106C38.2945 17.5528 38.2656 17.695 38.28 17.8372C38.295 17.9693 38.3289 18.0985 38.381 18.2211C38.4243 18.3491 38.4964 18.4486 38.5541 18.5481L38.5252 18.5766L38.2656 18.7187L37.9483 18.8041L37.7032 18.8183H37.6166C37.1499 18.7851 36.7034 18.6169 36.3331 18.3348L36.2033 18.2069L36.0735 18.0931Z" fill="#0F7A65"/>
</svg>
