<svg width="64" height="65" viewBox="0 0 64 65" fill="none" xmlns="http://www.w3.org/2000/svg">
<path d="M40.8259 62.7104C41.3635 62.5504 41.7615 62.4203 41.9147 62.372C41.5081 62.5112 41.1068 62.6446 40.7123 62.7587C40.5875 62.7921 40.2796 62.882 39.8604 62.9956C39.3508 63.1285 38.7484 63.2813 38.086 63.4307C36.9059 63.6928 35.7112 63.8839 34.5082 64.003C34.3467 64.0166 34.192 64.0296 34.0469 64.0397C34.586 63.9996 35.2325 63.9334 35.9712 63.8203C36.8018 63.6903 37.6707 63.5206 38.5395 63.3142C39.3909 63.1165 40.1703 62.9004 40.8259 62.7104ZM39.9503 62.8936C41.3737 62.4909 42.6578 62.0447 43.7215 61.6367C44.1774 61.4603 44.5637 61.3071 44.8732 61.1809C45.1227 61.0775 45.3025 61.004 45.3774 60.9774C45.8126 60.7744 46.2477 60.5617 46.6829 60.3349C46.6031 60.3649 46.4029 60.4548 46.1269 60.5815C45.7821 60.7347 45.348 60.9276 44.8316 61.1403C43.6229 61.643 42.1584 62.1888 40.5242 62.6872C38.8775 63.1865 37.2631 63.5796 35.7798 63.8188C35.006 63.9504 34.2251 64.0358 33.4411 64.0746C34.2265 64.038 35.0091 63.956 35.7851 63.829C37.1904 63.5979 38.5811 63.2856 39.9503 62.8936ZM33.2298 64.0813C33.1544 64.0813 33.08 64.0847 33.0084 64.0852H32.9857C33.0669 64.0828 33.1477 64.0789 33.2245 64.0717C33.9401 64.0083 34.82 63.8488 35.8644 63.5989C38.4921 62.9671 41.5768 61.9113 44.7678 60.494C46.3633 59.7848 47.8621 59.0293 49.227 58.2607C50.484 57.5481 51.5724 56.8525 52.4779 56.2134C53.2515 55.6643 53.8559 55.1852 54.2852 54.8256C54.6101 54.5558 54.8316 54.3528 54.817 54.3828C55.2 53.9932 55.5727 53.5943 55.9373 53.1815C55.9605 53.1414 55.7473 53.3609 55.4296 53.6572C55.0051 54.0536 54.4008 54.5824 53.6049 55.1886C52.5172 56.0127 51.3848 56.776 50.2128 57.4751C48.7715 58.337 47.1702 59.1859 45.4592 59.9888C42.0298 61.5903 38.7044 62.7848 35.9079 63.5177C34.8094 63.8077 33.9004 63.9938 33.1747 64.0668C33.0921 64.076 33.0181 64.0808 32.9412 64.0866H32.7478H32.9349H32.9262H32.9591C33.0481 64.0852 33.1385 64.0837 33.2308 64.0813H33.2298ZM33.2211 64.0847L33.3541 64.0784L33.4426 64.0746H33.3942C33.4252 64.0746 33.4527 64.0746 33.4846 64.0697L33.5427 64.0644C33.4658 64.0697 33.3937 64.0731 33.3203 64.077H33.2298H33.314L33.2211 64.0847ZM35.7778 63.769C37.7456 63.4026 39.9576 62.7839 42.2333 61.965C43.3748 61.5522 44.467 61.1127 45.4857 60.6598C46.3531 60.2773 47.2077 59.8667 48.0482 59.4286C48.5877 59.1459 49.1212 58.8518 49.6481 58.5463C49.9677 58.3598 50.1973 58.22 50.2476 58.2031C50.6798 57.9049 51.1047 57.5964 51.5221 57.2779C51.4737 57.2948 51.2441 57.4543 50.91 57.6646C50.484 57.9377 49.9159 58.2872 49.2207 58.6831C48.4249 59.1322 47.5009 59.6185 46.4585 60.1111C45.3465 60.6405 44.1518 61.1533 42.8947 61.6324C40.3932 62.5876 37.9632 63.3069 35.8291 63.7328C35.0743 63.8879 34.3112 63.9994 33.5436 64.0668H33.5654C34.3083 64.0104 35.0474 63.911 35.7788 63.769H35.7778ZM59.2438 48.6143C58.9054 49.1069 58.3629 49.8093 57.5724 50.6345C56.6238 51.623 55.375 52.7281 53.8322 53.8704C52.1177 55.1417 50.1287 56.4 47.9515 57.6013C45.7077 58.8465 43.4338 59.9415 41.2436 60.9034C39.2164 61.7919 37.3598 62.5209 35.7488 63.0932C34.4753 63.5428 33.4919 63.8488 32.7826 64.0156C32.6724 64.0397 32.5713 64.0605 32.48 64.076C32.1899 64.0601 31.967 64.032 31.967 64.032L31.9723 64.0354C32.0969 64.0701 32.225 64.0903 32.3543 64.0958C32.3117 64.1011 32.2716 64.1055 32.2358 64.1079C32.3045 64.1101 32.3733 64.1082 32.4418 64.1021C32.5617 64.106 32.6945 64.1032 32.8402 64.0939C32.9446 64.0939 33.0529 64.0939 33.167 64.0881C33.0553 64.092 32.9485 64.0939 32.8455 64.0934C32.8711 64.0934 32.8996 64.0886 32.9262 64.0866C32.8213 64.0866 32.7169 64.0866 32.6163 64.0828C32.7014 64.0712 32.7918 64.0572 32.8904 64.0388C33.6031 63.916 34.5686 63.6463 35.7914 63.247C37.3293 62.7442 39.082 62.095 40.9913 61.2964C43.0519 60.4379 45.1889 59.446 47.3066 58.324C49.3706 57.2291 51.2649 56.0839 52.9194 54.9189C54.4158 53.8675 55.6424 52.8523 56.5939 51.9334C57.2132 51.3462 57.7905 50.7163 58.3214 50.0481C58.537 49.7716 58.6825 49.5584 58.6825 49.5613C58.9726 49.1151 59.2492 48.6578 59.5165 48.1933C59.4658 48.2813 59.3691 48.4359 59.2458 48.6143H59.2438ZM59.5431 48.1517C59.5359 48.1648 59.5276 48.1773 59.5204 48.1904C59.5774 48.1 59.591 48.0734 59.5451 48.1517H59.5431ZM31.9757 64.0518C32.0032 64.1002 32.0946 64.1176 32.2358 64.1079C32.1159 64.1036 32.0265 64.0823 31.9757 64.0383V64.0518ZM60.7228 45.113C59.8637 46.3544 58.609 47.779 56.9328 49.2737C55.0235 50.9811 52.6849 52.6884 50.0465 54.3596C47.2863 56.11 44.4438 57.668 41.7107 59.0728C39.1937 60.3644 36.93 61.4415 35.0386 62.3416C33.6089 63.0183 32.5916 63.5017 31.9728 63.8401C31.6614 64.0132 31.6165 64.12 31.7378 64.0934C31.7765 64.091 31.8151 64.0865 31.8534 64.0799C31.8935 64.0615 32.0129 64.0078 32.2324 63.9136C32.875 63.6337 33.8763 63.2078 35.26 62.5982C37.076 61.7997 39.2333 60.8212 41.6237 59.6427C44.2171 58.3612 46.9169 56.9298 49.5499 55.3158C52.0766 53.7645 54.3321 52.177 56.2013 50.5784C57.8524 49.1702 59.1143 47.8259 60 46.6473C60.7253 45.6805 61.1647 44.8766 61.4021 44.3541C61.567 43.9843 61.627 43.758 61.5138 44.0157C61.6139 43.7585 61.7072 43.5004 61.8039 43.2422C61.744 43.3757 61.6777 43.5159 61.5999 43.6681C61.3379 44.1675 61.045 44.6501 60.7228 45.113ZM31.8587 64.0813C31.8326 64.0924 31.8335 64.092 31.8587 64.0813V64.0813ZM62.0901 42.4031C61.9985 42.6845 61.9018 42.9643 61.8 43.2422C61.8885 43.0465 61.961 42.8695 62.0166 42.7231C62.1583 42.3436 62.195 42.1203 62.0901 42.4031ZM63.457 36.2155C63.4115 36.5887 63.3574 36.9609 63.2993 37.3326C63.308 37.3041 63.3187 37.2727 63.3269 37.2442C63.4203 36.9263 63.4866 36.6011 63.5251 36.272C63.5633 35.9095 63.5067 35.8365 63.457 36.2155ZM59.1138 43.7711C57.0865 45.8884 54.4481 48.0449 51.3741 50.2004C48.0966 52.4936 44.6575 54.5674 41.3553 56.4982C38.3156 58.2689 35.6173 59.7766 33.4687 61.1113C31.894 62.0936 30.8201 62.8187 30.4184 63.4379C30.2197 63.7478 30.4798 64.0436 30.8704 64.0837C30.9918 64.0934 31.102 64.0973 31.205 64.1002C30.882 64.09 30.6988 63.8474 30.912 63.5941C31.3694 63.0551 32.4108 62.4126 33.9444 61.5241C36.0234 60.3156 38.6052 58.9277 41.5134 57.2866C44.673 55.498 47.967 53.5644 51.1193 51.4021C54.0923 49.3684 56.6654 47.3178 58.6695 45.2977C60.3892 43.5637 61.5926 41.9293 62.3232 40.5482C62.5934 40.0449 62.8222 39.5205 63.0073 38.9801C63.1159 38.6666 63.1993 38.3449 63.2568 38.0181C63.3172 37.6589 63.2737 37.5656 63.2036 37.9248C63.2389 37.7281 63.2689 37.5299 63.3003 37.3312C63.1432 37.8522 62.9442 38.3597 62.7051 38.8486C62.0186 40.2698 60.8398 41.9636 59.1138 43.7711ZM63.7601 31.3901C63.7432 31.0808 63.6832 31.1857 63.69 31.6347C63.6832 31.2533 63.6668 30.8714 63.6465 30.49C63.6465 30.5036 63.6465 30.5147 63.6431 30.5282C63.5811 31.0854 63.46 31.6344 63.2819 32.166C63.0063 32.9884 62.6459 33.78 62.2066 34.5279C61.654 35.4836 60.9283 36.5099 60.0276 37.5705C57.9554 40.0204 55.0675 42.5597 51.597 45.1628C47.82 47.9951 43.7853 50.5948 39.917 53.0877C36.3391 55.3907 33.1965 57.39 30.8318 59.2623C29.1168 60.6158 28.0005 61.7484 27.8868 62.6534C27.8124 63.2494 28.4008 63.712 29.0743 63.8885C29.2904 63.9218 29.4968 63.9518 29.6917 63.9784C29.0859 63.8454 28.5632 63.4466 28.6648 62.94C28.8316 62.1182 29.9334 61.1089 31.601 59.868C33.9082 58.1471 36.9338 56.2797 40.3763 54.1155C44.1083 51.7651 48.0033 49.2959 51.6686 46.5893C55.0506 44.0897 57.8857 41.6301 59.9512 39.2537C60.8553 38.2115 61.5907 37.2132 62.1568 36.2745C62.6097 35.5348 62.9888 34.7524 63.2887 33.9386C63.4828 33.41 63.6227 32.8631 63.7064 32.3062C63.7533 32.0032 63.7713 31.6965 63.7601 31.3901ZM63.66 29.6209C63.63 29.3216 63.5783 29.4478 63.6117 29.9187C63.6252 30.1091 63.6344 30.2996 63.645 30.49C63.6763 30.2014 63.6813 29.9105 63.66 29.6209ZM28.1499 57.4848C30.5808 55.2312 34.0083 52.848 38.0062 50.1225C42.3639 47.1501 46.8497 44.1573 50.9395 40.9988C54.6715 38.1162 57.7083 35.357 59.7873 32.7417C60.6711 31.6231 61.3615 30.5582 61.8561 29.5779C62.2985 28.7077 62.5852 27.9019 62.7482 27.2014C62.8735 26.6869 62.94 26.1599 62.9464 25.6304C62.9464 25.4646 62.9401 25.3205 62.9299 25.1953C62.8279 24.7366 62.7177 24.2802 62.5963 23.8282C62.5335 23.5986 62.4755 23.384 62.4392 23.2482C62.4738 23.4689 62.4924 23.6918 62.4948 23.9153C62.4961 24.4352 62.442 24.9537 62.3333 25.4622C62.1468 26.2797 61.8631 27.072 61.4882 27.8221C61.0047 28.8039 60.3278 29.8727 59.4488 30.9957C57.3752 33.6418 54.3007 36.4504 50.5043 39.4026C46.3178 42.6549 41.7121 45.7535 37.2326 48.8623C33.1114 51.725 29.58 54.2445 27.1012 56.6543C25.2591 58.4429 24.1969 60.0928 24.3322 61.3211C24.3864 61.8166 24.6417 62.256 24.9956 62.5891C25.3408 62.912 25.773 63.1513 26.2352 63.3412C26.5466 63.4147 26.8507 63.4863 27.1442 63.551C26.7091 63.3944 26.3049 63.188 25.9838 62.9052C25.6628 62.6224 25.4254 62.2284 25.3858 61.7837C25.2876 60.6569 26.3537 59.1482 28.1499 57.4848ZM62.4097 23.1346C62.4165 23.1616 62.4262 23.2008 62.4387 23.2486C62.4329 23.2138 62.4271 23.179 62.4218 23.152C62.3967 23.0321 62.3802 23.0007 62.4097 23.1346ZM62.9285 25.1852V25.1972C62.9483 25.2876 62.9706 25.3771 62.9899 25.468C62.9686 25.3664 62.9469 25.2707 62.9285 25.1827V25.1852ZM62.8526 24.7984C62.8603 24.8618 62.8903 25.0068 62.9285 25.1852C62.9201 25.0695 62.9047 24.9544 62.8826 24.8405C62.8594 24.7148 62.8347 24.6732 62.8526 24.7965V24.7984ZM60.8616 19.0189C60.8471 18.986 60.8335 18.956 60.821 18.9294L60.8616 19.0189ZM61.171 19.714C61.0709 19.481 60.967 19.249 60.8616 19.0189C60.9423 19.1934 61.0564 19.4486 61.171 19.7121V19.714ZM60.792 18.8671C60.7663 18.8134 60.748 18.7752 60.7335 18.7477C60.7625 18.8086 60.7925 18.868 60.821 18.9294L60.792 18.8671ZM34.5662 45.2856C39.4011 41.7843 44.381 38.386 48.861 34.8745C52.8555 31.7445 56.0316 28.832 58.0825 26.1346C58.9378 25.0131 59.5741 23.9525 60.0034 22.9924C60.381 22.1518 60.5991 21.3866 60.6991 20.7407C60.7766 20.2777 60.8001 19.8073 60.7692 19.3389C60.746 19.0276 60.7074 18.8144 60.6991 18.7312C60.6938 18.6829 60.6991 18.6781 60.7359 18.7467C60.6532 18.5722 60.5715 18.3972 60.4864 18.2256C60.3099 17.8674 60.1315 17.5266 60.0435 17.368C59.9372 17.1771 59.9101 17.1486 59.9067 17.2104C59.9067 17.2854 59.9435 17.485 59.9633 17.7809C59.9943 18.2327 59.9754 18.6867 59.9067 19.1344C59.81 19.7628 59.6036 20.5106 59.2395 21.3358C58.8218 22.2813 58.1923 23.325 57.3471 24.4349C55.2996 27.1193 52.1124 30.0332 48.0806 33.1889C43.5359 36.7463 38.4631 40.2181 33.5407 43.8238C28.9718 47.1757 25.0831 50.2212 22.5008 53.2134C20.5543 55.4733 19.596 57.6607 19.9383 59.2811C20.0834 59.9705 20.444 60.5829 20.9125 61.0755C21.3569 61.5478 21.8911 61.9239 22.4597 62.2357C22.8494 62.3754 23.2333 62.5059 23.607 62.6253C23.0621 62.3493 22.5487 62.0162 22.1198 61.5903C21.6735 61.1475 21.3303 60.5921 21.1944 59.956C20.8792 58.4574 21.8408 56.4111 23.7463 54.2813C26.2913 51.4403 30.0949 48.5244 34.5662 45.2856ZM57.6831 13.6526C57.6159 13.5675 57.5647 13.5076 57.5202 13.4631C57.8069 13.8368 58.0859 14.2215 58.3571 14.6126C58.1038 14.2249 57.8374 13.8556 57.6812 13.6526H57.6831ZM17.6176 59.5518C17.0775 58.9258 16.6472 58.1838 16.4374 57.348C16.2058 56.4363 16.2411 55.3781 16.5703 54.2793C16.9523 53.0046 17.7157 51.6564 18.7862 50.2589C21.3907 46.86 25.4863 43.4588 30.3236 39.812C35.5056 35.9042 40.8525 32.2438 45.6018 28.5627C49.7414 25.3524 52.9687 22.4718 54.9747 19.8518C55.7855 18.7931 56.3729 17.8079 56.751 16.9276C57.0317 16.2916 57.2221 15.6194 57.3167 14.9307C57.3645 14.5459 57.3768 14.1576 57.3534 13.7705C57.3399 13.5312 57.32 13.3862 57.3732 13.3625C57.396 13.3543 57.4443 13.3872 57.5183 13.4626C57.4844 13.4186 57.452 13.3732 57.4177 13.3292C57.1416 12.9463 56.8535 12.5818 56.6756 12.3788C56.4793 12.156 56.3661 12.0694 56.3192 12.0762C56.2491 12.0878 56.2607 12.2241 56.2661 12.447C56.2808 12.8143 56.2658 13.1823 56.2211 13.5472C56.1266 14.2084 55.9399 14.8531 55.6665 15.4624C55.2971 16.3118 54.7179 17.2704 53.9187 18.2971C51.9234 20.8626 48.7087 23.7011 44.5676 26.8867C39.7869 30.5606 34.4009 34.2451 29.171 38.2192C24.2713 41.9414 20.1167 45.4485 17.4856 48.9701C16.3982 50.4281 15.6246 51.843 15.2403 53.1757C14.9052 54.3359 14.8709 55.4593 15.1059 56.4343C15.3186 57.3267 15.7547 58.1263 16.3059 58.803C16.8157 59.4167 17.4042 59.9605 18.0561 60.4205C18.4845 60.6337 18.9124 60.8333 19.3369 61.0262C18.7146 60.6168 18.1209 60.1343 17.6156 59.5518H17.6176ZM12.9278 56.6761C12.3403 55.8668 11.8684 54.9387 11.6136 53.9066C11.339 52.7813 11.3298 51.5133 11.6402 50.1922C11.9932 48.7008 12.7523 47.1201 13.8483 45.5089C16.4761 41.6576 20.7544 37.8832 25.818 33.9715C31.1813 29.8307 36.711 26.0964 41.5797 22.4467C43.7554 20.8171 45.6893 19.2862 47.3332 17.8302C48.7744 16.5501 49.9503 15.36 50.8418 14.2602C51.5975 13.3253 52.1337 12.4644 52.4731 11.7088C52.7116 11.1839 52.8758 10.6282 52.9609 10.058C53.0161 9.66884 53.0127 9.36913 53.0344 9.17094C53.0523 9.00465 53.0794 8.91812 53.209 8.94954C53.2697 8.97046 53.3272 8.99992 53.3796 9.03703C53.0896 8.75231 52.8019 8.49755 52.5867 8.32208C52.2966 8.09101 52.0974 7.96581 51.9843 7.93536C51.8392 7.89668 51.7977 7.97693 51.7706 8.12872C51.7392 8.30999 51.7392 8.5894 51.6811 8.9505C51.5938 9.4893 51.431 10.0131 51.1977 10.5066C50.8665 11.2254 50.339 12.0477 49.5964 12.9396C48.7193 13.9997 47.5589 15.1463 46.136 16.3848C44.5096 17.8012 42.5901 19.292 40.4309 20.8896C35.5777 24.4828 30.0601 28.189 24.6953 32.3362C19.6149 36.272 15.3123 40.1132 12.6643 44.0476C11.5522 45.7052 10.7787 47.3347 10.4165 48.8816C10.0916 50.256 10.0926 51.581 10.358 52.759C10.6041 53.8071 11.043 54.8003 11.6523 55.688C12.176 56.4488 12.7862 57.1464 13.4707 57.7666C13.8952 58.0625 14.3255 58.3467 14.7568 58.6184C14.0714 58.0468 13.4574 57.3946 12.9282 56.6761H12.9278ZM54.7426 10.3272C54.3896 9.9381 54.0217 9.57023 53.7621 9.33723C53.6423 9.22777 53.5146 9.12727 53.3801 9.03655C53.4623 9.1168 53.5445 9.19849 53.6257 9.2826C54.0057 9.61857 54.3785 9.96952 54.7431 10.3272H54.7426ZM7.25936 49.6764C6.98957 48.3649 6.98135 46.921 7.30191 45.419C7.65969 43.7513 8.42263 41.997 9.54577 40.2302C12.1788 36.0825 16.5225 32.0911 21.6552 28.1083C27.0248 23.9428 32.5336 20.3255 37.3598 16.8996C39.4789 15.3953 41.3515 14.0103 42.9296 12.7124C44.2946 11.5921 45.3932 10.5659 46.2255 9.63356C46.9111 8.86011 47.3936 8.15724 47.6934 7.54863C47.8942 7.14624 48.0393 6.71835 48.1246 6.27679C48.1793 5.994 48.1894 5.78421 48.2576 5.65417C48.3093 5.55749 48.391 5.50915 48.596 5.57634C48.6454 5.5933 48.6938 5.61282 48.7411 5.63483C48.5245 5.48643 48.3175 5.35301 48.1362 5.24376C47.7799 5.03058 47.4903 4.89232 47.3206 4.84108C47.1074 4.77776 47.0145 4.8145 46.9575 4.90248C46.883 5.01753 46.868 5.20847 46.8124 5.46854C46.7246 5.87725 46.5823 6.27233 46.3894 6.64322C46.0964 7.21412 45.625 7.86961 44.9592 8.59859C44.1475 9.48418 43.0673 10.4529 41.7339 11.5212C40.1805 12.7646 38.3422 14.0949 36.2584 15.5485C31.4946 18.8671 26.0472 22.4128 20.7249 26.5276C15.6135 30.4823 11.2752 34.4854 8.61892 38.6625C7.48466 40.4569 6.70045 42.2397 6.32188 43.9451C5.98054 45.4828 5.96507 46.9707 6.21116 48.3219C6.43469 49.5169 6.84745 50.6687 7.4339 51.7337C7.92056 52.6224 8.49699 53.4588 9.15415 54.23C9.5361 54.61 9.92772 54.9793 10.3237 55.3317C9.6502 54.6039 9.05484 53.8076 8.54737 52.9558C7.9411 51.9407 7.50611 50.8327 7.25984 49.6764H7.25936ZM50.618 6.93229C50.2208 6.59827 49.8059 6.28602 49.3749 5.9969C49.1723 5.86075 48.96 5.73973 48.7396 5.63483C48.9606 5.78614 49.1912 5.95388 49.4165 6.13032C49.8212 6.38459 50.2205 6.65433 50.618 6.93229ZM3.80002 44.7829C3.58849 43.2408 3.65893 41.6731 4.00791 40.1562C4.41404 38.3758 5.20647 36.5249 6.3533 34.6845C9.00329 30.4306 13.3112 26.4183 18.3612 22.5511C23.5756 18.562 28.8833 15.2285 33.4967 12.185C35.4911 10.8682 37.2438 9.68335 38.7184 8.59182C39.9668 7.66658 40.969 6.84093 41.716 6.09407C42.317 5.49658 42.7362 4.96048 42.9958 4.5027C43.1555 4.21858 43.2776 3.91486 43.3589 3.59922C43.4072 3.40924 43.4305 3.27437 43.53 3.20283C43.605 3.15159 43.7321 3.13998 43.9826 3.21056C43.4653 2.96644 43.0103 2.78807 42.7893 2.72716C42.5331 2.659 42.4026 2.66721 42.3281 2.7141C42.2232 2.77405 42.2034 2.89538 42.1555 3.06312C42.0772 3.34994 41.9606 3.62489 41.8088 3.88056C41.5594 4.3016 41.1518 4.79081 40.574 5.34334C39.8449 6.03896 38.8726 6.81096 37.6591 7.67818C36.226 8.7088 34.5164 9.8303 32.5709 11.0852C28.0565 13.9924 22.8557 17.2162 17.7249 21.1038C12.7339 24.8883 8.45309 28.8576 5.78279 33.0922C4.61856 34.9369 3.8005 36.7912 3.36536 38.5851C2.98618 40.1189 2.87947 41.7073 3.05013 43.278C3.20233 44.5705 3.53076 45.836 4.02628 47.0394C4.43104 48.0206 4.9199 48.965 5.48738 49.862C5.79537 50.3149 6.11591 50.7544 6.44275 51.187C5.84384 50.3241 5.32301 49.4096 4.88641 48.4543C4.35362 47.2879 3.98852 46.052 3.80194 44.7833L3.80002 44.7829ZM46.3459 4.41279C45.8913 4.11446 45.4192 3.84375 44.9322 3.60212C44.6279 3.44845 44.3124 3.3182 43.9884 3.21249H43.985C44.3889 3.40168 44.7828 3.61143 45.1652 3.84092C45.5563 4.01978 45.9494 4.21314 46.3459 4.41279ZM42.2957 2.67882C41.3771 2.20605 40.2549 1.82947 39.8357 1.73134C39.7874 1.72071 39.7521 1.71394 39.7129 1.70669C40.2321 1.87471 40.7405 2.07424 41.2354 2.30418C41.5835 2.42213 41.9379 2.5454 42.2957 2.67882ZM1.49572 39.4311C1.41355 37.8185 1.5885 36.203 2.01401 34.6454C2.50669 32.8341 3.35811 30.9817 4.53782 29.1496C7.22068 24.987 11.4096 21.1458 16.2527 17.5711C21.1843 13.933 26.1405 11.0059 30.416 8.441C32.2402 7.34609 33.8313 6.38556 35.1667 5.52027C36.2787 4.79806 37.162 4.17205 37.823 3.61469C38.3326 3.18542 38.685 2.81079 38.8968 2.49319C39.0164 2.31303 39.109 2.11628 39.1714 1.90924C39.2082 1.79757 39.2314 1.71926 39.3377 1.6859C39.4054 1.66657 39.5224 1.67092 39.7129 1.70766C39.3334 1.58342 39.0123 1.49496 38.8267 1.45629C38.5617 1.39828 38.422 1.39151 38.3456 1.41326C38.3403 1.41326 38.3374 1.41713 38.3321 1.41858C37.7295 1.2145 37.1133 1.05297 36.4881 0.935176C36.4015 0.920674 36.3329 0.911489 36.2715 0.903755C36.8358 1.01782 37.3911 1.17309 37.9327 1.36831C38.0439 1.39441 38.1571 1.42293 38.2712 1.45194C38.2334 1.49434 38.2068 1.54552 38.1938 1.60082C38.1361 1.78402 38.0502 1.95707 37.939 2.11372C37.733 2.39892 37.3951 2.73489 36.9072 3.12161C36.2695 3.63112 35.4157 4.20541 34.3448 4.87105C33.0529 5.67641 31.5135 6.57361 29.7449 7.60374C25.5927 10.0208 20.7714 12.8144 15.9505 16.3161C11.1959 19.7725 7.05436 23.5189 4.34684 27.608C3.14924 29.4188 2.26929 31.2519 1.73746 33.0526C1.27458 34.6047 1.05345 36.2188 1.08185 37.8383C1.11569 39.1677 1.3082 40.4884 1.65527 41.7722C1.93367 42.8011 2.28757 43.808 2.7141 44.7848C2.93119 45.2938 3.16036 45.7966 3.40114 46.2891C2.93204 45.3338 2.53512 44.3448 2.21369 43.3302C1.81542 42.0648 1.57428 40.7553 1.49572 39.4311ZM1.35067 40.8223C1.20659 40.2867 1.07573 39.7476 0.958079 39.2049C0.813805 38.6113 0.688838 38.0131 0.583377 37.4114C0.601105 37.5361 0.619963 37.6602 0.639947 37.7836C0.813599 38.8105 1.05178 39.8254 1.35309 40.8223H1.35067ZM35.3127 0.764534C35.2982 0.765985 35.284 0.769066 35.2702 0.773719C34.8937 0.69564 34.5135 0.637069 34.1311 0.598243C34.0107 0.586642 33.9261 0.580841 33.8642 0.577457C34.3231 0.6214 34.7783 0.698298 35.2262 0.807557C35.2201 0.820514 35.2151 0.83393 35.2112 0.84768C35.1807 0.951536 35.1247 1.0461 35.0482 1.12274C34.8848 1.29725 34.6087 1.50366 34.2026 1.75503C33.65 2.09631 32.9141 2.49754 31.9786 2.97998C30.8371 3.5707 29.4736 4.25133 27.9023 5.05862C24.1751 6.97096 19.8126 9.28599 15.38 12.2981C10.9474 15.3102 7.00698 18.6853 4.25981 22.4554C3.03079 24.1444 2.07783 25.875 1.42271 27.5978C0.851536 29.0921 0.485115 30.6567 0.333412 32.2491C0.291349 32.7031 0.269593 33.1488 0.262341 33.5882C0.258957 33.5089 0.254607 33.4301 0.251706 33.3513C0.199489 32.4696 0.178697 31.5144 0.21931 30.4954C0.182082 31.0271 0.162258 31.5511 0.164192 32.0597C0.164192 32.7848 0.205772 33.4765 0.260889 34.1339C0.270627 34.8102 0.314362 35.4856 0.391918 36.1575C0.443651 36.5896 0.508917 37.0058 0.580473 37.4143C0.405648 36.237 0.348959 35.0451 0.411253 33.8565C0.5002 32.2486 0.815811 30.6614 1.34873 29.1418C1.95986 27.388 2.88526 25.613 4.10026 23.8814C6.82616 19.9939 10.8338 16.4906 15.3718 13.335C19.9315 10.1682 24.442 7.71154 28.3041 5.6561C29.9339 4.78936 31.3501 4.05023 32.5302 3.40247C33.5025 2.87073 34.2708 2.42745 34.8394 2.04459C35.2619 1.76035 35.5516 1.52541 35.7217 1.32238C35.8049 1.22736 35.8668 1.11559 35.903 0.994635C35.9084 0.980616 35.9122 0.967564 35.9175 0.955963L36.0549 0.9811C36.0128 0.967564 35.9688 0.955479 35.9258 0.942911C35.9357 0.926411 35.95 0.912928 35.967 0.903902C35.9841 0.894877 36.0032 0.890649 36.0225 0.89167C36.1033 0.888607 36.1843 0.893464 36.2642 0.906172C36.0433 0.860732 35.8547 0.82641 35.7324 0.809491C35.594 0.782685 35.4536 0.767645 35.3127 0.764534ZM0.442681 28.6492C0.33857 29.2767 0.266047 29.8913 0.225112 30.4929V30.4277C0.270774 29.4418 0.385479 28.4603 0.568386 27.4905C0.616735 27.1323 0.665088 26.7654 0.730843 26.3903C0.842045 25.7478 0.987091 25.0851 1.16598 24.4083C1.13165 24.5475 1.0949 24.6882 1.06396 24.8255C0.887487 25.599 0.760815 26.3395 0.660734 27.0342C0.682007 26.9341 0.698929 26.8355 0.721653 26.7345C1.06987 25.2463 1.59023 23.8038 2.2722 22.436C3.05303 20.8684 4.0785 19.3103 5.32928 17.8074C8.08903 14.4874 11.7761 11.5899 15.8209 9.07522C19.8199 6.59633 23.6834 4.75407 26.9682 3.31498C28.3476 2.71265 29.5404 2.21958 30.5397 1.81014C31.3549 1.47756 31.9974 1.22087 32.4785 1.01107C32.8227 0.863149 33.0558 0.7568 33.1955 0.668337C33.2656 0.62338 33.3019 0.583741 33.3004 0.558604C33.3008 0.557501 33.3008 0.556323 33.3004 0.55522C33.086 0.531076 32.8703 0.519616 32.6545 0.520899C32.742 0.52586 32.8288 0.539462 32.9136 0.561505C32.8256 0.554737 32.7425 0.549903 32.6632 0.545069C32.6302 0.5352 32.5964 0.528086 32.5622 0.523799H32.4684L32.4983 0.514614C32.4316 0.514614 32.3683 0.517998 32.3117 0.522349C32.3117 0.525249 32.3117 0.52815 32.3209 0.528633C32.3301 0.529116 32.3833 0.528633 32.4684 0.523316L32.4108 0.540235C32.2774 0.576973 32.0642 0.636916 31.7484 0.733596C30.721 1.03814 29.0607 1.55925 26.7299 2.45113C23.7521 3.591 20.24 5.11711 16.5626 7.2291C12.817 9.38122 9.34125 11.9181 6.6081 14.863C5.4129 16.1408 4.3528 17.5384 3.44465 19.0338C2.69577 20.2778 2.07826 21.5962 1.60208 22.9678C1.58371 23.02 1.56969 23.0712 1.55373 23.123C1.52859 23.208 1.502 23.2921 1.47783 23.3772C1.49475 23.3163 1.51409 23.253 1.53149 23.1911C1.39467 23.602 1.27428 24.0076 1.16694 24.4093C1.35068 23.6626 1.57339 22.926 1.83416 22.2026C1.95745 21.8187 2.09234 21.4228 2.2427 21.0148C2.4008 20.588 2.57776 20.1529 2.77067 19.713C2.44963 20.4623 2.18614 21.1753 1.9618 21.84C1.94149 21.899 1.92312 21.9594 1.9033 22.0184C1.96422 21.8545 2.02175 21.6921 2.0875 21.5272C2.61427 20.2085 3.27085 18.9455 4.04756 17.7567C4.93041 16.3978 6.00568 15.068 7.24969 13.7928C9.96834 11.0084 13.3474 8.63049 16.96 6.62146C20.4977 4.65594 23.8575 3.24488 26.7115 2.21136C28.952 1.39731 30.5581 0.932759 31.5589 0.679939C31.717 0.639816 31.849 0.607911 31.9597 0.583258C31.9496 0.578158 31.9391 0.573952 31.9283 0.570689C31.9142 0.565869 31.8998 0.561835 31.8853 0.558604C31.9099 0.569239 31.8853 0.564405 31.8103 0.55377L31.7828 0.55087C31.8282 0.554737 31.8282 0.55087 31.7828 0.540235C31.748 0.535884 31.7102 0.53105 31.6653 0.527183H31.658C31.6358 0.527183 31.6097 0.531533 31.5874 0.53395C31.6696 0.538785 31.7354 0.544585 31.7847 0.550386C31.7673 0.550386 31.7441 0.547002 31.7151 0.544102C31.6861 0.541202 31.6324 0.537818 31.5792 0.534917C31.4825 0.545069 31.3704 0.559088 31.2408 0.578907C30.3028 0.723928 28.8234 1.06231 26.7898 1.69702C23.7695 2.64161 20.8326 3.8347 18.0092 5.26406C14.7215 6.93132 11.5919 8.94712 8.96027 11.3284C6.60424 13.4607 4.80905 15.7757 3.56649 18.0835C3.26963 18.636 3.00855 19.1808 2.77309 19.7174C2.79195 19.6729 2.80935 19.6294 2.82917 19.5844C3.24136 18.6236 3.71654 17.691 4.25159 16.7928C5.56232 14.6078 7.38168 12.4339 9.70725 10.4404C12.2934 8.22201 15.3123 6.35462 18.4584 4.81691C21.1557 3.49897 23.9575 2.40677 26.8353 1.55152C28.7934 0.974332 30.2284 0.674621 31.1489 0.559571C31.2147 0.551836 31.2741 0.545069 31.3322 0.539268H31.3239C31.3607 0.532984 31.395 0.5296 31.4293 0.526216H31.1818C31.1218 0.529116 31.0614 0.5325 30.9947 0.537334L30.9434 0.542168C30.8564 0.551836 30.7612 0.564405 30.6601 0.582291C30.5692 0.587608 30.474 0.595826 30.3744 0.604044L30.4029 0.599693C29.5558 0.705076 28.4298 0.914873 27.0156 1.27646C24.4749 1.9342 21.9929 2.80083 19.595 3.86751C16.7947 5.10357 14.0664 6.6292 11.6378 8.45308C9.43312 10.1107 7.61569 11.9215 6.20246 13.7638C5.62243 14.521 5.08587 15.3105 4.59535 16.1286C4.46674 16.3422 4.34636 16.5516 4.22935 16.757C4.24676 16.7261 4.26319 16.6942 4.28108 16.6632C4.59728 16.1073 4.9657 15.4997 5.3931 14.8659C5.90618 14.1024 6.45959 13.3667 7.05098 12.6621C8.48983 10.9532 10.2903 9.28212 12.4322 7.75746C14.7853 6.08343 17.386 4.68881 20.0394 3.55861C22.3153 2.58503 24.6663 1.79693 27.0693 1.20202C28.6541 0.815292 29.8735 0.62193 30.7399 0.547969C30.8419 0.536367 30.9289 0.528633 30.9932 0.524766H31.1257H31.0169L31.1334 0.521865H31.162C31.2185 0.518965 31.2635 0.517998 31.2974 0.518482H31.3602H31.3157H31.3244C31.4066 0.518482 31.409 0.521865 31.3554 0.522832H31.4376C31.4704 0.519932 31.5004 0.517998 31.5299 0.517031H31.3602H31.6048C31.6846 0.51123 31.7538 0.51123 31.8103 0.51123L31.7243 0.516065C31.7629 0.517929 31.801 0.524753 31.8379 0.536367C31.8741 0.541869 31.9097 0.551437 31.9438 0.564888C31.9502 0.567679 31.9561 0.571609 31.9612 0.57649H31.9655C31.9644 0.570253 31.9644 0.563874 31.9655 0.557637C31.9675 0.550262 31.9702 0.543128 31.9737 0.536367C31.9272 0.519718 31.8781 0.511691 31.8287 0.512681H31.8103H31.9041C31.9433 0.51059 31.9826 0.515334 32.0202 0.526699H32.0564C32.0492 0.5296 32.0414 0.532017 32.0342 0.535401C32.0365 0.537247 32.0386 0.539356 32.0405 0.541685L32.0371 0.561988H32.0405L32.0758 0.55232C32.1062 0.545069 32.1507 0.536367 32.202 0.5296L32.2203 0.525733C32.252 0.518282 32.2846 0.515513 32.317 0.517515C32.3788 0.513164 32.4409 0.513164 32.5027 0.517515H32.509H32.5012C32.4978 0.517515 32.4974 0.521382 32.5157 0.523316H32.5539C32.5389 0.523316 32.5244 0.518965 32.509 0.517515C32.5539 0.517515 32.5999 0.517515 32.6463 0.522349H32.7507C32.8701 0.522349 33.0693 0.52815 33.298 0.547002C33.298 0.542652 33.3038 0.542652 33.3381 0.542652C33.3797 0.542652 33.473 0.548936 33.6577 0.559088C33.7124 0.563438 33.7854 0.570206 33.8656 0.57794L33.7689 0.574073C33.7153 0.574073 33.7128 0.57939 33.7119 0.595343C33.8544 0.61648 33.9958 0.644876 34.1354 0.680422C33.9904 0.662536 33.8506 0.645617 33.7211 0.632082L33.7046 0.628698C33.6816 0.678208 33.6453 0.72037 33.5997 0.750516C33.4547 0.858315 33.2163 0.988351 32.8605 1.15948C32.3644 1.40118 31.7001 1.69122 30.8579 2.06199C29.8193 2.51591 28.5792 3.05877 27.1452 3.71475C23.726 5.27905 19.7106 7.25424 15.5763 9.89556C11.4082 12.5596 7.64228 15.6084 4.88738 19.0749C3.6453 20.6412 2.64206 22.2538 1.90136 23.8746C1.25619 25.2847 0.784402 26.7679 0.496347 28.2915C0.485227 28.3515 0.47846 28.4095 0.468307 28.4684C0.443649 28.684 0.41996 28.8992 0.398204 29.1152C0.413192 28.962 0.427692 28.8054 0.442197 28.6497L0.442681 28.6492ZM31.9757 0.575523L31.995 0.571173C31.9968 0.566503 31.9968 0.56134 31.995 0.55667C31.9923 0.558277 31.9897 0.560053 31.9873 0.561988C31.9827 0.565852 31.9788 0.570422 31.9757 0.575523ZM3.87544 17.4033C3.89429 17.3685 3.91267 17.3332 3.93152 17.2989C3.91315 17.3337 3.89381 17.3685 3.87544 17.4033ZM4.22887 16.7585C4.12492 16.9417 4.02628 17.1215 3.93104 17.2984C4.0287 17.1173 4.12798 16.9373 4.22887 16.7585ZM3.54231 18.0477C3.64578 17.8398 3.75843 17.6233 3.87544 17.4033C3.76182 17.6165 3.65013 17.8311 3.54231 18.0477ZM32.0564 0.526699H32.1439C32.1357 0.507847 32.0956 0.51123 32.0564 0.526699ZM7.45855 12.1381C7.67274 11.8795 7.90868 11.6063 8.16106 11.3284C7.51319 12.0327 6.96057 12.707 6.50174 13.3181C6.8131 12.9155 7.13204 12.5222 7.45855 12.1381ZM31.0749 0.521382L31.0266 0.523799C31.1489 0.520899 31.1818 0.518482 31.0749 0.521382ZM28.0773 0.820609C27.4869 0.915121 26.8994 1.027 26.3155 1.15609C24.3459 1.5893 22.4147 2.18197 20.5412 2.92825C22.483 2.1574 24.4854 1.54896 26.5278 1.1092C27.0997 0.989317 27.6171 0.89457 28.0749 0.820609H28.0773ZM28.4158 0.767918L28.3906 0.771785L28.4535 0.762601L28.4158 0.767918ZM28.3906 0.771785C28.2939 0.786771 28.1851 0.803207 28.0778 0.820126C28.1842 0.801273 28.2862 0.786771 28.3877 0.771785H28.3906ZM19.5046 3.35752C19.4776 3.36912 19.4519 3.3812 19.4253 3.39329C19.5177 3.35268 19.6134 3.31353 19.7072 3.2734C19.64 3.30192 19.5723 3.32851 19.5046 3.35752ZM20.124 3.09648C19.9828 3.15449 19.846 3.21394 19.7077 3.2734C19.9185 3.18349 20.1293 3.09503 20.3396 3.01043C20.2676 3.03944 20.196 3.06651 20.124 3.09648ZM19.2493 3.4716C19.3083 3.44598 19.3654 3.41939 19.4253 3.39329L19.2493 3.4716ZM20.5412 2.92825C20.474 2.95532 20.4068 2.98143 20.3396 3.00898C20.4068 2.98288 20.474 2.95677 20.5412 2.92825ZM23.7013 1.91842C23.7013 1.91842 23.9914 1.83673 24.133 1.79515C24.2747 1.75358 24.4139 1.71539 24.5517 1.67865C24.7248 1.62064 24.6001 1.6337 24.1514 1.76035C23.6196 1.91165 23.0529 2.08955 22.7034 2.23457C22.8726 2.17946 23.0418 2.1229 23.2096 2.07166C23.3774 2.02042 23.7013 1.91987 23.7013 1.91987V1.91842Z" fill="black"/>
</svg>
