<?xml version="1.0" encoding="utf-8"?><svg viewBox="0 0 162 31" xmlns="http://www.w3.org/2000/svg" xmlns:xlink="http://www.w3.org/1999/xlink"><style>:root>svg{display:none}:root>svg:target{display:block}</style><svg viewBox="0 0 14 14" id="cross" xmlns="http://www.w3.org/2000/svg"><path d="M1.4 14L0 12.6 5.6 7 0 1.4 1.4 0 7 5.6 12.6 0 14 1.4 8.4 7l5.6 5.6-1.4 1.4L7 8.4 1.4 14z" fill-opacity=".48"/></svg><svg viewBox="0 0 16 12" id="galka" xmlns="http://www.w3.org/2000/svg"><path d="M5.595 12L0 6.312 1.399 4.89l4.196 4.266L14.601 0 16 1.422 5.595 12z"/></svg><svg viewBox="0 0 162 31" id="logo" xmlns="http://www.w3.org/2000/svg"><path d="M10.473 11.223h1.921c-.31 1.334-.957 2.399-1.94 3.194-.985.782-2.245 1.173-3.782 1.173-2.102 0-3.74-.694-4.913-2.083C.586 12.12 0 10.32 0 8.11c0-2.21.593-4.01 1.78-5.399C2.964 1.322 4.602.628 6.692.628c1.455 0 2.668.364 3.639 1.092.97.714 1.604 1.698 1.9 2.952h-1.92c-.566-1.591-1.773-2.386-3.62-2.386-1.59 0-2.796.56-3.619 1.678-.822 1.119-1.233 2.5-1.233 4.145 0 1.658.404 3.046 1.213 4.165.822 1.105 2.029 1.658 3.62 1.658.997 0 1.82-.236 2.466-.708.647-.485 1.092-1.152 1.335-2.002zM15.059 15.327V5.137h2.73l2.506 4.65h.445l2.508-4.65h2.689v10.19h-1.679V7.138h-.444l-2.366 4.368h-1.9l-2.366-4.368h-.445v8.189h-1.678zM29.963 6.39c.903-1.01 2.13-1.516 3.68-1.516 1.55 0 2.77.505 3.66 1.516.903 1.011 1.355 2.292 1.355 3.842 0 1.55-.452 2.83-1.355 3.841-.89 1.011-2.11 1.517-3.66 1.517-1.55 0-2.777-.506-3.68-1.517-.89-1.01-1.334-2.291-1.334-3.841 0-1.55.445-2.83 1.334-3.842zm1.234 6.592c.566.741 1.381 1.112 2.446 1.112 1.065 0 1.88-.371 2.447-1.112.566-.755.849-1.672.849-2.75 0-1.079-.283-1.988-.85-2.73-.566-.755-1.381-1.132-2.446-1.132-1.065 0-1.88.377-2.446 1.132-.566.742-.85 1.651-.85 2.73 0 1.078.284 1.995.85 2.75zM40.09 6.633V5.137h8.776v1.496h-3.518v8.694h-1.719V6.633h-3.538zM56.026 6.37c-1.065 0-1.867.37-2.406 1.112-.525.741-.788 1.658-.788 2.75s.263 2.008.788 2.75c.54.741 1.342 1.112 2.406 1.112.998 0 1.766-.35 2.305-1.052.553-.714.83-1.651.83-2.81 0-1.16-.277-2.09-.83-2.79-.539-.715-1.307-1.072-2.305-1.072zm-4.893-1.233h1.658v1.091h.445c.728-.903 1.786-1.354 3.175-1.354 1.374 0 2.46.505 3.255 1.516.809 1.011 1.213 2.292 1.213 3.842 0 1.577-.404 2.864-1.213 3.862-.795.997-1.88 1.496-3.255 1.496-1.402 0-2.44-.452-3.114-1.355h-.445v5.136h-1.719V5.137zM66 15.327h-2.427V5.137h1.678v7.885h.445l4.468-7.885h2.507v10.19h-1.678V7.442h-.444l-4.55 7.885zM85.209 30.372H74.958v-1.294h10.25v1.294zM87.026 27.683V13.247h3.033l3.64 6.773h.444l3.58-6.773h3.052v14.436h-1.779V15.31h-.445l-3.7 6.854h-1.9l-3.7-6.854h-.445v12.374h-1.78zM104.987 18.746c.903-1.01 2.13-1.516 3.68-1.516 1.55 0 2.77.505 3.66 1.516.903 1.011 1.354 2.292 1.354 3.842 0 1.55-.451 2.83-1.354 3.842-.89 1.01-2.11 1.516-3.66 1.516-1.55 0-2.777-.505-3.68-1.516-.89-1.011-1.334-2.292-1.334-3.842 0-1.55.444-2.83 1.334-3.842zm1.233 6.592c.567.741 1.382 1.112 2.447 1.112 1.065 0 1.88-.37 2.446-1.112.567-.755.85-1.672.85-2.75s-.283-1.988-.85-2.73c-.566-.755-1.381-1.132-2.446-1.132-1.065 0-1.88.378-2.447 1.132-.566.742-.849 1.652-.849 2.73s.283 1.995.849 2.75zM121.014 17.594c1.496 0 2.676.492 3.538 1.476.863.97 1.294 2.204 1.294 3.7 0 1.483-.458 2.716-1.375 3.7-.903.984-2.123 1.476-3.659 1.476-1.618 0-2.871-.532-3.761-1.597-.876-1.065-1.314-2.588-1.314-4.57 0-.768.02-1.456.06-2.062.054-.607.162-1.24.324-1.9.175-.661.404-1.22.687-1.679a4.064 4.064 0 011.173-1.233c.499-.35 1.092-.58 1.779-.688l2.71-.445c.377-.053.627-.128.748-.222.135-.094.216-.283.242-.566h1.598c-.027.633-.182 1.139-.465 1.516-.283.364-.796.614-1.537.748l-3.134.526c-.849.148-1.476.506-1.88 1.072-.391.552-.647 1.294-.769 2.224h.445c.418-.553.883-.937 1.395-1.153.526-.215 1.16-.323 1.901-.323zm-2.709 7.784c.579.715 1.401 1.072 2.466 1.072 1.065 0 1.881-.357 2.447-1.072.579-.728.869-1.604.869-2.628 0-1.025-.29-1.894-.869-2.609-.566-.714-1.382-1.071-2.447-1.071-1.065 0-1.887.357-2.466 1.071-.567.715-.85 1.584-.85 2.609 0 1.024.283 1.9.85 2.628zM130.953 27.683h-2.426v-10.19h1.678v7.885h.445l4.468-7.885h2.507v10.19h-1.678v-7.885h-.445l-4.549 7.885zM139.794 27.683v-1.617h.344c.714 0 1.226-.33 1.536-.991.31-.674.465-1.887.465-3.64v-3.942h7.805v10.19h-1.739V18.99h-4.468v2.487c0 2.305-.283 3.916-.85 4.832-.552.917-1.469 1.375-2.749 1.375h-.344zM154.966 17.493v3.397h3.013c1.227 0 2.17.296 2.831.89.674.592 1.011 1.421 1.011 2.486 0 1.079-.337 1.921-1.011 2.528-.661.593-1.604.89-2.831.89h-4.731V17.492h1.718zm0 8.694h2.77c.85 0 1.456-.162 1.82-.485.364-.324.546-.802.546-1.436 0-.633-.182-1.112-.546-1.435-.364-.324-.97-.486-1.82-.486h-2.77v3.842z"/></svg></svg>