<svg width="162" height="31" viewBox="0 0 162 31" fill="none" xmlns="http://www.w3.org/2000/svg">
<path d="M10.4735 11.2225H12.3944C12.0843 12.557 11.4373 13.6219 10.4533 14.4172C9.46932 15.199 8.20899 15.5899 6.67233 15.5899C4.56953 15.5899 2.93178 14.8957 1.75907 13.5073C0.586356 12.1189 0 10.3194 0 8.10878C0 5.89815 0.593096 4.09865 1.77929 2.71026C2.96548 1.32188 4.60323 0.627686 6.69255 0.627686C8.14833 0.627686 9.36148 0.991631 10.332 1.71952C11.3025 2.43393 11.9361 3.41793 12.2326 4.67152H10.3118C9.74564 3.08095 8.53923 2.28566 6.69255 2.28566C5.10197 2.28566 3.89556 2.84506 3.07332 3.96385C2.25107 5.08265 1.83995 6.46429 1.83995 8.10878C1.83995 9.76676 2.24433 11.1551 3.0531 12.2739C3.87534 13.3792 5.08175 13.9319 6.67233 13.9319C7.66981 13.9319 8.49206 13.696 9.13907 13.2242C9.78608 12.739 10.2309 12.0717 10.4735 11.2225Z" fill="white"/>
<path d="M15.0587 15.327V5.13656H17.7883L20.2955 9.78697H20.7403L23.2475 5.13656H25.9366V15.327H24.2584V7.13826H23.8136L21.448 11.5056H19.5474L17.1817 7.13826H16.7369V15.327H15.0587Z" fill="white"/>
<path d="M29.9632 6.39015C30.8664 5.37919 32.093 4.87371 33.6431 4.87371C35.1933 4.87371 36.4132 5.37919 37.3028 6.39015C38.2059 7.40111 38.6575 8.68166 38.6575 10.2318C38.6575 11.7819 38.2059 13.0625 37.3028 14.0734C36.4132 15.0844 35.1933 15.5899 33.6431 15.5899C32.093 15.5899 30.8664 15.0844 29.9632 14.0734C29.0736 13.0625 28.6288 11.7819 28.6288 10.2318C28.6288 8.68166 29.0736 7.40111 29.9632 6.39015ZM31.1966 12.9816C31.7628 13.723 32.5783 14.0937 33.6431 14.0937C34.708 14.0937 35.5235 13.723 36.0897 12.9816C36.6558 12.2268 36.9389 11.3102 36.9389 10.2318C36.9389 9.15344 36.6558 8.24358 36.0897 7.50221C35.5235 6.74736 34.708 6.36993 33.6431 6.36993C32.5783 6.36993 31.7628 6.74736 31.1966 7.50221C30.6305 8.24358 30.3474 9.15344 30.3474 10.2318C30.3474 11.3102 30.6305 12.2268 31.1966 12.9816Z" fill="white"/>
<path d="M40.0908 6.63278V5.13656H48.866V6.63278H45.3478V15.327H43.6292V6.63278H40.0908Z" fill="white"/>
<path d="M56.0264 6.36993C54.9615 6.36993 54.1595 6.74062 53.6203 7.48199C53.0946 8.22336 52.8318 9.13996 52.8318 10.2318C52.8318 11.3236 53.0946 12.2402 53.6203 12.9816C54.1595 13.723 54.9615 14.0937 56.0264 14.0937C57.0239 14.0937 57.7922 13.7432 58.3314 13.0423C58.884 12.3279 59.1604 11.391 59.1604 10.2318C59.1604 9.07256 58.884 8.14248 58.3314 7.44155C57.7922 6.72714 57.0239 6.36993 56.0264 6.36993ZM51.1334 5.13656H52.7913V6.2284H53.2362C53.964 5.32528 55.0222 4.87371 56.4106 4.87371C57.7855 4.87371 58.8706 5.37919 59.6659 6.39015C60.4746 7.40111 60.879 8.68166 60.879 10.2318C60.879 11.8089 60.4746 13.0962 59.6659 14.0937C58.8706 15.0911 57.7855 15.5899 56.4106 15.5899C55.0087 15.5899 53.9708 15.1383 53.2968 14.2352H52.852V19.3709H51.1334V5.13656Z" fill="white"/>
<path d="M65.9992 15.327H63.5729V5.13656H65.2511V13.022H65.6959L70.1643 5.13656H72.6715V15.327H70.9933V7.44155H70.5485L65.9992 15.327Z" fill="white"/>
<path d="M85.2089 30.3723H74.9578V29.0783H85.2089V30.3723Z" fill="white"/>
<path d="M87.0263 27.6832V13.2467H90.0592L93.6986 20.0201H94.1434L97.7222 13.2467H100.775V27.6832H98.996V15.3091H98.5512L94.8511 22.1634H92.9505L89.2504 15.3091H88.8056V27.6832H87.0263Z" fill="white"/>
<path d="M104.987 18.7463C105.89 17.7354 107.117 17.2299 108.667 17.2299C110.217 17.2299 111.437 17.7354 112.327 18.7463C113.23 19.7573 113.681 21.0378 113.681 22.588C113.681 24.1381 113.23 25.4186 112.327 26.4296C111.437 27.4406 110.217 27.946 108.667 27.946C107.117 27.946 105.89 27.4406 104.987 26.4296C104.097 25.4186 103.653 24.1381 103.653 22.588C103.653 21.0378 104.097 19.7573 104.987 18.7463ZM106.22 25.3378C106.787 26.0791 107.602 26.4498 108.667 26.4498C109.732 26.4498 110.547 26.0791 111.113 25.3378C111.68 24.5829 111.963 23.6663 111.963 22.588C111.963 21.5096 111.68 20.5997 111.113 19.8584C110.547 19.1035 109.732 18.7261 108.667 18.7261C107.602 18.7261 106.787 19.1035 106.22 19.8584C105.654 20.5997 105.371 21.5096 105.371 22.588C105.371 23.6663 105.654 24.5829 106.22 25.3378Z" fill="white"/>
<path d="M121.014 17.5938C122.51 17.5938 123.69 18.0858 124.552 19.0698C125.415 20.0403 125.846 21.2737 125.846 22.7699C125.846 24.2527 125.388 25.486 124.471 26.47C123.568 27.454 122.348 27.946 120.812 27.946C119.194 27.946 117.941 27.4136 117.051 26.3487C116.175 25.2839 115.737 23.7607 115.737 21.7792C115.737 21.0109 115.757 20.3234 115.797 19.7168C115.851 19.1103 115.959 18.4767 116.121 17.8162C116.296 17.1557 116.525 16.5963 116.808 16.138C117.091 15.6663 117.482 15.2551 117.981 14.9047C118.48 14.5542 119.073 14.3251 119.76 14.2172L122.47 13.7724C122.847 13.7185 123.097 13.6443 123.218 13.55C123.353 13.4556 123.434 13.2669 123.46 12.9839H125.058C125.031 13.6174 124.876 14.1229 124.593 14.5003C124.31 14.8642 123.797 15.1136 123.056 15.2484L119.922 15.7741C119.073 15.9224 118.446 16.2796 118.042 16.8457C117.651 17.3984 117.395 18.1397 117.273 19.0698H117.718C118.136 18.5172 118.601 18.133 119.113 17.9173C119.639 17.7017 120.273 17.5938 121.014 17.5938ZM118.305 25.3782C118.884 26.0926 119.706 26.4498 120.771 26.4498C121.836 26.4498 122.652 26.0926 123.218 25.3782C123.797 24.6503 124.087 23.7742 124.087 22.7497C124.087 21.7253 123.797 20.8559 123.218 20.1414C122.652 19.427 121.836 19.0698 120.771 19.0698C119.706 19.0698 118.884 19.427 118.305 20.1414C117.738 20.8559 117.455 21.7253 117.455 22.7497C117.455 23.7742 117.738 24.6503 118.305 25.3782Z" fill="white"/>
<path d="M130.953 27.6832H128.527V17.4927H130.205V25.3782H130.65L135.118 17.4927H137.625V27.6832H135.947V19.7977H135.502L130.953 27.6832Z" fill="white"/>
<path d="M139.794 27.6832V26.0657H140.138C140.852 26.0657 141.364 25.7354 141.674 25.0749C141.984 24.4009 142.139 23.1878 142.139 21.4355V17.4927H149.944V27.6832H148.205V18.9889H143.737V21.4759C143.737 23.7809 143.454 25.3917 142.887 26.3083C142.335 27.2249 141.418 27.6832 140.138 27.6832H139.794Z" fill="white"/>
<path d="M154.966 17.4927V20.8896H157.979C159.206 20.8896 160.149 21.1861 160.81 21.7792C161.484 22.3723 161.821 23.2013 161.821 24.2662C161.821 25.3445 161.484 26.187 160.81 26.7936C160.149 27.3866 159.206 27.6832 157.979 27.6832H153.248V17.4927H154.966ZM154.966 26.187H157.736C158.586 26.187 159.192 26.0252 159.556 25.7017C159.92 25.3782 160.102 24.8997 160.102 24.2662C160.102 23.6326 159.92 23.1541 159.556 22.8306C159.192 22.5071 158.586 22.3453 157.736 22.3453H154.966V26.187Z" fill="white"/>
</svg>
